<?xml version="1.0" encoding="utf-8"?>
<!-- Generator: Adobe Illustrator 26.5.0, SVG Export Plug-In . SVG Version: 6.00 Build 0)  -->
<svg version="1.1" id="Layer_1" xmlns="http://www.w3.org/2000/svg" xmlns:xlink="http://www.w3.org/1999/xlink" x="0px" y="0px"
	 viewBox="0 0 1920 1080" style="enable-background:new 0 0 1920 1080;" xml:space="preserve">
<style type="text/css">
	.st0{fill:#FFFFFF;}
	.st1{font-family:'Comfortaa-Bold';}
	.st2{font-size:100px;}
	.st3{fill:#E4E4EA;}
	.st4{fill:#EFEFF4;}
	.st5{fill:#ADA4F7;}
	.st6{fill:#FC8165;}
	.st7{fill:#D2D2DB;}
	.st8{fill:#7C4FD3;}
	.st9{fill:#BEBECC;}
	.st10{fill:#80BAFF;}
	.st11{fill:#50447E;}
	.st12{fill:#AFAFBF;}
	.st13{fill:#EA366E;}
	.st14{fill:#FFAF45;}
	.st15{fill:#C7C7D1;}
	.st16{fill:#C5C5D1;}
	.st17{fill:#BDDEFF;}
	.st18{fill:#9364ED;}
	.st19{font-size:75px;}
	.st20{fill:#B5C5E0;}
	.st21{opacity:0.4;}
	.st22{fill:#FAFDF7;}
	.st23{fill:#F5FCEF;}
	.st24{fill:#EFFAE7;}
	.st25{fill:#EAF8DF;}
	.st26{fill:#E5F6D7;}
	.st27{fill:#E0F5D0;}
	.st28{fill:#DAF3C8;}
	.st29{fill:#D5F1C0;}
	.st30{fill:#D0EFB8;}
	.st31{fill:#CBEEB0;}
	.st32{fill:#C6ECA8;}
	.st33{fill:#C0EAA0;}
	.st34{fill:#BBE898;}
	.st35{fill:#B6E790;}
	.st36{fill:#B1E588;}
	.st37{fill:#ABE381;}
	.st38{fill:#A6E179;}
	.st39{fill:#A1E071;}
	.st40{fill:#9CDE69;}
	.st41{fill:#96DC61;}
	.st42{fill:#91DA59;}
	.st43{fill:#8CD951;}
	.st44{fill:#87D749;}
	.st45{fill:#82D541;}
	.st46{fill:#7CD339;}
	.st47{fill:#77D232;}
	.st48{fill:#72D02A;}
	.st49{fill:#6DCE22;}
	.st50{fill:#67CC1A;}
	.st51{fill:#62CB12;}
	.st52{fill:#5DC90A;}
	.st53{fill:#FFF8F7;}
	.st54{fill:#FFF1EF;}
	.st55{fill:#FFEAE8;}
	.st56{fill:#FFE3E0;}
	.st57{fill:#FFDCD8;}
	.st58{fill:#FFD5D0;}
	.st59{fill:#FFCEC9;}
	.st60{fill:#FFC7C1;}
	.st61{fill:#FFC0B9;}
	.st62{fill:#FFB9B1;}
	.st63{fill:#FFB2A9;}
	.st64{fill:#FFABA2;}
	.st65{fill:#FFA49A;}
	.st66{fill:#FF9D92;}
	.st67{fill:#FF968A;}
	.st68{fill:#FF9083;}
	.st69{fill:#FF897B;}
	.st70{fill:#FF8273;}
	.st71{fill:#FF7B6B;}
	.st72{fill:#FF7464;}
	.st73{fill:#FF6D5C;}
	.st74{fill:#FF6654;}
	.st75{fill:#FF5F4C;}
	.st76{fill:#FF5844;}
	.st77{fill:#FF513D;}
	.st78{fill:#FF4A35;}
	.st79{fill:#FF432D;}
	.st80{fill:#FF3C25;}
	.st81{fill:#FF351E;}
	.st82{fill:#FF2E16;}
	.st83{fill:#FF270E;}
	.st84{fill:none;}
	.st85{fill:#F27E64;}
	.st86{fill:#5D2866;}
	.st87{fill:#8988E2;}
	.st88{fill:#FF9280;}
	.st89{fill:#773884;}
	.st90{fill:#EFAE52;}
	.st91{fill:#A49CF2;}
	.st92{fill:#97679B;}
	.st93{fill:#F48462;}
	.st94{fill:#9792E0;}
	.st95{fill:#8B558E;}
	.st96{fill:#F99178;}
	.st97{fill:#C489C9;}
	.st98{fill:#9B4EA8;}
	.st99{fill:#FFA98F;}
	.st100{fill:#A5ACAF;}
	.st101{fill:#51215B;}
	.st102{fill:#968BD6;}
	.st103{fill:#C4CBCE;}
	.st104{fill:#B4C3E3;}
</style>
<rect width="1920" height="1080"/>
<text transform="matrix(1 0 0 1 61.2036 155.7251)" class="st0 st1 st2">Problem</text>
<text transform="matrix(1 0 0 1 71.2014 312.7676)"><tspan x="0" y="0" class="st0 st1 st19">86%</tspan><tspan x="151.6" y="0" class="st20 st1 st19"> of people use passwords </tspan><tspan x="0" y="90" class="st20 st1 st19">that are leaked</tspan><tspan x="0" y="270" class="st0 st1 st19">158 </tspan><tspan x="142.2" y="270" class="st20 st1 st19">accounts hacked </tspan><tspan x="0" y="360" class="st0 st1 st19">every second</tspan><tspan x="0" y="540" class="st20 st1 st19">Compromised passwords </tspan><tspan x="0" y="630" class="st20 st1 st19">cost SMBs </tspan><tspan x="430.6" y="630" class="st0 st1 st19">$0.3M per Attack</tspan></text>
<g id="illustration">
	<g id="XMLID_5024_">
		<g id="XMLID_5032_">
			<path id="XMLID_470_" class="st0" d="M1854.8,895.9c-1.7-0.2-3.3-0.6-4.6-1.2l0.7-1.5c1.2,0.5,2.6,0.9,4.1,1L1854.8,895.9z
				 M1859.5,895.6l-0.3-1.7c1.2-0.2,2.3-0.6,3.3-1.2c0.2-0.1,0.4-0.2,0.6-0.4l1,1.4c-0.2,0.2-0.4,0.3-0.7,0.4
				C1862.2,894.9,1860.9,895.3,1859.5,895.6z M1846.5,891.3c-0.2-0.5-0.3-1-0.3-1.5c0-1.3,0.6-2.5,1.7-3.5l1.1,1.2
				c-0.7,0.7-1.1,1.5-1.1,2.2c0,0.3,0.1,0.6,0.2,0.9L1846.5,891.3z M1864.7,889.5c-0.1-1-0.9-2-2.3-2.8c-0.4-0.2-0.9-0.5-1.4-0.7
				l0.6-1.6c0.6,0.2,1.2,0.5,1.7,0.8c1.8,1,2.9,2.5,3.1,4L1864.7,889.5z M1852.7,885.7l-0.4-1.6c1.3-0.3,2.7-0.5,4.1-0.5l0.6,0
				l-0.1,1.7l-0.6,0C1855.1,885.3,1853.8,885.4,1852.7,885.7z"/>
		</g>
		<g id="XMLID_5023_">
			<path id="XMLID_456_" class="st0" d="M1867.5,885.9l-0.8-1.5l3.9-2.2l0.8,1.5L1867.5,885.9z M1875.3,881.4l-0.8-1.5l3.9-2.2
				l0.8,1.5L1875.3,881.4z M1883.1,877l-0.8-1.5l3.5-2l0.2,0.3l0.3-0.5l1.7,1L1883.1,877z M1881.5,872.5l-3.9-2.2l0.8-1.5l3.9,2.2
				L1881.5,872.5z M1873.7,868l-3.9-2.2l0.8-1.5l3.9,2.2L1873.7,868z M1865.9,863.6l-3.9-2.2l0.8-1.5l3.9,2.2L1865.9,863.6z
				 M1858.1,859.1l-3.9-2.2l0.8-1.5l3.9,2.2L1858.1,859.1z M1850.3,854.6l-3.9-2.2l0.8-1.5l3.9,2.2L1850.3,854.6z M1842.5,850.2
				l-3.9-2.2l0.8-1.5l3.9,2.2L1842.5,850.2z"/>
		</g>
	</g>
	<g id="XMLID_5034_">
		<g id="XMLID_5036_">
			<path id="XMLID_447_" class="st0" d="M1346.2,805.5l-0.2-1.7c1.5-0.1,2.9-0.5,4.1-1l0.7,1.5
				C1349.5,805,1347.9,805.4,1346.2,805.5z M1341.5,805.3c-1.4-0.3-2.7-0.7-3.8-1.4c-0.2-0.1-0.5-0.3-0.7-0.4l1-1.4
				c0.2,0.1,0.4,0.2,0.6,0.4c0.9,0.5,2,0.9,3.2,1.2L1341.5,805.3z M1354.5,800.9l-1.6-0.6c0.1-0.3,0.2-0.6,0.2-0.9
				c0-0.8-0.4-1.5-1.1-2.2l1.1-1.2c1.1,1,1.7,2.2,1.7,3.5C1354.8,799.9,1354.7,800.4,1354.5,800.9z M1336.3,799.2l-1.7-0.2
				c0.2-1.6,1.3-3,3.1-4c0.5-0.3,1.1-0.6,1.7-0.8l0.6,1.6c-0.5,0.2-1,0.4-1.4,0.7C1337.2,797.2,1336.4,798.1,1336.3,799.2z
				 M1348.3,795.4c-1.1-0.3-2.4-0.5-3.6-0.5c0,0,0,0,0,0l-0.6,0l-0.1-1.7l0.6,0c1.3,0,2.8,0.2,4.1,0.5L1348.3,795.4z"/>
		</g>
		<g id="XMLID_5035_">
			<path id="XMLID_431_" class="st0" d="M1336.5,797.3l-2.2-1.2l0.8-1.5l2.2,1.2L1336.5,797.3z M1330.4,793.8l-3.9-2.2l0.8-1.5
				l3.9,2.2L1330.4,793.8z M1322.6,789.3l-3.9-2.2l0.8-1.5l3.9,2.2L1322.6,789.3z M1314.8,784.9l-1.7-1l4.8-2.7l0.8,1.5l-3.5,2
				l-0.1-0.2L1314.8,784.9z M1322.6,780.4l-0.8-1.5l3.9-2.2l0.8,1.5L1322.6,780.4z M1330.4,776l-0.8-1.5l3.9-2.2l0.8,1.5L1330.4,776
				z M1338.3,771.6l-0.8-1.5l3.9-2.2l0.8,1.5L1338.3,771.6z M1346.1,767.2l-0.8-1.5l3.9-2.2l0.8,1.5L1346.1,767.2z M1353.9,762.7
				l-0.8-1.5l3.9-2.2l0.8,1.5L1353.9,762.7z M1361.7,758.3l-0.8-1.5l3.9-2.2l0.8,1.5L1361.7,758.3z M1369.6,753.9l-0.8-1.5l3.9-2.2
				l0.8,1.5L1369.6,753.9z M1377.4,749.5l-0.8-1.5l3.9-2.2l0.8,1.5L1377.4,749.5z M1385.2,745l-0.8-1.5l3.9-2.2l0.8,1.5L1385.2,745z
				 M1393,740.6l-0.8-1.5l3.9-2.2l0.8,1.5L1393,740.6z"/>
		</g>
	</g>
	<g id="XMLID_3969_">
		<g id="XMLID_4164_">
			<path id="XMLID_426_" class="st20" d="M1520.7,893.6l-9.8,0l-8.1-8.2l0-4.6c0,0,0,0,0,0l-11.7-1.9l-17.4,9.5l-12.5-2.7
				c-0.2,0-0.3,0.1-0.3,0.3l0,13.1c0,0,0,0.1,0,0.1l0,0.1l-5.9-0.9c0,0,0,0,0,0l-0.1,13.3c0,0,0,0.5,0.1,0.8l1.7,3.7
				c0.6,1.4,3.1,2.2,5.4,1.8l3.4-0.5c1,0.9,2.2,1.8,3.6,2.6c1.1,0.6,2.3,1.2,3.5,1.7l0,2.9l0,0.2c-0.1,1.2,1.2,2.2,3.3,2.5l6.4,1
				c2.4,0.4,4.8-0.4,5.4-1.8l0.9-2c3.9-0.1,7.7-0.6,11.2-1.7l2.5,1.4c1.7,1,4.5,1,6.3,0l4.7-2.7c0.9-0.5,1.3-0.9,1.3-1.6l0-0.2v0
				l0-9.8l2.6-0.4c2.1-0.3,3.5-1.5,3.3-2.7L1520.7,893.6C1520.7,893.6,1520.7,893.6,1520.7,893.6z"/>
			<path id="XMLID_427_" d="M1483.6,930c-0.5,0-0.9,0-1.4-0.1l-6.4-1c-3-0.5-4.7-2.1-4.5-4.1l0-1.9c-1.1-0.5-2-0.9-2.8-1.4
				c-1.2-0.7-2.3-1.5-3.3-2.4l-2.7,0.4c-3.1,0.5-6.1-0.7-7-2.7l-1.7-3.7c-0.2-0.5-0.3-1-0.3-1.3l0.1-14.1l1.2-0.9l0.6,0.2l4.1,0.6
				l0-11.6c0-0.5,0.2-1,0.6-1.3l0.6-0.4l0.9,0.1l12,2.6l17.4-9.5l13,2.1l0.2,0.5l0.3,0.3l0,4.6l7.2,7.3l10.6,0l0,1.5l-0.1,13.3
				c0.1,0.8-0.1,1.5-0.6,2.2c-0.8,1.1-2.2,1.8-3.9,2.1l-1.4,0.2l-0.1,8.9c0,1.6-1.4,2.4-2,2.7l-4.7,2.7c-2.2,1.2-5.6,1.2-7.7,0
				l-1.9-1.1c-3.1,0.9-6.5,1.4-10.1,1.5l-0.5,1.1C1488.4,928.9,1486.1,930,1483.6,930z M1466.1,916l0.5,0.5c1,0.9,2.1,1.7,3.4,2.5
				c0.9,0.5,2,1,3.3,1.6l0.9,0.4l0,4.2c0.1,0.1,0.6,0.6,2,0.9l6.4,1c1.9,0.3,3.6-0.4,3.9-1l1.3-2.8l0.9,0c3.8-0.1,7.5-0.6,10.8-1.6
				l0.6-0.2l3,1.8c1.3,0.7,3.5,0.8,4.8,0l4.7-2.7c0.5-0.3,0.6-0.4,0.6-0.4l0-0.2l0-10.9l3.9-0.6c1.1-0.2,1.8-0.6,2-0.9l0-0.1
				l0.1-0.3l0.1-12l-8.9,0l-8.9-9.1l0-3.9l-10-1.6L1474,890l-11.6-2.5l0,13.4l-1.7-0.1l-4.2-0.6l0,11.6c0,0,0,0.2,0,0.2l1.7,3.7
				c0.3,0.6,2,1.3,3.9,1L1466.1,916z"/>
		</g>
		<g id="XMLID_3977_">
			<path id="XMLID_418_" class="st0" d="M1513.4,887.5l-3.4,0.5c-1-0.9-2.2-1.8-3.6-2.6c-1.4-0.8-2.9-1.5-4.5-2.1l0.9-2
				c0.6-1.4-0.8-2.8-3.1-3.1l-6.4-1c-2.4-0.4-4.8,0.4-5.4,1.8l-0.9,2c-3.9,0.1-7.7,0.6-11.2,1.7l-2.5-1.4c-1.7-1-4.5-1-6.3,0
				l-4.7,2.7c-1.7,1-1.7,2.6,0,3.6l2.5,1.4c-1.9,2-2.8,4.2-3,6.4l-3.4,0.5c-2.4,0.4-3.8,1.8-3.1,3.1l1.7,3.7
				c0.6,1.4,3.1,2.2,5.4,1.8l3.4-0.5c1,0.9,2.2,1.8,3.6,2.6c1.4,0.8,2.9,1.5,4.5,2.1l-0.9,2c-0.6,1.4,0.8,2.8,3.1,3.1l6.4,1
				c2.4,0.4,4.8-0.4,5.4-1.8l0.9-2c3.9-0.1,7.7-0.6,11.2-1.7l2.5,1.4c1.7,1,4.5,1,6.3,0l4.7-2.7c1.7-1,1.7-2.6,0-3.6l-2.5-1.4
				c1.9-2,2.8-4.2,3-6.4l3.4-0.5c2.4-0.4,3.8-1.8,3.1-3.1l-1.7-3.7C1518.2,888,1515.8,887.2,1513.4,887.5z"/>
			<path id="XMLID_423_" d="M1483.6,916.4c-0.5,0-0.9,0-1.4-0.1l-6.4-1c-2-0.3-3.5-1.2-4.1-2.5c-0.5-0.9-0.5-1.8-0.1-2.7l0.3-0.5
				c-1.2-0.5-2.3-1-3.3-1.6c-1.2-0.7-2.3-1.5-3.3-2.4l-2.7,0.4c-3.1,0.5-6.1-0.7-7-2.7l-1.7-3.7c-0.4-0.9-0.4-1.9,0.1-2.7
				c0.7-1.3,2.2-2.2,4.2-2.5l2.3-0.4c0.3-1.7,1-3.3,2.1-4.8l-1-0.6c-1.3-0.8-2-1.9-2-3.1c0-1.2,0.7-2.3,2-3.1l4.7-2.7
				c2.2-1.2,5.6-1.2,7.7,0l1.9,1.1c3.1-0.9,6.5-1.4,10.1-1.5l0.5-1.1c0.9-2,3.9-3.1,7-2.6l6.4,1c2,0.3,3.5,1.2,4.1,2.5
				c0.5,0.9,0.5,1.8,0.1,2.7l-0.3,0.5c1.2,0.5,2.3,1,3.3,1.6c1.2,0.7,2.3,1.5,3.3,2.4l2.7-0.4c3.1-0.5,6.1,0.7,7,2.7l1.7,3.7
				c0.4,0.9,0.4,1.9-0.1,2.7c-0.7,1.3-2.2,2.2-4.2,2.5l-2.3,0.3c-0.3,1.7-1,3.3-2.1,4.8l1,0.6c1.3,0.8,2,1.9,2,3.1
				c0,1.2-0.7,2.3-2,3.1l-4.7,2.7c-2.2,1.2-5.6,1.2-7.7,0l-1.9-1.1c-3.1,0.9-6.5,1.4-10.1,1.5l-0.5,1.1
				C1488.4,915.4,1486.2,916.4,1483.6,916.4z M1466.1,902.5l0.5,0.5c1,0.9,2.1,1.7,3.4,2.5c1.3,0.7,2.7,1.4,4.3,2l1.5,0.5l-1.6,3.4
				c0.1,0.4,0.7,0.9,2,1.1l6.4,1c1.9,0.3,3.6-0.4,3.9-1l1.3-2.8l0.9,0c3.8-0.1,7.5-0.6,10.8-1.6l0.6-0.2l3,1.8
				c1.3,0.7,3.5,0.8,4.8,0l4.7-2.7c0.5-0.3,0.6-0.5,0.6-0.5c0,0-0.1-0.3-0.6-0.5l-4-2.3l1.2-1.3c1.6-1.7,2.5-3.6,2.6-5.6l0.1-1.2
				l4.6-0.7c1.3-0.2,1.9-0.7,2-1l-1.7-3.8c-0.3-0.6-1.9-1.3-3.9-1l-4.1,0.6l-0.5-0.5c-1-0.9-2.1-1.7-3.4-2.5c-1.3-0.7-2.7-1.4-4.3-2
				l-1.5-0.5l1.6-3.4c-0.1-0.4-0.7-0.9-2-1.1l-6.4-1c-1.9-0.3-3.6,0.4-3.9,1l-1.3,2.8l-0.9,0c-3.8,0.1-7.5,0.6-10.8,1.6l-0.6,0.2
				l-3-1.8c-1.3-0.7-3.5-0.8-4.8,0l-4.7,2.7c-0.5,0.3-0.6,0.5-0.6,0.5c0,0,0.1,0.3,0.6,0.5l4,2.3l-1.2,1.3c-1.6,1.7-2.5,3.6-2.6,5.6
				l-0.1,1.2l-4.6,0.7c-1.3,0.2-1.9,0.7-2,1l1.7,3.8c0.3,0.6,2,1.3,3.9,1L1466.1,902.5z"/>
		</g>
		<g id="XMLID_3976_">
			
				<rect id="XMLID_422_" x="1458.6" y="909" transform="matrix(4.550057e-03 -1 1 4.550057e-03 548.2097 2371.7046)" width="13.5" height="2.9"/>
		</g>
		<g id="XMLID_3975_">
			
				<rect id="XMLID_421_" x="1466" y="917.4" transform="matrix(4.463858e-03 -1 1 4.463858e-03 547.333 2387.502)" width="13.5" height="2.9"/>
		</g>
		<g id="XMLID_3974_">
			
				<rect id="XMLID_420_" x="1481.9" y="917.5" transform="matrix(4.550091e-03 -1 1 4.550091e-03 562.8755 2403.4128)" width="13.5" height="2.9"/>
		</g>
		<g id="XMLID_3973_">
			
				<rect id="XMLID_419_" x="1492.8" y="915.2" transform="matrix(4.549700e-03 -1 1 4.549700e-03 576.0622 2412.0627)" width="13.5" height="2.9"/>
		</g>
		<g id="XMLID_3972_">
			<path id="XMLID_414_" class="st20" d="M1498.2,890c5.7,3.3,5.7,8.7,0,12c-5.7,3.3-15,3.3-20.7,0c-5.7-3.3-5.7-8.7,0-12
				C1483.2,886.7,1492.4,886.7,1498.2,890z"/>
			<path id="XMLID_415_" d="M1487.8,906c-4,0-8-0.9-11.1-2.7c-3.2-1.9-5-4.4-5-7.3s1.8-5.4,5-7.3c6.2-3.6,16-3.6,22.2,0l0,0
				c3.2,1.9,5,4.4,5,7.3s-1.8,5.4-5,7.3C1495.8,905.1,1491.8,906,1487.8,906z M1487.8,889c-3.5,0-7,0.8-9.6,2.3
				c-2.3,1.3-3.6,3-3.6,4.7c0,1.7,1.3,3.4,3.6,4.7c5.3,3.1,14,3.1,19.3,0c2.3-1.3,3.6-3,3.6-4.7c0-1.7-1.3-3.4-3.6-4.7
				C1494.8,889.8,1491.3,889,1487.8,889z"/>
		</g>
		<g id="XMLID_3971_">
			<path id="XMLID_409_" class="st20" d="M1477.4,901.2c-0.2,0.1-0.2,0.1-0.4,0.3c0.2,0.1,0.2,0.4,0.4,0.6c5.7,3.3,15,3.3,20.7,0
				c0.2-0.1,0.2-0.4,0.4-0.6c-0.2-0.1-0.2-0.1-0.4-0.3C1492.4,897.9,1483.2,897.9,1477.4,901.2z"/>
			<path id="XMLID_411_" d="M1487.8,906c-4,0-8-0.9-11.1-2.7c-0.4-0.2-0.6-0.5-0.7-0.7l-1.7-1.1l1.9-1.2c0.2-0.2,0.3-0.2,0.5-0.3
				c6.2-3.6,16-3.6,22.2,0c0.2,0.1,0.3,0.2,0.4,0.2l1.8,1.2l-1.5,1.1c-0.1,0.2-0.3,0.5-0.7,0.8C1495.8,905.1,1491.8,906,1487.8,906z
				 M1479.9,901.6c4.7,1.9,11.1,1.9,15.8,0C1491,899.6,1484.6,899.6,1479.9,901.6z"/>
		</g>
		<g id="XMLID_3970_">
			<rect id="XMLID_410_" x="1481" y="888.1" width="2.9" height="10.5"/>
		</g>
	</g>
	<g id="XMLID_4807_">
		<g id="XMLID_4876_">
			<path id="XMLID_405_" class="st20" d="M1858.9,824.7l-9.8,0l-8.1-8.2l0-4.6c0,0,0,0,0,0l-11.7-1.9l-17.4,9.5l-12.5-2.7
				c-0.2,0-0.3,0.1-0.3,0.3l0,13.1c0,0,0,0.1,0,0.1l0,0.1l-5.9-0.9c0,0,0,0,0,0l-0.1,13.3c0,0,0,0.5,0.1,0.8l1.7,3.7
				c0.6,1.4,3.1,2.2,5.4,1.8l3.4-0.5c1,0.9,2.2,1.8,3.6,2.6c1.1,0.6,2.3,1.2,3.5,1.7l0,2.9l0,0.2c-0.1,1.2,1.2,2.2,3.3,2.5l6.4,1
				c2.4,0.4,4.8-0.4,5.4-1.8l0.9-2c3.9-0.1,7.7-0.6,11.2-1.7l2.5,1.4c1.7,1,4.5,1,6.3,0l4.7-2.7c0.9-0.5,1.3-0.9,1.3-1.6l0-0.2v0
				l0-9.8l2.6-0.4c2.1-0.3,3.5-1.5,3.3-2.7L1858.9,824.7C1858.9,824.7,1858.9,824.7,1858.9,824.7z"/>
			<path id="XMLID_406_" d="M1821.8,861.1c-0.5,0-0.9,0-1.4-0.1l-6.4-1c-3-0.5-4.7-2.1-4.5-4.1V854c-1.1-0.5-2-0.9-2.8-1.4
				c-1.2-0.7-2.3-1.5-3.3-2.4l-2.7,0.4c-3.1,0.5-6.1-0.7-7-2.7l-1.7-3.7c-0.2-0.5-0.3-1-0.3-1.3l0.1-14.8l1.5,0l4.4,0.7l0-12.3
				l0.6-0.6c0.4-0.3,0.9-0.5,1.4-0.3l12,2.6l17.3-9.5l12.7,2l0.8,0.8l0,0.6l0,4l7.2,7.3l10.6,0l0,1.5l-0.1,13.3
				c0.1,0.8-0.1,1.5-0.6,2.2c-0.8,1.1-2.2,1.8-3.9,2.1l-1.4,0.2l-0.1,8.9c0,1.6-1.4,2.4-2,2.7l-4.7,2.7c-2.2,1.2-5.6,1.2-7.7,0
				l-1.9-1.1c-3.1,0.9-6.5,1.4-10.1,1.5l-0.5,1.1C1826.6,860.1,1824.3,861.1,1821.8,861.1z M1804.3,847.1l0.5,0.5
				c1,0.9,2.1,1.7,3.4,2.5c0.9,0.5,2,1,3.3,1.6l0.9,0.4l0,4.2c0.1,0.1,0.6,0.6,2,0.9l6.4,1c1.9,0.3,3.6-0.4,3.9-1l1.3-2.8l0.9,0
				c3.8-0.1,7.5-0.6,10.8-1.6l0.6-0.2l3,1.8c1.3,0.7,3.5,0.8,4.8,0l4.7-2.7c0.5-0.3,0.6-0.4,0.6-0.4l0-0.2l0-10.9l3.9-0.6
				c1.1-0.2,1.8-0.6,2-0.9l0-0.1l0.1-0.3l0.1-12l-8.9,0l-8.9-9.1l0-3.9l-10-1.6l-17.4,9.5l-11.6-2.5l0,13.4l-1.7-0.1l-4.2-0.6
				l0,11.6c0,0,0,0.2,0,0.2l1.7,3.7c0.3,0.6,2,1.3,3.9,1L1804.3,847.1z"/>
		</g>
		<g id="XMLID_4875_">
			<path id="XMLID_396_" class="st0" d="M1851.6,818.7l-3.4,0.5c-1-0.9-2.2-1.8-3.6-2.6c-1.4-0.8-2.9-1.5-4.5-2.1l0.9-2
				c0.6-1.4-0.8-2.8-3.1-3.1l-6.4-1c-2.4-0.4-4.8,0.4-5.4,1.8l-0.9,2c-3.9,0.1-7.7,0.6-11.2,1.7l-2.5-1.4c-1.7-1-4.5-1-6.3,0
				l-4.7,2.7c-1.7,1-1.7,2.6,0,3.6l2.5,1.4c-1.9,2-2.8,4.2-3,6.4l-3.4,0.5c-2.4,0.4-3.8,1.8-3.1,3.1l1.7,3.7
				c0.6,1.4,3.1,2.2,5.4,1.8l3.4-0.5c1,0.9,2.2,1.8,3.6,2.6c1.4,0.8,2.9,1.5,4.5,2.1l-0.9,2c-0.6,1.4,0.8,2.8,3.1,3.1l6.4,1
				c2.4,0.4,4.8-0.4,5.4-1.8l0.9-2c3.9-0.1,7.7-0.6,11.2-1.7l2.5,1.4c1.7,1,4.5,1,6.3,0l4.7-2.7c1.7-1,1.7-2.6,0-3.6l-2.5-1.4
				c1.9-2,2.8-4.2,3-6.4l3.4-0.5c2.4-0.4,3.8-1.8,3.1-3.1l-1.7-3.7C1856.4,819.1,1854,818.3,1851.6,818.7z"/>
			<path id="XMLID_402_" d="M1821.8,847.6c-0.5,0-0.9,0-1.4-0.1l-6.4-1c-2-0.3-3.5-1.2-4.1-2.5c-0.5-0.9-0.5-1.8-0.1-2.7l0.3-0.5
				c-1.2-0.5-2.3-1-3.3-1.6c-1.2-0.7-2.3-1.5-3.3-2.4l-2.7,0.4c-3.1,0.5-6.1-0.7-7-2.7l-1.7-3.7c-0.4-0.9-0.4-1.9,0.1-2.7
				c0.7-1.3,2.2-2.2,4.2-2.5l2.3-0.4c0.3-1.7,1-3.3,2.1-4.8l-1-0.6c-1.3-0.8-2-1.9-2-3.1c0-1.2,0.8-2.3,2-3.1l4.7-2.7
				c2.2-1.2,5.6-1.2,7.7,0l1.9,1.1c3.1-0.9,6.5-1.4,10.1-1.5l0.5-1.1c0.9-2,3.9-3.1,7-2.6l6.4,1c2,0.3,3.5,1.2,4.1,2.5
				c0.5,0.9,0.5,1.8,0.1,2.7l-0.3,0.5c1.2,0.5,2.3,1,3.3,1.6c1.2,0.7,2.3,1.5,3.3,2.4l2.7-0.4c3.1-0.5,6.1,0.7,7,2.7l1.7,3.7
				c0.4,0.9,0.4,1.9-0.1,2.7c-0.7,1.3-2.2,2.2-4.2,2.5l-2.3,0.3c-0.3,1.7-1,3.3-2.1,4.8l1,0.6c1.3,0.7,2,1.9,2,3.1
				c0,1.2-0.8,2.3-2,3.1l-4.7,2.7c-2.2,1.2-5.6,1.2-7.7,0l-1.9-1.1c-3.1,0.9-6.5,1.4-10.1,1.5l-0.5,1.1
				C1826.6,846.5,1824.4,847.6,1821.8,847.6z M1804.3,833.6l0.5,0.5c1,0.9,2.1,1.7,3.4,2.5c1.3,0.7,2.7,1.4,4.3,2l1.5,0.6l-1.6,3.4
				c0.1,0.4,0.7,0.9,2,1.1l6.4,1c1.9,0.3,3.6-0.4,3.9-1l1.3-2.8l0.9,0c3.8-0.1,7.5-0.6,10.8-1.6l0.6-0.2l3,1.8
				c1.3,0.7,3.5,0.8,4.8,0l4.7-2.7c0.5-0.3,0.6-0.5,0.6-0.5c0,0-0.1-0.3-0.6-0.5l-4-2.3l1.2-1.3c1.6-1.7,2.5-3.6,2.6-5.6l0.1-1.2
				l4.6-0.7c1.3-0.2,1.9-0.7,2-1l-1.7-3.8c-0.3-0.6-1.9-1.3-3.9-1l-4.1,0.6l-0.5-0.5c-1-0.9-2.1-1.7-3.4-2.5c-1.3-0.7-2.7-1.4-4.3-2
				l-1.5-0.5l1.6-3.4c-0.1-0.4-0.7-0.9-2-1.1l-6.4-1c-1.9-0.3-3.6,0.4-3.9,1l-1.3,2.8l-0.9,0c-3.8,0.1-7.5,0.6-10.8,1.6l-0.6,0.2
				l-3-1.8c-1.3-0.7-3.5-0.8-4.8,0l-4.7,2.7c-0.5,0.3-0.6,0.5-0.6,0.5c0,0,0.1,0.3,0.6,0.5l4,2.3l-1.2,1.3c-1.6,1.7-2.5,3.6-2.6,5.6
				l-0.1,1.2l-4.6,0.7c-1.3,0.2-1.9,0.7-2,1l1.7,3.8c0.3,0.6,2,1.3,3.9,1L1804.3,833.6z"/>
		</g>
		<g id="XMLID_4874_">
			
				<rect id="XMLID_400_" x="1796.8" y="840.2" transform="matrix(4.463858e-03 -1 1 4.463858e-03 953.8625 2641.448)" width="13.5" height="2.9"/>
		</g>
		<g id="XMLID_4873_">
			
				<rect id="XMLID_399_" x="1804.2" y="848.6" transform="matrix(4.549700e-03 -1 1 4.549700e-03 952.7036 2657.0916)" width="13.5" height="2.9"/>
		</g>
		<g id="XMLID_4872_">
			
				<rect id="XMLID_398_" x="1820.1" y="848.7" transform="matrix(4.463858e-03 -1 1 4.463858e-03 968.5305 2673.1572)" width="13.5" height="2.9"/>
		</g>
		<g id="XMLID_4871_">
			
				<rect id="XMLID_397_" x="1831" y="846.4" transform="matrix(4.464241e-03 -1 1 4.464241e-03 981.7156 2681.8074)" width="13.5" height="2.9"/>
		</g>
		<g id="XMLID_4870_">
			<path id="XMLID_390_" class="st20" d="M1836.4,821.2c5.7,3.3,5.7,8.7,0,12s-15,3.3-20.7,0c-5.7-3.3-5.7-8.7,0-12
				C1821.4,817.9,1830.6,817.9,1836.4,821.2z"/>
			<path id="XMLID_392_" d="M1826,837.1c-4,0-8-0.9-11.1-2.7c-3.2-1.9-5-4.4-5-7.3c0-2.8,1.8-5.4,5-7.3c6.2-3.6,16-3.6,22.2,0l0,0
				c3.2,1.9,5,4.4,5,7.3c0,2.8-1.8,5.4-5,7.3C1834,836.2,1830,837.1,1826,837.1z M1826,820.2c-3.5,0-7,0.8-9.6,2.3
				c-2.3,1.3-3.6,3-3.6,4.7c0,1.7,1.3,3.4,3.6,4.7c5.3,3.1,14,3.1,19.3,0c2.3-1.3,3.6-3,3.6-4.7c0-1.7-1.3-3.4-3.6-4.7
				C1833,820.9,1829.5,820.2,1826,820.2z"/>
		</g>
		<g id="XMLID_4810_">
			<path id="XMLID_384_" class="st20" d="M1815.6,832.3c-0.2,0.1-0.2,0.1-0.4,0.3c0.2,0.1,0.2,0.4,0.4,0.6c5.7,3.3,15,3.3,20.7,0
				c0.2-0.1,0.2-0.4,0.4-0.6c-0.2-0.1-0.2-0.1-0.4-0.3C1830.6,829,1821.4,829,1815.6,832.3z"/>
			<path id="XMLID_386_" d="M1826,837.1c-4,0-8-0.9-11.1-2.7c-0.4-0.2-0.6-0.5-0.7-0.7l-1.6-1.1l1.8-1.2c0.2-0.2,0.3-0.2,0.5-0.3
				c6.2-3.6,16-3.6,22.2,0c0.2,0.1,0.3,0.2,0.4,0.3l1.8,1.2l-1.5,1.1c-0.1,0.2-0.3,0.5-0.7,0.8C1834,836.2,1830,837.1,1826,837.1z
				 M1818.1,832.8c4.7,1.9,11.1,1.9,15.8,0C1829.2,830.8,1822.8,830.8,1818.1,832.8z"/>
		</g>
		<g id="XMLID_4808_">
			<rect id="XMLID_385_" x="1819.2" y="819.3" width="2.9" height="10.6"/>
		</g>
	</g>
	<g id="XMLID_4975_">
		<g id="XMLID_5020_">
			<path id="XMLID_378_" class="st20" d="M1485.7,618.8l-9.8,0l-8.1-8.2l0-4.6c0,0,0,0,0,0l-11.7-1.9l-17.4,9.5l-12.5-2.7
				c-0.2,0-0.3,0.1-0.3,0.3l0,13.1c0,0,0,0.1,0,0.1l0,0.1l-5.9-0.9c0,0,0,0,0,0l-0.1,13.3c0,0,0,0.5,0.1,0.8l1.7,3.7
				c0.6,1.4,3.1,2.2,5.4,1.8l3.4-0.5c1,0.9,2.2,1.8,3.6,2.6c1.1,0.6,2.3,1.2,3.5,1.7l0,2.9l0,0.2c-0.1,1.2,1.2,2.2,3.3,2.5l6.4,1
				c2.4,0.4,4.8-0.4,5.4-1.8l0.9-2c3.9-0.1,7.7-0.6,11.2-1.7l2.5,1.4c1.7,1,4.5,1,6.3,0l4.7-2.7c0.9-0.5,1.3-0.9,1.3-1.6l0-0.2v0
				l0-9.8l2.6-0.4c2.1-0.3,3.5-1.5,3.3-2.7L1485.7,618.8C1485.7,618.9,1485.7,618.8,1485.7,618.8z"/>
			<path id="XMLID_380_" d="M1448.6,655.2c-0.5,0-0.9,0-1.4-0.1l-6.4-1c-3-0.5-4.7-2.1-4.5-4.1v-1.9c-1.1-0.5-2-0.9-2.8-1.4
				c-1.2-0.7-2.3-1.5-3.3-2.4l-2.7,0.4c-3.1,0.5-6.1-0.7-7-2.7l-1.7-3.7c-0.2-0.5-0.3-1.1-0.3-1.3l0.1-14.1l1-0.9l4.9,0.7l0-12.3
				l0.6-0.6c0.4-0.3,0.9-0.5,1.4-0.3l12,2.6l17.4-9.5l12.6,2l0.6,0.4l0.3,0.6l0,4.3l7.2,7.3l10.6,0l0,1.5l-0.1,13.3
				c0.1,0.8-0.1,1.5-0.6,2.2c-0.8,1.1-2.2,1.8-3.9,2.1l-1.4,0.2l-0.1,8.9c0,1.6-1.4,2.4-2,2.7l-4.7,2.7c-2.2,1.2-5.6,1.2-7.7,0
				l-1.9-1.1c-3.1,0.9-6.5,1.4-10.1,1.5l-0.5,1.1C1453.4,654.2,1451.1,655.2,1448.6,655.2z M1431.1,641.2l0.5,0.5
				c1,0.9,2.1,1.7,3.4,2.5c0.9,0.5,2,1,3.3,1.6l0.9,0.4l0,4.2c0.1,0.1,0.6,0.6,2,0.9l6.4,1c1.9,0.3,3.6-0.4,3.9-1l1.3-2.8l0.9,0
				c3.8-0.1,7.5-0.6,10.8-1.6l0.6-0.2l3,1.8c1.3,0.7,3.5,0.8,4.8,0l4.7-2.7c0.5-0.3,0.6-0.4,0.6-0.4l0-0.2l0-10.9l3.9-0.6
				c1.1-0.2,1.8-0.6,2-0.9l0-0.1l0.1-0.3l0.1-12l-8.9,0l-8.9-9.1l0-3.9l-10-1.6l-17.4,9.5l-11.6-2.5l0,13.4l-1.7-0.1l-4.2-0.6
				l0,11.6c0,0,0,0.2,0,0.2l1.7,3.7c0.3,0.6,2,1.3,3.9,1L1431.1,641.2z"/>
		</g>
		<g id="XMLID_5019_">
			<path id="XMLID_366_" class="st0" d="M1478.4,612.8l-3.4,0.5c-1-0.9-2.2-1.8-3.6-2.6c-1.4-0.8-2.9-1.5-4.5-2.1l0.9-2
				c0.6-1.4-0.8-2.8-3.1-3.1l-6.4-1c-2.4-0.4-4.8,0.4-5.4,1.8l-0.9,2c-3.9,0.1-7.7,0.6-11.2,1.7l-2.5-1.4c-1.7-1-4.5-1-6.3,0
				l-4.7,2.7c-1.7,1-1.7,2.6,0,3.6l2.5,1.4c-1.9,2-2.8,4.2-3,6.4l-3.4,0.5c-2.4,0.4-3.8,1.8-3.1,3.1l1.7,3.7
				c0.6,1.4,3.1,2.2,5.4,1.8l3.4-0.5c1,0.9,2.2,1.8,3.6,2.6c1.4,0.8,2.9,1.5,4.5,2.1l-0.9,2c-0.6,1.4,0.8,2.8,3.1,3.1l6.4,1
				c2.4,0.4,4.8-0.4,5.4-1.8l0.9-2c3.9-0.1,7.7-0.6,11.2-1.7l2.5,1.4c1.7,1,4.5,1,6.3,0l4.7-2.7c1.7-1,1.7-2.6,0-3.6l-2.5-1.4
				c1.9-2,2.8-4.2,3-6.4l3.4-0.5c2.4-0.4,3.8-1.8,3.1-3.1l-1.7-3.7C1483.2,613.3,1480.8,612.4,1478.4,612.8z"/>
			<path id="XMLID_374_" d="M1448.7,641.7c-0.5,0-0.9,0-1.4-0.1l-6.4-1c-2-0.3-3.5-1.2-4.1-2.5c-0.5-0.9-0.5-1.8-0.1-2.7l0.3-0.5
				c-1.2-0.5-2.3-1-3.3-1.6c-1.2-0.7-2.3-1.5-3.3-2.4l-2.7,0.4c-3.1,0.5-6.1-0.7-7-2.7l-1.7-3.7c-0.4-0.9-0.4-1.9,0.1-2.7
				c0.7-1.3,2.2-2.2,4.2-2.5l2.3-0.3c0.3-1.7,1-3.3,2.1-4.8l-1-0.6c-1.3-0.7-2-1.9-2-3.1c0-1.2,0.7-2.3,2-3.1l4.7-2.7
				c2.2-1.2,5.6-1.2,7.7,0l1.9,1.1c3.1-0.9,6.5-1.4,10.1-1.5l0.5-1.1c0.9-2,3.9-3.1,7-2.6l6.4,1c2,0.3,3.5,1.2,4.1,2.5
				c0.5,0.9,0.5,1.8,0.1,2.7l-0.3,0.5c1.2,0.5,2.3,1.1,3.3,1.6c1.2,0.7,2.3,1.5,3.3,2.4l2.7-0.4c3.1-0.5,6.1,0.7,7,2.7l1.7,3.7
				c0.4,0.9,0.4,1.9-0.1,2.7c-0.7,1.3-2.2,2.2-4.2,2.5l-2.3,0.3c-0.3,1.7-1,3.3-2.1,4.8l1,0.6c1.3,0.7,2,1.9,2,3.1
				c0,1.2-0.7,2.3-2,3.1l-4.7,2.7c-2.2,1.2-5.6,1.2-7.7,0l-1.9-1.1c-3.1,0.9-6.5,1.4-10.1,1.5l-0.5,1.1
				C1453.4,640.6,1451.2,641.7,1448.7,641.7z M1431.1,627.7l0.5,0.5c1,0.9,2.1,1.7,3.4,2.5c1.3,0.7,2.7,1.4,4.3,2l1.5,0.6l-1.6,3.4
				c0.1,0.4,0.7,0.9,2,1.1l6.4,1c1.9,0.3,3.6-0.4,3.9-1l1.3-2.8l0.9,0c3.8-0.1,7.5-0.6,10.8-1.6l0.6-0.2l3,1.8
				c1.3,0.7,3.5,0.8,4.8,0l4.7-2.7c0.5-0.3,0.6-0.5,0.6-0.5c0,0-0.1-0.3-0.6-0.5l-4-2.3l1.2-1.3c1.6-1.7,2.5-3.6,2.6-5.6l0.1-1.2
				l4.6-0.7c1.3-0.2,1.9-0.7,2-1l-1.7-3.8c-0.3-0.6-1.9-1.3-3.9-1l-4.1,0.6l-0.5-0.5c-1-0.9-2.1-1.7-3.4-2.5c-1.3-0.7-2.7-1.4-4.3-2
				l-1.5-0.6l1.6-3.4c-0.1-0.4-0.7-0.9-2-1.1l-6.4-1c-1.9-0.3-3.6,0.4-3.9,1l-1.3,2.8l-0.9,0c-3.8,0.1-7.5,0.6-10.8,1.6l-0.6,0.2
				l-3-1.8c-1.3-0.7-3.5-0.8-4.8,0l-4.7,2.7c-0.5,0.3-0.6,0.5-0.6,0.5c0,0,0.1,0.3,0.6,0.5l4,2.3l-1.2,1.3c-1.6,1.7-2.5,3.6-2.6,5.6
				l-0.1,1.2l-4.6,0.7c-1.3,0.2-1.9,0.7-2,1l1.7,3.8c0.3,0.6,1.9,1.3,3.9,1L1431.1,627.7z"/>
		</g>
		<g id="XMLID_5018_">
			
				<rect id="XMLID_372_" x="1423.6" y="634.3" transform="matrix(3.777121e-03 -1 1 3.777121e-03 789.2164 2063.739)" width="13.5" height="2.9"/>
		</g>
		<g id="XMLID_5012_">
			
				<rect id="XMLID_371_" x="1431" y="642.7" transform="matrix(3.777418e-03 -1 1 3.777418e-03 788.2173 2079.4619)" width="13.5" height="2.9"/>
		</g>
		<g id="XMLID_4980_">
			
				<rect id="XMLID_369_" x="1446.9" y="642.8" transform="matrix(3.691596e-03 -1 1 3.691596e-03 804.0239 2095.5103)" width="13.5" height="2.9"/>
		</g>
		<g id="XMLID_4979_">
			
				<rect id="XMLID_368_" x="1457.8" y="640.5" transform="matrix(3.777093e-03 -1 1 3.777093e-03 817.0943 2104.1025)" width="13.5" height="2.9"/>
		</g>
		<g id="XMLID_4978_">
			<path id="XMLID_361_" class="st20" d="M1463.2,615.3c5.7,3.3,5.7,8.7,0,12c-5.7,3.3-15,3.3-20.7,0c-5.7-3.3-5.7-8.7,0-12
				C1448.2,612,1457.5,612,1463.2,615.3z"/>
			<path id="XMLID_362_" d="M1452.8,631.2c-4,0-8-0.9-11.1-2.7c-3.2-1.9-5-4.4-5-7.3c0-2.8,1.8-5.4,5-7.3c6.2-3.6,16-3.6,22.2,0
				c3.2,1.9,5,4.4,5,7.3c0,2.8-1.8,5.4-5,7.3C1460.8,630.3,1456.8,631.2,1452.8,631.2z M1452.8,614.3c-3.5,0-7,0.8-9.6,2.3
				c-2.3,1.3-3.6,3-3.6,4.7c0,1.7,1.3,3.4,3.6,4.7c5.3,3.1,14,3.1,19.3,0c2.3-1.3,3.6-3,3.6-4.7c0-1.7-1.3-3.4-3.6-4.7l0,0
				C1459.8,615,1456.3,614.3,1452.8,614.3z"/>
		</g>
		<g id="XMLID_4977_">
			<path id="XMLID_354_" class="st20" d="M1442.4,626.4c-0.2,0.1-0.2,0.1-0.4,0.3c0.2,0.1,0.2,0.4,0.4,0.6c5.7,3.3,15,3.3,20.7,0
				c0.2-0.1,0.2-0.4,0.4-0.6c-0.2-0.1-0.2-0.1-0.4-0.3C1457.5,623.1,1448.2,623.1,1442.4,626.4z"/>
			<path id="XMLID_357_" d="M1452.8,631.2c-4,0-8-0.9-11.1-2.7c-0.4-0.2-0.6-0.5-0.7-0.7l-1.6-1.1l1.9-1.2c0.2-0.2,0.3-0.2,0.5-0.3
				l0,0c6.2-3.6,16-3.6,22.2,0c0.2,0.1,0.3,0.2,0.4,0.3l1.8,1.2l-1.5,1.1c-0.1,0.2-0.3,0.5-0.7,0.8
				C1460.8,630.3,1456.8,631.2,1452.8,631.2z M1444.9,626.9c4.7,1.9,11.1,1.9,15.8,0C1456,624.9,1449.6,624.9,1444.9,626.9z"/>
		</g>
		<g id="XMLID_4976_">
			<rect id="XMLID_355_" x="1446" y="613.4" width="2.9" height="10.6"/>
		</g>
	</g>
	<g id="XMLID_4779_">
		<g id="XMLID_5_">
			<g id="XMLID_1999_">
				<g id="XMLID_2030_">
					<path id="XMLID_348_" d="M1688.2,933.6c1.8-3.6,2.8-8.2,2.8-13.7V575c0-18.7-11.3-40.3-25.3-48.4l-130.8-75.5
						c-5.9-3.4-11.3-3.8-15.7-1.8l0,0c-7.5,2.6-14.2,9.1-14.2,9.1l4.8,7.3l0,0c-0.2,1.5-0.3,3-0.3,4.6v344.9
						c0,18.7,11.3,40.3,25.3,48.4l130.8,75.5l4.5,8.9c0,0,11.2-2.1,17.5-13.3c0-0.1,0.1-0.1,0.1-0.2
						C1688,934.2,1688.1,934,1688.2,933.6C1688.2,933.7,1688.2,933.7,1688.2,933.6z"/>
					<path id="XMLID_350_" d="M1669.4,949.6l-4.8-9.5l-130.4-75.3c-14.4-8.3-26.1-30.6-26.1-49.7V470.2c0-1.3,0.1-2.7,0.2-4.2
						l-5.2-7.9l0.9-0.8c0.3-0.3,7-6.7,14.7-9.4l0.1-0.1c4.9-2.2,10.7-1.5,16.7,2l130.8,75.5c14.4,8.3,26.1,30.6,26.1,49.7v344.9
						c0,5.6-1,10.4-2.9,14.3l-0.1,0.1c-0.2,0.4-0.3,0.6-0.4,0.8l-0.1,0.2c-6.6,11.6-18,13.9-18.5,14L1669.4,949.6z M1511.5,463.8
						l-0.2,2.1c-0.2,1.6-0.3,3-0.3,4.4v344.9c0,18.2,11,39.3,24.6,47.1l131.2,75.7l4.2,8.2c2.8-0.8,10.7-3.8,15.5-12.3
						c0.2-0.3,0.3-0.5,0.4-0.7l0.1-0.2c1.7-3.5,2.6-8,2.6-13.1V575c0-18.2-11-39.3-24.6-47.1l-130.8-75.5
						c-5.3-3.1-10.2-3.7-14.3-1.7l-0.7,0.3l-0.1-0.1c-5.3,2-10.2,6-12.1,7.7l3.5,5.4L1511.5,463.8z"/>
				</g>
				<g id="XMLID_2029_">
					<path id="XMLID_343_" class="st0" d="M1654.6,946.1l-130.8-75.5c-14-8.1-25.3-29.8-25.3-48.4V477.3c0-18.7,11.3-27.2,25.3-19.2
						l130.8,75.5c14,8.1,25.3,29.8,25.3,48.4v344.9C1679.9,945.6,1668.6,954.2,1654.6,946.1z"/>
					<path id="XMLID_344_" d="M1664.7,950.6c-3.4,0-7.1-1.1-10.8-3.2l-130.8-75.5c-14.4-8.3-26.1-30.6-26.1-49.7V477.3
						c0-10.3,3.5-18.3,9.5-21.8c5.1-2.9,11.5-2.5,18,1.3l130.8,75.5c14.4,8.3,26.1,30.6,26.1,49.7v344.9c0,10.3-3.5,18.3-9.5,21.8
						C1669.7,950,1667.3,950.6,1664.7,950.6z M1655.3,944.8c5.6,3.2,11,3.7,15.1,1.3c5.1-2.9,8-10,8-19.2V582.1
						c0-18.2-11-39.3-24.6-47.1l-130.8-75.5c-5.6-3.2-11-3.7-15.1-1.3c-5.1,2.9-8,10-8,19.2v344.9c0,18.2,11,39.3,24.6,47.1
						L1655.3,944.8z"/>
				</g>
				<g id="XMLID_2028_">
					<path id="XMLID_315_" class="st20" d="M1646.7,540l-46.2-26.4c-0.6-0.4-1.4,0.1-1.4,0.8v2.9c0,4.8-5.3,7.8-9.4,5.3l-2.7-1.6
						c-4.6-2.8-7.4-7.7-7.4-13.1V503c0-1.2-0.6-2.3-1.7-2.9l-56.9-32.7c-7-4.1-12.8-0.7-12.8,7.4v348.7c0,14.9,10.6,33.3,23.5,40.7
						l125.7,72.6c7,4.1,12.8,0.7,12.8-7.4V580.7C1670.2,565.8,1659.6,547.5,1646.7,540z"/>
					<path id="XMLID_338_" d="M1663.1,940c-2,0-4.2-0.6-6.4-1.9L1531,865.5c-13.4-7.7-24.3-26.6-24.3-42V474.8
						c0-4.5,1.6-7.9,4.5-9.5c2.9-1.7,6.6-1.4,10.5,0.9l56.9,32.7c1.5,0.9,2.4,2.4,2.4,4.2v4.9c0,4.8,2.6,9.4,6.7,11.9l2.7,1.6
						c1.5,0.9,3.3,0.9,4.8,0.1c1.5-0.9,2.4-2.4,2.4-4.1v-2.9c0-0.9,0.4-1.6,1.2-2.1c0.7-0.4,1.6-0.4,2.4,0l46.2,26.4
						c13.4,7.7,24.3,26.6,24.3,42v348.7c0,4.5-1.6,7.9-4.5,9.5C1665.9,939.6,1664.6,940,1663.1,940z M1515.3,467.1
						c-1,0-1.9,0.2-2.6,0.7c-2,1.1-3,3.6-3,7v348.7c0,14.5,10.2,32.2,22.8,39.5l125.7,72.6c2.9,1.7,5.6,2,7.6,0.9c2-1.1,3-3.6,3-7
						V580.7c0-14.5-10.2-32.2-22.8-39.5l-45.4-25.9v2c0,2.8-1.5,5.3-3.9,6.7c-2.4,1.4-5.3,1.3-7.7-0.1l-2.7-1.6
						c-5-3-8.1-8.5-8.1-14.4V503c0-0.7-0.4-1.3-0.9-1.6l-56.9-32.7C1518.5,467.7,1516.8,467.1,1515.3,467.1z"/>
				</g>
				<path id="XMLID_2021_" d="M1592.4,515.3c0,2.1-1.4,2.9-3.2,1.9c-1.8-1-3.2-3.5-3.2-5.6s1.4-2.9,3.2-1.9
					C1591,510.8,1592.4,513.3,1592.4,515.3z"/>
				<g id="XMLID_2016_">
					
						<rect id="XMLID_337_" x="1673.5" y="551.1" transform="matrix(0.8717 -0.49 0.49 0.8717 -55.0633 893.5086)" class="st20" width="11.3" height="1.7"/>
				</g>
				<g id="XMLID_2014_">
					<path id="XMLID_336_" class="st20" d="M1523.1,457.7l-1.2-1.1c0.2-0.2,4.4-4.8,10.9-6.3l0.4,1.6
						C1527.2,453.3,1523.2,457.6,1523.1,457.7z"/>
				</g>
				<g id="XMLID_2013_">
					<path id="XMLID_335_" class="st20" d="M1528.4,460.7l-1.2-1.1c0.2-0.2,4.4-4.8,10.9-6.3l0.4,1.6
						C1532.5,456.3,1528.4,460.6,1528.4,460.7z"/>
				</g>
				<g id="XMLID_2011_">
					
						<rect id="XMLID_333_" x="1678.4" y="564.5" transform="matrix(0.8954 -0.4452 0.4452 0.8954 -75.5827 808.8724)" class="st20" width="11.3" height="1.7"/>
				</g>
				<g id="XMLID_2010_">
					<path id="XMLID_332_" class="st20" d="M1681.2,910.3l-0.8-1.5c0.1,0,6.5-3.4,10-6.7l1.1,1.2
						C1687.9,906.8,1681.5,910.2,1681.2,910.3z"/>
				</g>
				<g id="XMLID_2009_">
					<path id="XMLID_330_" class="st20" d="M1681.2,926.6l-0.8-1.5c0.1,0,6.5-3.4,10-6.7l1.1,1.2
						C1687.9,923.1,1681.5,926.4,1681.2,926.6z"/>
				</g>
				<g id="XMLID_2007_">
					<path id="XMLID_329_" class="st20" d="M1681.2,933.2l-0.8-1.5c0.1,0,6.5-3.4,10-6.7l1.1,1.2
						C1687.9,929.7,1681.5,933.1,1681.2,933.2z"/>
				</g>
				<g id="XMLID_2006_">
					<path id="XMLID_325_" class="st20" d="M1684.2,727.9c-0.4,0-0.8-0.1-1.1-0.3c-0.9-0.5-1.4-1.6-1.4-3v-23.4
						c0-2.4,1.4-5.1,3.2-6.1l0.4-0.2c0.9-0.5,1.9-0.6,2.7-0.1c0.9,0.5,1.4,1.6,1.4,3v23.4c0,2.4-1.4,5.1-3.2,6.1v0l-0.4,0.2
						C1685.2,727.8,1684.7,727.9,1684.2,727.9z M1686.8,696.1c-0.3,0-0.5,0.1-0.7,0.2l-0.4,0.2c-1.3,0.8-2.4,2.9-2.4,4.7v23.4
						c0,0.8,0.2,1.4,0.6,1.5c0.3,0.2,0.8,0,1-0.1l0.4-0.2c1.3-0.8,2.4-2.9,2.4-4.7v-23.4c0-0.8-0.2-1.4-0.6-1.6
						C1687.1,696.1,1687,696.1,1686.8,696.1z"/>
				</g>
				<g id="XMLID_2004_">
					<path id="XMLID_321_" class="st20" d="M1684.2,690.4c-0.4,0-0.8-0.1-1.1-0.3c-0.9-0.5-1.4-1.6-1.4-3v-23.4
						c0-2.4,1.4-5.1,3.2-6.1l0.4-0.2c0.9-0.5,1.9-0.6,2.7-0.1c0.9,0.5,1.4,1.6,1.4,3v23.4c0,2.4-1.4,5.1-3.2,6.1v0l-0.4,0.2
						C1685.2,690.3,1684.7,690.4,1684.2,690.4z M1686.8,658.6c-0.3,0-0.5,0.1-0.7,0.2l-0.4,0.2c-1.3,0.7-2.4,2.9-2.4,4.7v23.4
						c0,0.8,0.2,1.4,0.6,1.5c0.3,0.2,0.8,0,1-0.1l0.4-0.2c1.3-0.8,2.4-2.9,2.4-4.7v-23.4c0-0.8-0.2-1.4-0.6-1.6
						C1687.1,658.6,1687,658.6,1686.8,658.6z"/>
				</g>
				<g id="XMLID_2003_">
					<path id="XMLID_316_" class="st20" d="M1684.2,647.6c-0.4,0-0.8-0.1-1.1-0.3c-0.9-0.5-1.4-1.6-1.4-3v-13.1
						c0-2.4,1.4-5.1,3.2-6.1l0.4-0.2c0.9-0.5,1.9-0.6,2.7-0.1c0.9,0.5,1.4,1.6,1.4,3v13.1c0,2.4-1.4,5.1-3.2,6.1v0l-0.4,0.2
						C1685.2,647.5,1684.7,647.6,1684.2,647.6z M1686.8,626c-0.3,0-0.5,0.1-0.7,0.2l-0.4,0.2c-1.3,0.8-2.4,2.9-2.4,4.7v13.1
						c0,0.8,0.2,1.4,0.6,1.6c0.3,0.2,0.8,0,1-0.1l0.4-0.2c1.3-0.8,2.4-2.9,2.4-4.7v-13.1c0-0.8-0.2-1.4-0.6-1.6
						C1687.1,626.1,1687,626,1686.8,626z"/>
				</g>
				<g id="XMLID_2001_">
					<path id="XMLID_290_" class="st20" d="M1685.7,636l-0.4,0.2c-1.6,0.9-2.8-0.1-2.8-2.1v-2.9c0-2.1,1.3-4.5,2.8-5.4l0.4-0.2
						c1.6-0.9,2.8,0.1,2.8,2.1v2.9C1688.5,632.7,1687.3,635.1,1685.7,636z"/>
					<path id="XMLID_311_" class="st20" d="M1684.2,637.4c-0.4,0-0.8-0.1-1.1-0.3c-0.9-0.5-1.4-1.6-1.4-3v-2.9
						c0-2.4,1.4-5.1,3.2-6.1l0.4-0.2c0.9-0.5,1.9-0.6,2.7-0.1c0.9,0.5,1.4,1.6,1.4,3v2.9c0,2.4-1.4,5.1-3.2,6.1v0l-0.4,0.2
						C1685.2,637.2,1684.7,637.4,1684.2,637.4z M1686.8,626c-0.3,0-0.5,0.1-0.7,0.2l-0.4,0.2c-1.3,0.8-2.4,2.9-2.4,4.7v2.9
						c0,0.8,0.2,1.4,0.6,1.6c0.3,0.2,0.8,0,1-0.1l0.4-0.2c1.3-0.8,2.4-2.9,2.4-4.7v-2.9c0-0.8-0.2-1.4-0.6-1.6
						C1687.1,626.1,1687,626,1686.8,626z"/>
				</g>
				<g id="XMLID_2000_">
					
						<rect id="XMLID_309_" x="1670.3" y="545.6" transform="matrix(0.8598 -0.5106 0.5106 0.8598 -44.0105 932.5203)" class="st20" width="11.7" height="1.7"/>
				</g>
			</g>
		</g>
		<g id="XMLID_4780_">
			<g id="XMLID_2379_">
				<g id="XMLID_2207_">
					<g id="XMLID_2358_">
						<g id="XMLID_2375_">
							<g id="XMLID_2376_">
								<path id="XMLID_2377_" class="st0" d="M1536.2,741.6l106.7,61.6c1.8,1,3.2-0.1,3.2-2.4v-12.7c0-2.4-1.4-5.1-3.2-6.1
									l-106.7-61.6c-1.8-1-3.2,0.1-3.2,2.4v12.7C1533,737.8,1534.4,740.6,1536.2,741.6z"/>
							</g>
						</g>
					</g>
					<g id="XMLID_2378_">
						<g id="XMLID_3641_">
							<g id="XMLID_3642_">
								<g id="XMLID_3867_">
									<path id="XMLID_300_" d="M1639.8,797.9c-0.5,0-1.1-0.2-1.7-0.5l-106.7-61.6c-2-1.2-3.6-4.2-3.6-6.9v-12.7
										c0-1.5,0.6-2.8,1.5-3.3c0.9-0.5,1.9-0.4,2.9,0.2l106.7,61.6c2,1.2,3.6,4.2,3.6,6.9v12.7c0,1.5-0.6,2.8-1.5,3.3
										C1640.7,797.8,1640.3,797.9,1639.8,797.9z M1532.3,734.3L1639,796c0.3,0.2,0.8,0.4,1.3,0.2c0.4-0.2,0.7-0.9,0.7-1.9v-12.7
										c0-2.1-1.3-4.5-2.8-5.4l-106.7-61.6c-0.3-0.2-0.8-0.4-1.3-0.2c-0.4,0.2-0.7,0.9-0.7,1.9V729
										C1529.5,731,1530.8,733.5,1532.3,734.3L1532.3,734.3z"/>
								</g>
							</g>
						</g>
					</g>
				</g>
				<g id="XMLID_2381_">
					<path id="XMLID_3946_" d="M1538.3,733.2l-1.7-1v-9.9l1.7,1V733.2z"/>
					<path id="XMLID_3948_" d="M1545.7,733.8c0,1.2-0.3,1.9-0.8,2.3c-0.5,0.4-1.3,0.3-2.2-0.3c-0.6-0.3-1.1-0.8-1.6-1.4
						c-0.5-0.6-0.8-1.2-1-1.9c-0.2-0.7-0.4-1.4-0.4-2.2c0-1.2,0.3-1.9,0.8-2.3c0.5-0.3,1.3-0.2,2.2,0.3c0.6,0.3,1.1,0.8,1.6,1.4
						c0.5,0.6,0.8,1.2,1,1.9C1545.6,732.4,1545.7,733.1,1545.7,733.8z M1541.4,731.4c0,0.7,0.1,1.3,0.3,1.8c0.2,0.5,0.5,0.8,1,1.1
						c0.4,0.3,0.8,0.3,1,0c0.2-0.2,0.3-0.7,0.3-1.4c0-0.7-0.1-1.3-0.3-1.8c-0.2-0.5-0.5-0.8-1-1.1c-0.5-0.3-0.8-0.3-1,0
						C1541.5,730.2,1541.4,730.7,1541.4,731.4z"/>
					<path id="XMLID_3951_" d="M1552.5,734.2v1l-1-0.3c0.2,0.4,0.3,0.8,0.3,1.2c0,0.8-0.2,1.2-0.7,1.4c-0.5,0.2-1.1,0-1.9-0.5
						l-0.3-0.2l-0.3-0.2c-0.2,0.1-0.3,0.2-0.3,0.4c0,0.3,0.3,0.6,0.9,1l1.1,0.6c0.7,0.4,1.2,0.9,1.6,1.4c0.4,0.5,0.5,1.1,0.5,1.8
						c0,0.8-0.3,1.3-0.9,1.4c-0.6,0.1-1.5-0.2-2.6-0.8c-0.9-0.5-1.5-1.1-2-1.7c-0.5-0.6-0.7-1.2-0.7-1.9c0-0.4,0.1-0.7,0.3-0.9
						c0.2-0.2,0.6-0.2,1,0c-0.2-0.2-0.3-0.4-0.5-0.7c-0.1-0.3-0.2-0.5-0.2-0.7c0-0.3,0.1-0.5,0.2-0.6c0.1-0.1,0.3-0.2,0.6-0.2
						c-0.3-0.3-0.6-0.8-0.8-1.2c-0.2-0.5-0.3-0.9-0.3-1.4c0-0.8,0.2-1.3,0.7-1.4c0.4-0.2,1.1,0,1.9,0.4c0.2,0.1,0.4,0.2,0.6,0.4
						c0.2,0.2,0.4,0.3,0.5,0.3L1552.5,734.2z M1547.7,739.6c0,0.3,0.1,0.5,0.3,0.8c0.2,0.3,0.5,0.5,0.9,0.8c0.6,0.4,1.1,0.5,1.4,0.5
						c0.3,0,0.5-0.2,0.5-0.5c0-0.3-0.1-0.5-0.3-0.7c-0.2-0.2-0.5-0.5-0.9-0.7l-0.9-0.5c-0.3-0.2-0.6-0.2-0.8-0.2
						C1547.8,739.2,1547.7,739.3,1547.7,739.6z M1548.3,734.1c0,0.4,0.1,0.7,0.2,1.1c0.2,0.3,0.4,0.6,0.7,0.7
						c0.3,0.2,0.6,0.2,0.7,0.1c0.1-0.1,0.2-0.4,0.2-0.8c0-0.9-0.3-1.5-0.9-1.8C1548.6,733,1548.3,733.3,1548.3,734.1z"/>
					<path id="XMLID_3958_" d="M1553.4,732.9c0-0.6,0.3-0.8,0.9-0.4c0.6,0.4,0.9,0.8,0.9,1.5c0,0.3-0.1,0.5-0.2,0.6
						c-0.2,0.1-0.4,0-0.7-0.1C1553.7,734,1553.4,733.5,1553.4,732.9z M1555.2,742.9l-1.7-1v-7.1l1.7,1V742.9z"/>
					<path id="XMLID_4177_" d="M1562.7,747.2l-1.7-1v-4.2c0-0.5-0.1-0.9-0.2-1.3c-0.2-0.3-0.4-0.6-0.8-0.8c-0.5-0.3-0.8-0.3-1,0
						c-0.2,0.2-0.3,0.8-0.3,1.6v3.4l-1.7-1v-7.1l1.3,0.7l0.2,1l0.1,0.1c0.2-0.2,0.4-0.3,0.8-0.3c0.3,0,0.7,0.1,1.1,0.4
						c0.7,0.4,1.3,1,1.6,1.6c0.4,0.7,0.6,1.4,0.6,2.3V747.2z"/>
				</g>
			</g>
			<g id="XMLID_2205_">
				<g id="XMLID_2384_">
					<g id="XMLID_2389_">
						<g id="XMLID_2390_">
							<g id="XMLID_3897_">
								<path id="XMLID_3923_" class="st0" d="M1536.2,773.7l106.7,61.6c1.8,1,3.2-0.1,3.2-2.4v-12.7c0-2.4-1.4-5.1-3.2-6.1
									l-106.7-61.6c-1.8-1-3.2,0.1-3.2,2.4v12.7C1533,770,1534.4,772.7,1536.2,773.7z"/>
							</g>
						</g>
					</g>
					<g id="XMLID_2385_">
						<g id="XMLID_2386_">
							<g id="XMLID_2387_">
								<g id="XMLID_2388_">
									<path id="XMLID_297_" d="M1639.8,830.1c-0.5,0-1.1-0.2-1.7-0.5l-106.7-61.6c-2-1.2-3.6-4.2-3.6-6.9v-12.7
										c0-1.5,0.6-2.8,1.5-3.3c0.9-0.5,1.9-0.4,2.9,0.2l106.7,61.6c2,1.2,3.6,4.2,3.6,6.9v12.7c0,1.5-0.6,2.8-1.5,3.3
										C1640.7,830,1640.3,830.1,1639.8,830.1z M1532.3,766.5l106.7,61.6c0.3,0.2,0.8,0.4,1.3,0.2c0.4-0.2,0.7-0.9,0.7-1.9v-12.7
										c0-2.1-1.3-4.5-2.8-5.4l-106.7-61.6c-0.3-0.2-0.8-0.4-1.3-0.2c-0.4,0.2-0.7,0.9-0.7,1.9v12.7
										C1529.5,763.1,1530.8,765.6,1532.3,766.5L1532.3,766.5z"/>
								</g>
							</g>
						</g>
					</g>
				</g>
				<g id="XMLID_2383_">
					<path id="XMLID_2380_" d="M1540,766.4c-0.7-0.4-1.3-1.1-1.7-1.9l-0.1-0.1c0.1,0.6,0.1,1,0.1,1.1v2.9l-1.7-1v-10.3l1.4,0.8
						l0.2,1.1l0.1,0c0.4-0.5,1-0.5,1.8,0c0.7,0.4,1.3,1.1,1.7,2c0.4,0.9,0.6,1.9,0.6,3.1c0,0.8-0.1,1.4-0.3,1.8
						c-0.2,0.4-0.5,0.7-0.8,0.8C1540.9,766.8,1540.5,766.7,1540,766.4z M1539.5,760.3c-0.4-0.2-0.7-0.3-0.9-0.1
						c-0.2,0.2-0.3,0.6-0.3,1.3v0.2c0,0.8,0.1,1.4,0.3,1.8c0.2,0.4,0.5,0.8,0.9,1c0.8,0.4,1.1-0.1,1.1-1.5c0-0.7-0.1-1.3-0.3-1.7
						C1540.2,760.8,1539.9,760.5,1539.5,760.3z"/>
					<path id="XMLID_3894_" d="M1547.7,770.7l-0.3-1.2l0,0c-0.3,0.3-0.6,0.4-0.9,0.4c-0.3,0-0.7-0.2-1.2-0.4
						c-0.6-0.3-1.1-0.8-1.4-1.4c-0.3-0.6-0.5-1.2-0.5-2c0-0.8,0.2-1.2,0.7-1.3c0.5-0.1,1.2,0.1,2.1,0.6l1.1,0.6v-0.3
						c0-0.7-0.3-1.3-1-1.6c-0.5-0.3-1.1-0.4-1.7-0.5l-0.6-1.6c0.7,0,1.5,0.2,2.4,0.7c0.8,0.5,1.5,1.1,1.9,1.7
						c0.4,0.7,0.7,1.4,0.7,2.3v4.8L1547.7,770.7z M1547.2,767.1l-0.7-0.4c-0.5-0.3-0.9-0.4-1.1-0.3c-0.2,0-0.4,0.3-0.4,0.6
						c0,0.5,0.3,1,0.8,1.3c0.4,0.2,0.7,0.3,0.9,0.2c0.2-0.1,0.4-0.4,0.4-0.8V767.1z"/>
					<path id="XMLID_3898_" d="M1555,772.8c0,0.7-0.2,1.2-0.7,1.3c-0.4,0.1-1.1-0.1-2-0.6c-0.4-0.3-0.8-0.5-1.1-0.8
						c-0.3-0.3-0.6-0.5-0.9-0.8v-1.6c0.3,0.4,0.7,0.7,1.1,1c0.4,0.3,0.7,0.6,1,0.8c0.6,0.4,0.9,0.3,0.9-0.1c0-0.2,0-0.3-0.1-0.4
						c-0.1-0.1-0.2-0.3-0.4-0.6c-0.2-0.2-0.5-0.5-0.8-0.9c-0.5-0.5-0.8-0.9-1-1.2c-0.2-0.3-0.4-0.6-0.5-1c-0.1-0.3-0.2-0.7-0.2-1
						c0-0.6,0.2-1,0.6-1.1c0.4-0.1,1,0.1,1.8,0.5c0.7,0.4,1.5,1,2.2,1.8l-0.5,1.1c-0.3-0.3-0.6-0.6-0.9-0.9
						c-0.3-0.3-0.5-0.5-0.8-0.6c-0.5-0.3-0.7-0.3-0.7,0c0,0.2,0.1,0.4,0.2,0.6c0.2,0.2,0.5,0.6,1.1,1.2c0.5,0.5,0.8,0.9,1.1,1.2
						c0.2,0.3,0.4,0.6,0.5,1C1554.9,772.1,1555,772.4,1555,772.8z"/>
					<path id="XMLID_3934_" d="M1560.6,776c0,0.7-0.2,1.2-0.7,1.3s-1.1-0.1-2-0.6c-0.4-0.3-0.8-0.5-1.2-0.8
						c-0.3-0.3-0.6-0.5-0.9-0.8v-1.6c0.3,0.4,0.7,0.7,1.1,1s0.7,0.6,1,0.8c0.6,0.4,0.9,0.3,0.9-0.1c0-0.2,0-0.3-0.1-0.4
						c-0.1-0.1-0.2-0.3-0.4-0.6c-0.2-0.2-0.5-0.5-0.8-0.9c-0.5-0.5-0.8-0.9-1-1.2c-0.2-0.3-0.4-0.6-0.5-1c-0.1-0.3-0.2-0.7-0.2-1
						c0-0.6,0.2-1,0.6-1.1c0.4-0.1,1,0.1,1.8,0.5c0.7,0.4,1.5,1,2.2,1.8l-0.5,1.1c-0.3-0.3-0.6-0.6-0.9-0.9
						c-0.3-0.3-0.5-0.5-0.8-0.6c-0.5-0.3-0.7-0.3-0.7,0c0,0.2,0.1,0.4,0.2,0.6c0.2,0.2,0.5,0.6,1.1,1.2c0.5,0.5,0.8,0.9,1.1,1.2
						c0.2,0.3,0.4,0.6,0.5,1C1560.6,775.3,1560.6,775.7,1560.6,776z"/>
					<path id="XMLID_3936_" d="M1567,781.8l-0.5-2.8l-0.6-3.5l0,0l-1.1,5l-1.8-1l-1.8-8.2l1.7,1l0.7,3.6c0.1,0.6,0.2,1.5,0.3,2.5
						l0,0c0-0.3,0.1-0.8,0.2-1.4l0.1-0.5l0.8-3l1.9,1.1l0.7,3.8c0,0.1,0,0.3,0.1,0.5c0,0.2,0.1,0.4,0.1,0.6c0,0.2,0.1,0.4,0.1,0.7
						c0,0.2,0,0.4,0,0.5l0,0c0-0.3,0.1-0.7,0.2-1.2c0.1-0.5,0.1-0.8,0.2-1l0.7-2.7l1.7,1l-1.8,6.1L1567,781.8z"/>
					<path id="XMLID_3938_" d="M1577.3,784.2c0,1.2-0.3,1.9-0.8,2.3c-0.5,0.3-1.3,0.3-2.2-0.3c-0.6-0.3-1.1-0.8-1.6-1.4
						c-0.5-0.6-0.8-1.2-1-1.9c-0.2-0.7-0.4-1.4-0.4-2.2c0-1.2,0.3-1.9,0.8-2.3c0.5-0.3,1.3-0.2,2.2,0.3c0.6,0.3,1.1,0.8,1.6,1.4
						c0.5,0.6,0.8,1.2,1,1.9C1577.1,782.7,1577.3,783.4,1577.3,784.2z M1573,781.7c0,0.7,0.1,1.3,0.3,1.8c0.2,0.5,0.5,0.8,1,1.1
						c0.4,0.3,0.8,0.3,1,0c0.2-0.2,0.3-0.7,0.3-1.4c0-0.7-0.1-1.3-0.3-1.8c-0.2-0.5-0.5-0.8-1-1.1c-0.4-0.3-0.8-0.3-1,0
						C1573.1,780.5,1573,781,1573,781.7z"/>
					<path id="XMLID_3941_" d="M1582.1,783.3c0.2,0.1,0.4,0.3,0.6,0.4l-0.1,1.8c-0.1-0.1-0.3-0.2-0.5-0.4c-0.5-0.3-1-0.4-1.3-0.2
						c-0.3,0.1-0.4,0.5-0.4,1.1v3.6l-1.7-1v-7.1l1.3,0.7l0.2,1.3l0.1,0c0.2-0.3,0.5-0.5,0.8-0.5
						C1581.4,783,1581.7,783.1,1582.1,783.3z"/>
					<path id="XMLID_3943_" d="M1585.8,792.8c-0.7-0.4-1.3-1.1-1.7-2c-0.4-0.9-0.6-1.9-0.6-3.1c0-1.2,0.2-2,0.6-2.4
						c0.4-0.4,1-0.4,1.7,0c0.8,0.4,1.4,1.1,1.8,2.1l0.1,0c-0.1-0.6-0.1-1.1-0.1-1.5v-2.3l1.7,1v9.9l-1.3-0.8l-0.3-1.1l-0.1,0
						C1587.1,793.2,1586.5,793.2,1585.8,792.8z M1586.3,791.6c0.4,0.3,0.7,0.3,1,0.1c0.2-0.2,0.3-0.6,0.3-1.3v-0.2
						c0-0.8-0.1-1.4-0.3-1.8c-0.2-0.4-0.5-0.8-1-1.1c-0.4-0.2-0.7-0.2-0.9,0c-0.2,0.3-0.3,0.7-0.3,1.4c0,0.7,0.1,1.3,0.3,1.8
						C1585.7,791,1586,791.4,1586.3,791.6z"/>
				</g>
			</g>
			<g id="XMLID_4189_">
				<g id="XMLID_2382_">
					<path id="XMLID_294_" class="st0" d="M1636.3,757.3c-1.8,0-3.8-0.6-5.8-1.7l-87.1-50.3c-7.5-4.3-13.6-16-13.6-25.9v-95.8
						c0-5.5,1.8-9.7,5.1-11.5c2.7-1.6,6.2-1.3,9.7,0.7l87.1,50.3c7.5,4.3,13.6,16,13.6,25.9v95.8c0,5.5-1.8,9.7-5.1,11.5
						C1639.1,757,1637.7,757.3,1636.3,757.3z M1538.9,573.3c-1,0-2,0.2-2.8,0.7c-2.5,1.5-4,4.9-4,9.6v95.8c0,9.2,5.6,20,12.5,24
						l87.1,50.3c2.8,1.6,5.4,1.8,7.4,0.7c2.5-1.5,4-4.9,4-9.6v-95.8c0-9.2-5.6-20-12.5-24l-87.1-50.3
						C1541.9,573.7,1540.3,573.3,1538.9,573.3z"/>
				</g>
				<g id="XMLID_4180_">
					<path id="XMLID_291_" class="st0" d="M1632.9,748.1c-1.1,0-2.3-0.3-3.5-1v0l-84.6-48.8c-4.5-2.6-8-9.3-8-15.2v-95
						c0-3.3,1.1-5.9,3.1-7c1.7-1,3.8-0.9,6,0.4l84.6,48.8c4.5,2.6,8,9.3,8,15.2v95c0,3.3-1.1,5.9-3.1,7
						C1634.6,747.8,1633.8,748.1,1632.9,748.1z M1630.5,745.1c1,0.6,2.5,1.1,3.8,0.4c1.3-0.7,2-2.6,2-5.1v-95
						c0-5.1-3.1-11.1-6.9-13.3l-84.6-48.8c-1-0.6-2.5-1.1-3.8-0.4c-1.3,0.7-2,2.6-2,5.1v95c0,5.1,3.1,11.1,6.9,13.3L1630.5,745.1
						L1630.5,745.1z"/>
				</g>
				<g id="XMLID_4188_">
					<path id="XMLID_286_" class="st20" d="M1581.3,689.9c0,0-19.5-17.3-32.3,9.4l80.3,46.4c0,0,2.9-28.6-27.4-45.5l-17.6-8.1
						L1581.3,689.9z"/>
					<path id="XMLID_287_" class="st0" d="M1630.3,747.6l-82.7-47.8l0.4-0.9c4.2-8.8,9.6-13.9,16.1-15.2c9.2-1.9,17.1,4.8,17.9,5.4
						l3,2.1l17.4,8c30.6,17.1,28.1,46.4,28,46.6L1630.3,747.6z M1550.5,698.9l77.8,44.9c0-6.4-2-28.7-26.9-42.6l-17.5-8.1l-3.4-2.3
						c-0.1-0.1-7.6-6.7-16-5C1559,686.9,1554.3,691.3,1550.5,698.9z"/>
				</g>
				<g id="XMLID_4186_">
					<g id="XMLID_4183_">
						<path id="XMLID_282_" class="st20" d="M1600.1,672.6c2.3-12.8-24.8-48.3-24.8-48.3c-8.1,3.9-11.7,14.9-8.9,28.8
							c1.4,7.1,4,15.2,8.3,23.6c0,0,4,3.8,8.5,4.9c0,0,0.8,8.5-2.2,12c0,0-0.3,6.6,9,13.2s13.2-2.2,13.2-2.2
							S1597.8,685.5,1600.1,672.6z"/>
						<path id="XMLID_283_" class="st0" d="M1596.5,710.4c-2.2,0-4.6-0.9-7.1-2.6c-9.7-6.8-9.5-13.9-9.5-14.1l0-0.4l0.2-0.3
							c2-2.3,2.1-7.7,2-10.4c-4.4-1.4-8.1-4.8-8.2-5l-0.2-0.3c-3.8-7.5-6.7-15.5-8.4-23.9c-2.9-14.3,0.7-25.8,9.5-30l0.8-0.4
							l0.6,0.7c1.1,1.5,27.4,36,25.1,49.1l0,0c-2.3,12.4,3,31.4,3.1,31.6l0.1,0.4l-0.2,0.4c-0.1,0.2-1.8,3.9-5.7,5
							C1597.9,710.3,1597.2,710.4,1596.5,710.4z M1582.1,694.1c0.1,1.3,0.9,6.6,8.5,11.9c2.7,1.9,5.2,2.6,7.3,2
							c2.3-0.6,3.6-2.6,4.1-3.4c-0.8-3-5.2-20.1-3-32.2c2-11.2-20.2-41.5-24.1-46.6c-7.2,4.1-10,14.3-7.4,27.1
							c1.6,8.1,4.4,15.9,8.1,23.1c0.7,0.6,4.2,3.6,7.9,4.5l0.8,0.2l0.1,0.8C1584.3,681.9,1585,690.1,1582.1,694.1z"/>
					</g>
					<g id="XMLID_4184_">
						<path id="XMLID_155_" class="st20" d="M1610.5,666.9L1610.5,666.9c1.5-8.7-0.2-21.9-9.8-34.6c-15.2-20.1-28.6-18.6-30.6-13.2
							c0,0-5.1-3.9-8.4-1.1c-1.2,1.1-1.8,2.9-1.9,5.2c0,3.2,0.8,9.1,5.5,17.9c0,0,0-7.9,7.2-5.9c0,0,2,13.2,16.1,26.2
							c0,0,2.9-2.7,7.5,2.3c4.5,5,0,10.6,0,10.6s-2,5.1,3.8,13.7l1.1,3.9c0,0-0.1-4.2,6.1-8.4
							C1613.3,679.3,1610.5,666.9,1610.5,666.9z"/>
						<path id="XMLID_279_" class="st0" d="M1602.5,701.3l-3.5-12.8c-6-8.8-3.9-14.3-3.8-14.6l0.2-0.3c0.2-0.2,3.8-5,0-9.1
							c-3.7-4.1-5.8-2.2-5.9-2.2l-0.8,0.7l-0.8-0.7c-12.5-11.5-15.7-23-16.3-26.1c-1.4-0.3-2.5-0.1-3.3,0.5
							c-1.8,1.3-1.8,4.4-1.8,4.4l0,4.5l-2.1-3.9c-4.7-8.9-5.7-15-5.7-18.5c0-2.6,0.8-4.7,2.2-6c2.9-2.6,6.8-0.8,8.7,0.3
							c1.1-1.5,2.9-2.6,5.2-2.9c2.9-0.4,13.4-0.5,26.7,17c12,15.8,10.8,30.7,10.1,35.2c0.4,1.8,2.4,13.3-3.9,17.6
							c-5.5,3.8-5.6,7.4-5.6,7.5L1602.5,701.3z M1597.2,674.9c-0.2,0.8-1.2,5.3,3.7,12.5l0.2,0.6c0.9-1.6,2.5-3.5,5.3-5.5
							c5.5-3.8,3-15.4,2.9-15.5l0-0.2l0-0.2c0.7-4,2-18.3-9.6-33.7c-9.9-13.1-19.2-16.9-24.6-16.2c-2.1,0.3-3.5,1.3-4.1,2.7
							l-0.5,1.4l-1.2-0.9c0,0-4.4-3.3-6.9-1.1c-0.9,0.8-1.5,2.4-1.5,4.3c0,2.9,0.7,7.6,4,14.5c0.4-1,1-2.1,2-2.8
							c1.5-1.1,3.5-1.4,5.9-0.7l0.7,0.2l0.1,0.7c0,0.1,2.1,12.6,15.2,25c1.4-0.6,4.4-1.1,8.1,2.9
							C1601,667.4,1599,672.6,1597.2,674.9z"/>
					</g>
					<g id="XMLID_4181_">
						<path id="XMLID_278_" class="st0" d="M1571.5,635.3c-0.1-2.9,0.6-4.9,2-6c1.7-1.3,3.8-0.7,3.9-0.7l-0.6,2.2
							c0,0-1.1-0.3-1.9,0.3c-0.8,0.6-1.2,2-1.1,4.1L1571.5,635.3z"/>
					</g>
					<g id="XMLID_4182_">
						<path id="XMLID_277_" class="st0" d="M1609.5,667.3c-1.3-2.9-3.3-2.6-3.6-2.6l-0.4-2.2c1.4-0.3,4.4,0.2,6,3.9L1609.5,667.3z"
							/>
					</g>
					<g id="XMLID_4185_">
						<path id="XMLID_276_" class="st0" d="M1594.2,676.7c-2,0-4.1-1.5-4.3-1.7l1.4-1.8c0.8,0.6,2.3,1.4,3.3,1.2
							c0.2,0,0.5-0.2,0.7-0.6l2,1c-0.5,0.9-1.2,1.5-2.2,1.7C1594.8,676.7,1594.5,676.7,1594.2,676.7z"/>
					</g>
					<g id="XMLID_4179_">
						<path id="XMLID_275_" class="st0" d="M1574.9,666.6c-1.1,0-2.3-0.6-3-1l-0.5-0.3v-8.5h2.2v7.3c0.5,0.3,1.3,0.5,1.6,0.2
							l1.6,1.6C1576.4,666.4,1575.7,666.6,1574.9,666.6z"/>
					</g>
				</g>
				<g id="XMLID_4187_">
					<path id="XMLID_261_" class="st0" d="M1599.2,717.8c-0.7,0-1.5-0.1-2.2-0.2l0.4-2.2c1.4,0.2,2.8,0.2,4-0.1l0.5,2.2
						C1601.1,717.7,1600.2,717.8,1599.2,717.8z M1594.7,717c-1.4-0.4-2.9-1.1-4.3-1.9l1.1-2c1.3,0.7,2.6,1.3,3.9,1.7L1594.7,717z
						 M1604.3,716.6l-1-2c1-0.5,1.9-1.3,2.6-2.3c0.1-0.1,0.2-0.2,0.4-0.4l1.7,1.4c-0.2,0.3-0.4,0.4-0.4,0.4
						C1606.7,714.9,1605.6,715.9,1604.3,716.6z M1588.3,713.9c-1.2-0.9-2.5-1.8-3.6-2.9l1.5-1.6c1.1,1,2.2,1.9,3.4,2.7L1588.3,713.9
						z M1609.3,711.3l-2-1.1c0.7-1.2,1.1-2.5,1.3-3.8l2.2,0.3C1610.7,708.3,1610.2,709.8,1609.3,711.3z M1583.1,709.3
						c-1-1-1.9-2.1-2.7-3.2l-0.2-0.2l1.7-1.4l0.2,0.3c0.8,1.1,1.7,2.1,2.6,3L1583.1,709.3z M1578.8,703.9c-0.9-1.3-1.7-2.7-2.3-4
						l2-1c0.6,1.2,1.3,2.5,2.2,3.8L1578.8,703.9z M1575.5,697.7c-0.6-1.5-1-3.1-1.3-4.5l2.2-0.4c0.2,1.3,0.6,2.7,1.1,4.1
						L1575.5,697.7z M1574,690.8c0-0.3,0-0.6,0-0.8c0-2.5,0.6-4,0.6-4.1l2.1,0.8l-1-0.4l1,0.4c0,0-0.4,1.2-0.4,3.3
						c0,0.2,0,0.5,0,0.7L1574,690.8z"/>
				</g>
				<g id="XMLID_4190_">
					<path id="XMLID_260_" class="st0" d="M1581,659.1c-3-3.2-5.6-2.9-5.7-2.8l-0.4-2.2c0.2,0,3.8-0.6,7.7,3.5L1581,659.1z"/>
				</g>
				<g id="XMLID_4191_">
					<path id="XMLID_259_" class="st0" d="M1569.3,654.8c-0.9-1-1.5-1.1-1.7-1.1c-0.2,0-0.3,0.1-0.3,0.1l-1.8-1.4
						c0.1-0.1,0.7-0.9,2-1c1.1-0.1,2.3,0.5,3.5,1.8L1569.3,654.8z"/>
				</g>
				<g id="XMLID_4192_">
					<path id="XMLID_257_" class="st0" d="M1584.3,682.9c-0.7,0-1.2-0.1-1.2-0.1l0.3-2.2c0,0,2,0.2,3.9-0.4l0.7,2.1
						C1586.6,682.8,1585.2,682.9,1584.3,682.9z"/>
				</g>
			</g>
			<g id="XMLID_4193_">
				<g id="XMLID_4778_">
					<path id="XMLID_256_" class="st0" d="M1645.3,868.7h-2.2c0-9.7-5.2-18.7-13.6-23.5l-84.6-48.9c-2.7-1.5-5.8-1.5-8.5,0
						c-2.7,1.5-4.2,4.3-4.2,7.3h-2.2c0-3.9,2-7.3,5.4-9.3c3.4-1.9,7.4-1.9,10.7,0l84.6,48.9C1639.7,848.4,1645.3,858.2,1645.3,868.7
						z"/>
				</g>
			</g>
		</g>
	</g>
	<g id="XMLID_5021_">
		<g id="XMLID_4970_">
			<path id="XMLID_242_" class="st0" d="M1430.8,922.7h-1.7v-4.5h1.7V922.7z M1430.8,913.7h-1.7v-4.5h1.7V913.7z M1430.8,904.7h-1.7
				v-4.5h1.7V904.7z M1430.8,895.8h-1.7v-4.5h1.7V895.8z M1430.8,886.8h-1.7v-4.5h1.7V886.8z M1430.8,877.8h-1.7v-4.5h1.7V877.8z
				 M1430.8,868.8h-1.7v-4.5h1.7V868.8z M1430.8,859.8h-1.7v-4.5h1.7V859.8z M1430.8,850.8h-1.7v-4.5h1.7V850.8z"/>
		</g>
		<g id="XMLID_5014_">
			<path id="XMLID_233_" class="st0" d="M1428.4,934.3c-1.7-0.2-3.3-0.6-4.6-1.2l0.7-1.5c1.2,0.5,2.6,0.9,4.1,1L1428.4,934.3z
				 M1433.1,934.1l-0.3-1.7c1.2-0.2,2.3-0.6,3.3-1.2c0.2-0.1,0.4-0.2,0.6-0.4l1,1.4c-0.2,0.2-0.4,0.3-0.7,0.4
				C1435.8,933.4,1434.6,933.8,1433.1,934.1z M1420.2,929.7c-0.2-0.5-0.3-1-0.3-1.5c0-1.3,0.6-2.4,1.7-3.5l1.1,1.2
				c-0.7,0.7-1.1,1.5-1.1,2.2c0,0.3,0.1,0.6,0.2,0.9L1420.2,929.7z M1438.3,927.9c-0.1-1-0.9-2-2.3-2.8c-0.4-0.3-0.9-0.5-1.4-0.7
				l0.6-1.6c0.6,0.2,1.2,0.5,1.7,0.8c1.8,1,2.9,2.5,3.1,4L1438.3,927.9z M1426.3,924.2l-0.4-1.6c1.3-0.3,2.7-0.5,4.1-0.5l0.6,0
				l-0.1,1.7l-0.6,0C1428.7,923.7,1427.4,923.9,1426.3,924.2z"/>
		</g>
	</g>
	<g id="XMLID_4974_">
		<g id="XMLID_5013_">
			<path id="XMLID_217_" class="st0" d="M1320.2,982.3h-1.7v-4.5h1.7V982.3z M1320.2,973.4h-1.7v-4.5h1.7V973.4z M1320.2,964.4h-1.7
				v-4.5h1.7V964.4z M1320.2,955.4h-1.7v-4.5h1.7V955.4z M1320.2,946.4h-1.7v-4.5h1.7V946.4z M1320.2,937.4h-1.7v-4.5h1.7V937.4z
				 M1320.2,928.4h-1.7v-4.5h1.7V928.4z M1320.2,919.4h-1.7v-4.5h1.7V919.4z M1320.2,910.4h-1.7v-4.5h1.7V910.4z M1320.2,901.5h-1.7
				V897h1.7V901.5z M1320.2,892.5h-1.7V888h1.7V892.5z"/>
		</g>
		<g id="XMLID_5015_">
			<path id="XMLID_209_" class="st0" d="M1317.8,995c-1.7-0.2-3.3-0.6-4.6-1.2l0.7-1.5c1.2,0.5,2.6,0.9,4.1,1L1317.8,995z
				 M1322.6,994.7l-0.3-1.7c1.2-0.2,2.3-0.6,3.3-1.2c0.2-0.1,0.4-0.2,0.6-0.4l1,1.4c-0.2,0.2-0.4,0.3-0.7,0.4
				C1325.2,994,1324,994.4,1322.6,994.7z M1309.6,990.4c-0.2-0.5-0.3-1-0.3-1.5c0-1.2,0.6-2.4,1.7-3.5l1.1,1.2
				c-0.8,0.7-1.1,1.5-1.1,2.2c0,0.3,0.1,0.6,0.2,0.9L1309.6,990.4z M1327.8,988.6c-0.1-1-0.9-2-2.3-2.8c-0.4-0.2-0.9-0.5-1.4-0.7
				l0.6-1.6c0.6,0.2,1.2,0.5,1.7,0.8c1.8,1,2.9,2.5,3.1,4L1327.8,988.6z M1315.7,984.8l-0.4-1.6c1.3-0.3,2.7-0.5,4.1-0.5l0.6,0
				l-0.1,1.7l-0.6,0C1318.1,984.4,1316.9,984.5,1315.7,984.8z"/>
		</g>
	</g>
	<g id="XMLID_5022_">
		<g id="XMLID_5061_">
			<path id="XMLID_199_" class="st0" d="M1571.1,1036.5h-1.7v-4.5h1.7V1036.5z M1571.1,1027.6h-1.7v-4.5h1.7V1027.6z M1571.1,1018.6
				h-1.7v-4.5h1.7V1018.6z M1571.1,1009.6h-1.7v-4.5h1.7V1009.6z M1571.1,1000.6h-1.7v-4.5h1.7V1000.6z M1571.1,991.6h-1.7v-4.5h1.7
				V991.6z"/>
		</g>
		<g id="XMLID_5017_">
			<path id="XMLID_190_" class="st0" d="M1568.8,1051.4c-1.7-0.2-3.3-0.6-4.6-1.2l0.7-1.5c1.2,0.5,2.6,0.9,4.1,1L1568.8,1051.4z
				 M1573.5,1051.2l-0.3-1.7c1.2-0.2,2.3-0.6,3.3-1.2c0.2-0.1,0.4-0.2,0.6-0.4l1,1.4c-0.2,0.2-0.4,0.3-0.7,0.4
				C1576.2,1050.4,1574.9,1050.9,1573.5,1051.2z M1560.5,1046.8c-0.2-0.5-0.3-1-0.3-1.5c0-1.3,0.6-2.4,1.7-3.5l1.1,1.2
				c-0.7,0.7-1.1,1.5-1.1,2.2c0,0.3,0.1,0.6,0.2,0.9L1560.5,1046.8z M1578.7,1045c-0.1-1-0.9-2-2.3-2.8c-0.4-0.2-0.9-0.5-1.4-0.7
				l0.6-1.6c0.6,0.2,1.2,0.5,1.7,0.8c1.8,1,2.9,2.5,3.1,4L1578.7,1045z M1566.7,1041.2l-0.4-1.6c1.3-0.3,2.6-0.5,4.1-0.5
				c0,0,0,0,0,0l0.6,0l-0.1,1.7l-0.6,0C1569,1040.8,1567.8,1040.9,1566.7,1041.2z"/>
		</g>
	</g>
	<g id="XMLID_5033_">
		<g id="XMLID_4969_">
			<path id="XMLID_165_" class="st0" d="M1773.4,936.8h-1.7v-0.5h1.7V936.8z M1773.4,931.8h-1.7v-4.5h1.7V931.8z M1773.4,922.8h-1.7
				v-4.5h1.7V922.8z M1773.4,913.8h-1.7v-4.5h1.7V913.8z M1773.4,904.9h-1.7v-4.5h1.7V904.9z M1773.4,895.9h-1.7v-4.5h1.7V895.9z
				 M1773.4,886.9h-1.7v-4.5h1.7V886.9z M1773.4,877.9h-1.7v-4.5h1.7V877.9z M1773.4,868.9h-1.7v-4.5h1.7V868.9z M1773.4,859.9h-1.7
				v-4.5h1.7V859.9z M1773.4,850.9h-1.7v-4.5h1.7V850.9z M1773.4,841.9h-1.7v-4.5h1.7V841.9z M1773.4,833h-1.7v-4.5h1.7V833z
				 M1773.4,824h-1.7v-4.5h1.7V824z M1773.4,815h-1.7v-4.5h1.7V815z M1773.4,806h-1.7v-4.5h1.7V806z"/>
		</g>
		<g id="XMLID_5016_">
			<path id="XMLID_157_" class="st0" d="M1771,947.7c-1.7-0.2-3.3-0.6-4.6-1.2l0.7-1.5c1.2,0.5,2.6,0.9,4.1,1L1771,947.7z
				 M1775.7,947.5l-0.3-1.6c1.2-0.3,2.3-0.6,3.3-1.2c0.2-0.1,0.4-0.2,0.6-0.4l1,1.4c-0.2,0.2-0.4,0.3-0.7,0.4
				C1778.4,946.7,1777.1,947.2,1775.7,947.5z M1762.7,943.1c-0.2-0.5-0.3-1-0.3-1.5c0-1.2,0.6-2.4,1.7-3.5l1.1,1.2
				c-0.7,0.7-1.1,1.5-1.1,2.2c0,0.3,0.1,0.6,0.2,0.9L1762.7,943.1z M1780.9,941.3c-0.1-1-0.9-2-2.3-2.8c-0.4-0.2-0.9-0.5-1.4-0.7
				l0.6-1.6c0.6,0.2,1.2,0.5,1.7,0.8c1.8,1.1,2.9,2.5,3.1,4L1780.9,941.3z M1768.9,937.6l-0.4-1.6c1.3-0.3,2.7-0.5,4.1-0.5l0.6,0
				l-0.1,1.7l-0.6,0C1771.3,937.1,1770,937.3,1768.9,937.6z"/>
		</g>
	</g>
	<g id="XMLID_4803_">
		<g id="XMLID_4782_">
			<g id="XMLID_4861_">
				<path id="XMLID_4865_" d="M1331.8,586.1c-0.1-0.2,0-0.4,0.2-0.5l17.4-10.6c0.8-0.7,2.1-0.6,3.5,0.6l6.5,5.4
					c0.3,0.3,31.7,26.2,66.4,19.9c0.7-0.1,1.4-0.2,2.2-0.1c3.4,0.3,7.3,2.6,10.7,6.2l0,0c0.8,0.9,1.6,1.8,2.3,2.8
					c33.3,45.3,65.1,56.2,66.4,56.7l6.4,2.1c2.2,0.7,4.2,3.8,4.2,6.4l-0.1,7.5c-1.5,97.3-28.6,135.2-51.1,149.9l0,0l-21.1,12.9
					l-1.4-4.2c-4.2,0.6-7,0.4-7.6,0.4l-0.1,0c-2.1-0.2-4.5-1.6-6.6-3.8l-0.1-0.1c-2.9-3.1-65.1-70.8-78.7-207.8l-9.4-20.5
					L1331.8,586.1z"/>
				<path id="XMLID_4862_" d="M1443.3,842.5c-3.7,0.4-6.2,0.3-6.8,0.2c-2.5-0.2-5.1-1.7-7.6-4.3c-2.7-2.8-65.3-70.9-79-208.5
					l-9.3-20.3l-10.1-23l0,0c-0.4-0.8-0.1-1.8,0.7-2.3l17.3-10.6c1.4-1.1,3.4-0.9,5.3,0.7l6.5,5.4c1.3,1.1,31.7,25.7,65.2,19.6
					c0.9-0.2,1.7-0.2,2.6-0.1c3.8,0.4,7.9,2.7,11.6,6.7c0.8,0.9,1.6,1.8,2.4,2.9c33,44.9,64.4,55.7,65.7,56.2l6.4,2.1
					c2.8,0.9,5.2,4.6,5.2,7.8l-0.1,7.5c-1.5,98-29,136.2-51.8,151.1l-22.6,13.8L1443.3,842.5z M1426,602.2
					c-34.8,6.4-66.3-19.1-67.6-20.2l-6.5-5.4c-0.8-0.7-1.4-0.8-1.6-0.6l-16.8,10.3l9.7,22.2l9.4,20.5l0.1,0.5
					c13.5,136.8,75.6,204.2,78.3,207.1c1.9,2,3.9,3.2,5.7,3.4c0.5,0,3.1,0.2,7.2-0.3l1.2-0.2l1.2,3.6L1466,831
					c22.2-14.5,49-52,50.5-148.7l0.1-7.5c0-1.9-1.6-4.5-3.2-5l-6.4-2.1c-1.4-0.5-33.5-11.6-67.1-57.2c-0.7-1-1.5-1.9-2.2-2.7
					c-3.2-3.4-6.7-5.5-9.8-5.8c-0.2,0-0.4,0-0.6,0C1426.8,602.1,1426.4,602.1,1426,602.2z"/>
			</g>
			<g id="XMLID_4856_">
				<path id="XMLID_4860_" class="st0" d="M1349.4,574.9c0.8-0.7,2.1-0.6,3.5,0.6l6.5,5.4c0.3,0.3,31.7,26.2,66.4,19.9
					c0.7-0.1,1.4-0.2,2.2-0.1c3.4,0.3,7.3,2.6,10.7,6.2l0,0c0.8,0.9,1.6,1.8,2.3,2.8c33.3,45.3,65.1,56.2,66.4,56.7l6.4,2.1
					c1.1,0.4,2.2,1.4,3,2.7l-52.3,29.7l-110.2-46.4c-1.2-8-2.2-16.3-3.1-24.8l-9.4-20.5l-10.1-23c-0.1-0.2,0-0.4,0.2-0.5
					L1349.4,574.9z"/>
				<path id="XMLID_4857_" d="M1353.1,655.4l-0.1-0.8c-1.2-8.1-2.2-16.4-3.1-24.7l-9.3-20.3l-10.1-23c-0.4-0.8-0.1-1.8,0.7-2.3
					l17.3-10.6c1.4-1.1,3.4-0.9,5.3,0.7l6.5,5.4c1.3,1.1,31.7,25.7,65.2,19.6c0.9-0.2,1.7-0.2,2.6-0.1c3.8,0.4,7.9,2.7,11.6,6.7
					c0.8,0.9,1.6,1.8,2.4,2.9c33,44.9,64.4,55.7,65.7,56.2l6.4,2.1c1.4,0.5,2.8,1.7,3.8,3.3l0.8,1.3l-54.2,30.7L1353.1,655.4z
					 M1513.4,669.8l-6.4-2.1c-1.4-0.5-33.5-11.6-67.1-57.2c-0.7-1-1.5-1.9-2.2-2.7c-3.2-3.4-6.7-5.5-9.8-5.8c-0.6-0.1-1.2,0-1.8,0.1
					c-34.8,6.4-66.3-19.1-67.6-20.2l-6.5-5.4c-0.8-0.7-1.4-0.8-1.6-0.6l-16.8,10.3l9.7,22.2l9.4,20.5l0.1,0.5c0.8,8,1.8,16.1,3,23.9
					l108.8,45.8l50.2-28.5C1514.2,670.3,1513.8,670,1513.4,669.8z"/>
			</g>
			<g id="XMLID_4847_">
				<path id="XMLID_4853_" class="st20" d="M1412.1,848.4c-3.2-3.4-78.6-85.5-81.2-252.7l-0.1-7.7c0-2.6,2-3.4,4.2-1.5l6.5,5.4
					c0.3,0.3,31.7,26.2,66.4,19.9c0.7-0.1,1.4-0.2,2.2-0.1l0,0c3.4,0.3,7.3,2.6,10.7,6.2l0,0c0.8,0.9,1.6,1.8,2.3,2.8
					c33.3,45.3,65.1,56.2,66.4,56.7l6.4,2.1c2.2,0.7,4.2,3.8,4.2,6.4l-0.1,7.5c-2.6,164.2-78,159.2-81.2,158.9l-0.1,0
					C1416.6,852,1414.3,850.7,1412.1,848.4L1412.1,848.4z M1479,692.4c-14.1-7.8-37-23.9-60.9-54.6c-1.7-2.2-3.8-3.4-5.5-3.2
					c-24.3,2.8-46.9-7.4-60.8-15.7c-1.8-1.1-3.3-0.2-3.2,2c5,112.9,44.5,178.8,62,202.7c2.9,3.9,8.2,9,11,8.4
					c17.3-3.9,55.5-27.5,60.6-134C1482.3,696,1480.9,693.4,1479,692.4z"/>
				<path id="XMLID_4848_" d="M1418.6,853.7c-2.5-0.2-5.1-1.7-7.5-4.3l-0.1-0.1c-3.2-3.4-79-85.9-81.6-253.7l-0.1-7.7
					c0-1.7,0.7-3.1,1.9-3.7c1.4-0.7,3.1-0.3,4.6,1l6.5,5.4c1.3,1.1,31.7,25.7,65.2,19.6c0.9-0.2,1.7-0.2,2.6-0.1
					c3.8,0.4,7.9,2.7,11.6,6.7c0.8,0.9,1.6,1.9,2.4,2.9c33,44.9,64.4,55.7,65.7,56.2l6.4,2.1c2.8,0.9,5.2,4.6,5.2,7.8l-0.1,7.5
					c-1.4,88.5-24.3,127.5-43.3,144.5c-16,14.4-31.6,15.9-37.4,15.9C1419.7,853.8,1419,853.7,1418.6,853.7z M1408.1,613.1
					c-34.8,6.4-66.3-19.1-67.6-20.2l-6.5-5.4c-0.8-0.6-1.4-0.7-1.5-0.6c-0.2,0.1-0.3,0.4-0.3,1l0.1,7.7
					c2.6,166.7,77.6,248.3,80.8,251.7l0.1,0.1c1.9,2,3.9,3.2,5.7,3.4c0.8,0.1,18.8,1.5,37.3-15.1c18.6-16.7,41-54.9,42.3-142.4
					l0.1-7.5c0-1.9-1.6-4.5-3.2-5l-6.4-2.1c-1.4-0.5-33.5-11.6-67.1-57.2c-0.7-1-1.5-1.9-2.2-2.7c-3.2-3.4-6.7-5.5-9.8-5.8
					c-0.2,0-0.4,0-0.6,0C1408.9,613,1408.5,613.1,1408.1,613.1z M1409.5,824.5c-17-23.3-57.2-89.8-62.3-203.5
					c-0.1-1.6,0.5-2.9,1.6-3.5c1.1-0.6,2.4-0.6,3.7,0.2c14.3,8.5,36.3,18.2,59.9,15.5c2.2-0.3,4.8,1.1,6.8,3.7
					c23.4,30,45.8,46.1,60.5,54.2c2.3,1.3,4.1,4.4,4,7l0,0c-5.4,113.8-48.6,132.3-61.7,135.3c-0.3,0.1-0.5,0.1-0.8,0.1
					C1417.2,833.5,1411.9,827.7,1409.5,824.5z M1480.8,698c0.1-1.5-1.1-3.6-2.5-4.4c-14.9-8.3-37.7-24.6-61.4-55
					c-1.5-2-3.2-2.8-4.2-2.6c-24.4,2.8-47-7.1-61.7-15.9c-0.5-0.3-0.7-0.3-0.8-0.2c-0.1,0-0.2,0.3-0.2,0.9
					c5,113,44.8,178.9,61.7,201.9c3.2,4.4,7.9,8.2,9.5,7.8C1433.9,827.7,1475.5,809.8,1480.8,698L1480.8,698z"/>
			</g>
			<path id="XMLID_4846_" class="st20" d="M1351.8,618.9c13.9,8.3,36.5,18.4,60.8,15.7c1.7-0.2,3.8,1,5.5,3.2
				c23.9,30.6,46.8,46.7,60.9,54.6c1.8,1,3.3,3.6,3.2,5.7c-5.1,106.5-43.2,130-60.6,134c-2.9,0.6-8.1-4.4-11-8.4
				c-17.5-23.9-56.9-89.8-62-202.7C1348.6,618.8,1350,617.8,1351.8,618.9z"/>
			<g id="XMLID_4837_">
				<path id="XMLID_4841_" d="M1351.8,618.9c2.6,1.5,5.4,3.1,8.5,4.7c5.9,110,44.5,174.4,61.7,197.9c2,2.8,5.2,6,7.9,7.6
					c-3.1,1.5-5.9,2.4-8.3,3c-2.9,0.6-8.1-4.4-11-8.4c-17.5-23.9-56.9-89.8-62-202.7C1348.6,618.8,1350,617.8,1351.8,618.9z"/>
				<path id="XMLID_4838_" class="st20" d="M1409.5,824.5c-17-23.3-57.2-89.8-62.3-203.5c-0.1-1.6,0.5-2.9,1.6-3.5
					c1.1-0.6,2.4-0.6,3.7,0.2v0c2.7,1.6,5.6,3.2,8.4,4.6l0.7,0.4l0,0.8c6,110.2,45,174.6,61.4,197.1c1.8,2.4,4.9,5.7,7.4,7.1
					l2.4,1.4l-2.5,1.2c-2.9,1.4-5.8,2.4-8.6,3.1c-0.3,0.1-0.5,0.1-0.8,0.1C1417.2,833.5,1411.9,827.7,1409.5,824.5z M1420.9,822.3
					c-16.6-22.7-55.8-87.4-62-197.9c-2.7-1.4-5.3-2.8-7.8-4.3c-0.5-0.3-0.7-0.3-0.8-0.2c-0.1,0-0.2,0.3-0.2,0.9
					c5,113,44.8,178.9,61.7,201.9c3.2,4.4,7.9,8.2,9.5,7.8c1.8-0.4,3.7-1,5.7-1.8C1424.7,826.9,1422.4,824.4,1420.9,822.3z"/>
			</g>
			<g id="XMLID_4835_">
				
					<rect id="XMLID_4836_" x="1497.2" y="674.9" transform="matrix(0.8698 -0.4934 0.4934 0.8698 -137.3891 832.0447)" width="21" height="2.9"/>
			</g>
			<g id="XMLID_4833_">
				
					<rect id="XMLID_4834_" x="1486.1" y="669.7" transform="matrix(0.8698 -0.4934 0.4934 0.8698 -136.2796 825.8849)" width="21" height="2.9"/>
			</g>
			<g id="XMLID_4831_">
				
					<rect id="XMLID_4832_" x="1411" y="605.1" transform="matrix(0.8698 -0.4934 0.4934 0.8698 -114.1966 780.3704)" width="21" height="2.9"/>
			</g>
			<g id="XMLID_4829_">
				
					<rect id="XMLID_4830_" x="1426" y="620.2" transform="matrix(0.8698 -0.4934 0.4934 0.8698 -119.6776 789.6772)" width="21" height="2.9"/>
			</g>
			<g id="XMLID_4827_">
				
					<rect id="XMLID_4828_" x="1338.2" y="584.5" transform="matrix(0.8595 -0.5112 0.5112 0.8595 -109.9011 772.1519)" width="22.5" height="2.9"/>
			</g>
			<g id="XMLID_4825_">
				<polygon id="XMLID_4826_" class="st84" points="1501,712.8 1515.3,704.2 1515.4,700.8 1501,709.5 				"/>
			</g>
			<g id="XMLID_4811_">
				<polygon id="XMLID_4823_" class="st20" points="1477.1,812 1491.4,803.4 1494,798.5 1479.6,807.2 				"/>
			</g>
			<g id="XMLID_4820_">
				<polygon id="XMLID_4822_" points="1391.5,613 1410.3,602.6 1408.9,600.1 1386,612.8 				"/>
			</g>
			<g id="XMLID_4818_">
				
					<rect id="XMLID_4819_" x="1410" y="818.9" transform="matrix(0.85 -0.5269 0.5269 0.85 -219.8142 868.8232)" class="st20" width="10.9" height="2.9"/>
			</g>
			<g id="XMLID_4815_">
				
					<rect id="XMLID_4816_" x="1349" y="636.9" transform="matrix(0.8477 -0.5305 0.5305 0.8477 -132.1305 816.3978)" class="st20" width="13.3" height="2.9"/>
			</g>
			<g id="XMLID_4812_">
				
					<rect id="XMLID_4814_" x="1350.6" y="652.9" transform="matrix(0.8476 -0.5306 0.5306 0.8476 -140.3942 819.8481)" class="st20" width="13.3" height="2.9"/>
			</g>
			<path id="XMLID_4843_" d="M1409.5,824.5c-17-23.3-57.2-89.8-62.3-203.5c-0.1-1.6,0.5-2.9,1.6-3.5c1.1-0.6,2.4-0.6,3.7,0.2v0
				c14.3,8.5,36.3,18.2,59.9,15.5c2.2-0.3,4.8,1.1,6.8,3.7c23.4,30,45.8,46.1,60.5,54.2c2.3,1.3,4.1,4.4,4,7
				c-5.4,113.8-48.6,132.3-61.7,135.3c-0.3,0.1-0.5,0.1-0.8,0.1C1417.2,833.5,1411.9,827.7,1409.5,824.5z M1412.8,636
				c-24.4,2.8-47-7.1-61.7-15.9c-0.5-0.3-0.7-0.3-0.8-0.2c-0.1,0-0.2,0.3-0.2,0.9c5,113,44.8,178.9,61.7,201.9
				c3.2,4.4,7.9,8.2,9.5,7.8c12.6-2.9,54.1-20.8,59.5-132.6c0.1-1.5-1.1-3.6-2.5-4.4c-14.9-8.3-37.7-24.5-61.4-55
				c-1.4-1.9-3-2.7-4-2.7C1412.9,636,1412.9,636,1412.8,636z"/>
		</g>
		<g id="XMLID_4802_">
			<g id="XMLID_4783_">
				<g id="XMLID_4842_">
					<path id="XMLID_150_" class="st0" d="M1449.9,720.8c0-2.6-1.6-5.5-3.5-6.6l-39.9-23.1c-0.7-0.4-1.4-0.5-2-0.3
						c-10.6,1.6-14.6,8.8-14.6,8.8l13.1,23.8v2.2c0,8.7,5.3,18.9,11.9,22.7l2.7,1.6l11.8,21.4c6.9-0.9,13.8-6.5,16.8-9.2
						c0.6-0.4,0.9-0.8,0.9-0.8l0.6-0.6c1.4-1.8,2.2-4.5,2.2-7.9V720.8z"/>
					<path id="XMLID_151_" d="M1428.6,772.9l-12.1-21.9l-2.3-1.4c-7.1-4.1-12.6-14.6-12.6-23.9v-1.8l-13.3-24.2l0.4-0.7
						c0.2-0.3,4.5-7.8,15.6-9.5c0.7-0.2,1.8-0.3,3,0.5l39.9,23.1c2.4,1.4,4.2,4.8,4.2,7.9v31.9c0,3.6-0.9,6.7-2.5,8.8l-0.7,0.7
						c0,0,0,0,0,0s-0.5,0.5-1.2,1c-3.3,3-10.3,8.5-17.4,9.4L1428.6,772.9z M1391.6,699.7l12.9,23.4v2.6c0,8.3,5,17.9,11.1,21.4
						l3.1,1.8l11.5,20.8c6.3-1.3,12.6-6.4,15-8.7c0.5-0.4,0.8-0.7,0.8-0.7l0.7-0.7c1.2-1.5,1.8-3.9,1.8-6.9v-31.9
						c0-2-1.3-4.5-2.7-5.4l-39.9-23.1c-0.3-0.2-0.6-0.3-0.8-0.2l-0.3,0.1C1396.8,693.5,1392.9,698,1391.6,699.7z"/>
				</g>
				<path id="XMLID_4866_" d="M1446.3,762.1c0.6-0.4,0.9-0.8,0.9-0.8l0.6-0.6c1.4-1.8,2.2-4.5,2.2-7.9v-31.9c0-1.4-1.3-4.2-2-5.5
					l-16.7,10.4c0,0-6.1,14.5-12.2,26.6l10.4,18.9C1436.5,770.4,1443.4,764.8,1446.3,762.1z"/>
				<g id="XMLID_4795_">
					<g id="XMLID_4800_">
						<path id="XMLID_139_" class="st20" d="M1401.2,756.5l23.1,13.4c6.6,3.8,11.9-0.2,11.9-9V729c0-2.6-1.6-5.5-3.5-6.6l-39.9-23.1
							c-1.9-1.1-3.5,0.1-3.5,2.6v31.9C1389.3,742.6,1394.6,752.7,1401.2,756.5z"/>
						<path id="XMLID_145_" d="M1429,772.8c-1.7,0-3.6-0.5-5.5-1.6l-23.1-13.4c-7.1-4.1-12.6-14.6-12.6-23.9v-31.9
							c0-1.9,0.7-3.4,1.9-4.1c1.1-0.6,2.4-0.6,3.7,0.2l39.9,23.1c2.4,1.4,4.2,4.8,4.2,7.9v31.9c0,5.1-1.8,9.1-4.8,10.9
							C1431.6,772.4,1430.4,772.8,1429,772.8z M1391.4,700.3c-0.1,0-0.1,0-0.2,0c-0.2,0.1-0.5,0.7-0.5,1.5v31.9
							c0,8.3,5,17.9,11.1,21.4l23.1,13.4c2.4,1.4,4.6,1.6,6.3,0.6c2.1-1.2,3.4-4.3,3.4-8.3V729c0-2-1.3-4.5-2.7-5.4l-39.9-23.1
							C1391.8,700.4,1391.6,700.3,1391.4,700.3z"/>
					</g>
				</g>
				<g id="XMLID_4784_">
					<g id="XMLID_4786_">
						<g id="XMLID_4967_">
							<polygon id="XMLID_4968_" class="st0" points="1416.9,750.8 1416.9,734.2 1414,734.2 1414,745.8 1411.7,744.5 1410.3,747 
															"/>
						</g>
						<path id="XMLID_4964_" class="st0" d="M1414.7,739.2c-3.3-1.9-5.9-6.4-5.9-10.2c0-2.1,0.8-3.7,2.2-4.6
							c1.4-0.8,3.2-0.7,5.1,0.4c3.3,1.9,5.9,6.4,5.9,10.2c0,2.1-0.8,3.7-2.2,4.6c-0.6,0.4-1.3,0.5-2.1,0.5
							C1416.8,740.1,1415.8,739.8,1414.7,739.2z M1412.5,726.9c-0.5,0.3-0.8,1-0.8,2.1c0,2.8,2,6.3,4.4,7.7c0.9,0.5,1.7,0.7,2.2,0.4
							c0.5-0.3,0.8-1,0.8-2.1c0-2.8-2-6.3-4.4-7.7c-0.6-0.3-1.1-0.5-1.6-0.5C1412.9,726.8,1412.7,726.8,1412.5,726.9z"/>
						<path id="XMLID_4791_" class="st20" d="M1407.9,729.2c0,3.3,2.3,7.3,5.1,8.9c2.8,1.6,5.1,0.3,5.1-3c0-3.3-2.3-7.3-5.1-8.9
							C1410.2,724.5,1407.9,725.9,1407.9,729.2z"/>
						<path id="XMLID_4787_" d="M1412.3,739.3c-3.3-1.9-5.9-6.4-5.9-10.2c0-2.1,0.8-3.7,2.2-4.6c1.4-0.8,3.2-0.7,5.1,0.4
							c3.3,1.9,5.9,6.4,5.9,10.2c0,2.1-0.8,3.7-2.2,4.6c-0.6,0.4-1.3,0.5-2.1,0.5C1414.3,740.2,1413.3,739.9,1412.3,739.3z
							 M1410.1,727.1c-0.5,0.3-0.8,1-0.8,2.1c0,2.8,2,6.3,4.4,7.7c0.9,0.5,1.7,0.7,2.2,0.4c0.5-0.3,0.8-1,0.8-2.1
							c0-2.8-2-6.3-4.4-7.7c-0.6-0.3-1.1-0.5-1.6-0.5C1410.5,726.9,1410.3,727,1410.1,727.1z"/>
					</g>
					<g id="XMLID_4792_">
						<polygon id="XMLID_4794_" points="1414.4,750.9 1414.4,738 1411.6,736.3 1411.6,745.9 1409.3,744.6 1407.8,747.1 						"/>
					</g>
				</g>
			</g>
			<g id="XMLID_4799_">
				
					<rect id="XMLID_144_" x="1436.6" y="732.9" transform="matrix(0.8545 -0.5195 0.5195 0.8545 -171.2665 856.6121)" class="st20" width="13.6" height="2.2"/>
			</g>
			<g id="XMLID_4824_">
				
					<rect id="XMLID_143_" x="1436.6" y="756.4" transform="matrix(0.8545 -0.5195 0.5195 0.8545 -183.4827 860.0341)" class="st20" width="13.6" height="2.2"/>
			</g>
			<g id="XMLID_4868_">
				<g id="XMLID_4867_">
					<path id="XMLID_4798_" d="M1433.4,716.8L1433.4,716.8c-2.2,0-4.1-1.8-4.1-4.1v-17.5c0-4.9-3.5-11-7.8-13.4l-7.4-4.3
						c-1.4-0.8-2.5-0.9-2.9-0.7c-0.4,0.2-0.8,1.2-0.8,2.8v17.5c0,2.2-1.8,4.1-4.1,4.1l0,0c-2.2,0-4.1-1.8-4.1-4.1v-17.5
						c0-4.5,1.8-8.1,4.9-9.8c3.1-1.8,7.1-1.5,11,0.7l7.4,4.3c6.5,3.8,11.8,13,11.8,20.5v17.5C1437.5,715,1435.7,716.8,1433.4,716.8z
						"/>
				</g>
				<g id="XMLID_4796_">
					<path id="XMLID_141_" class="st20" d="M1407.7,684h-1.7v-5.7c0-2.3,1.2-4.4,3.2-5.5c2-1.2,4.4-1.2,6.4,0l7.8,4.4l-0.8,1.5
						l-7.8-4.4c-1.5-0.8-3.2-0.8-4.7,0c-1.5,0.9-2.3,2.4-2.3,4.1V684z"/>
				</g>
				<g id="XMLID_4869_">
					<path id="XMLID_140_" class="st20" d="M1433,696.9c-0.1-6.1-2.8-10.9-2.8-10.9l1.5-0.8c0.1,0.2,2.9,5.1,3.1,11.7L1433,696.9z"
						/>
				</g>
			</g>
		</g>
	</g>
	<g id="XMLID_4963_">
		<g id="XMLID_4804_">
			<g id="XMLID_8323_">
				<path id="XMLID_133_" d="M1717.9,661.9c-0.1-0.3,0-0.6,0.2-0.8l24.1-13.6c0.9-0.6,2.8-1.6,2.8-1.6l0,0c10-4.7,23.8-2.5,38.8,8
					c23.1,16.2,41.5,48.6,43.7,76.5c1.1,14.3-2,25.2-7.9,32.2l0,0l-30.6,34.2c-0.3,0.3-21.5,12-24.5,13.7c-0.2,0.1-0.3,0-0.3-0.2
					l-1.6-57.6c-18.2-17.5-31.8-44.2-33.7-68.1l-1-1.4L1717.9,661.9z"/>
				<path id="XMLID_134_" d="M1764.5,812.3c-0.3,0-0.7-0.1-0.9-0.3c-0.6-0.3-0.9-0.9-1-1.6l-1.5-56.9c-18.5-18-31.6-44.6-33.7-68.2
					l-0.9-1.3l-10.1-21.4c-0.5-1.1-0.1-2.4,0.9-3l24.1-13.6c0.9-0.6,2.8-1.6,2.9-1.6c11.3-5.3,25.6-2.4,40.5,8.1
					c23.5,16.6,42.2,49.3,44.4,77.8c1,13.6-1.5,24.8-7.5,32.5l0,0.1l-0.9,1l-30.6,34.2c-0.3,0.3-0.5,0.5-24.5,13.8l-0.4,0.2
					C1765.2,812.2,1764.8,812.3,1764.5,812.3z M1729.5,682.4l1.2,1.6l0,0.5c1.8,23.1,14.9,49.4,33.2,67l0.5,0.5l1.5,55.9
					c17.6-9.7,21.4-11.9,22.1-12.3l30.4-34c5.9-7,8.5-17.7,7.5-31c-2.1-27.6-20.2-59.3-43-75.3c-13.6-9.6-27.1-12.5-37-7.9
					c-0.3,0.2-1.9,1-2.7,1.5l-23.3,13.1L1729.5,682.4z"/>
			</g>
			<g id="XMLID_8322_">
				<path id="XMLID_127_" class="st0" d="M1738.8,716.2l-1.4-3.1l0,0c-5.7-13.4-8.7-27.6-7.7-40.2c0.1-1,0.2-2,0.3-2.9l-9.4-9
					c-0.3-0.3-0.2-0.7,0.1-0.9l22.2-12.8c0.6-0.3,1.8-1,1.8-1c7.4-3.8,17-3.6,27.6,1.1c12.6,5.7,24.4,16.5,33.7,29.6L1738.8,716.2z"
					/>
				<path id="XMLID_129_" d="M1738,718.6l-2.8-6.3l0,0c-5.7-13.9-8.2-27.5-7.2-39.6c0.1-0.7,0.1-1.5,0.2-2.2l-8.8-8.4
					c-0.5-0.5-0.8-1.2-0.7-1.9c0.1-0.7,0.5-1.3,1.1-1.7l22.2-12.8c0.5-0.3,1.8-1,1.8-1c8.1-4.1,18.4-3.7,29.1,1.1
					c12.3,5.5,24.5,16.3,34.4,30.2l1.1,1.5L1738,718.6z M1739.2,712.8l0.4,0.9l64-37.2c-9.3-12.7-20.6-22.5-31.9-27.6
					c-9.9-4.5-18.9-4.9-26.1-1.2l0,0c0,0-1.1,0.6-1.6,0.9l-21,12l9,8.5l-0.1,0.9c-0.1,0.9-0.3,1.9-0.3,2.8
					c-1,11.9,1.6,25.5,7.5,39.4L1739.2,712.8z"/>
			</g>
			<g id="XMLID_8321_">
				<path id="XMLID_120_" class="st20" d="M1794.9,776.6L1794.9,776.6c5.9-7,9-18,7.9-32.2c-2.2-27.9-20.6-60.3-43.7-76.5
					c-29.8-21-55.1-8.7-55.1,25c0,31.6,22.2,69.9,49.5,85.7c0.8,0.5,1.6,0.9,2.3,1.3l0,0c2.5,7.9,2.5,16.6,1.7,24.2
					c-0.5,4.2,4.6,9.2,6.8,6.8L1794.9,776.6z"/>
				<path id="XMLID_123_" d="M1762.9,813.1c-0.6,0-1.2-0.1-1.9-0.4c-2.8-1.2-5.6-5.2-5.1-8.9c1-8.7,0.5-16.4-1.4-22.8
					c-0.6-0.3-1.2-0.6-1.8-1c-27.8-16-50.3-55.1-50.3-87.2c0-16.5,5.8-28.6,16.3-34c11.2-5.8,26.2-3,41.4,7.7
					c23.5,16.5,42.2,49.3,44.4,77.8c1,13.6-1.5,24.8-7.5,32.5l0,0.1l-0.9,1l-30.6,34.2C1764.9,812.7,1763.9,813.1,1762.9,813.1z
					 M1731.3,659.2c-4.1,0-7.8,0.9-11.1,2.6c-9.4,4.9-14.5,15.9-14.5,31.1c0,31,21.8,68.8,48.6,84.3c0.8,0.4,1.5,0.8,2.3,1.2
					l0.5,0.3l0.3,0.7c2.2,7,2.8,15.4,1.8,24.9c-0.2,2.1,1.6,4.7,3.2,5.4c0.5,0.2,0.6,0.1,0.7,0.1l30.6-34.2c5.9-7,8.5-17.7,7.5-31
					c-2.1-27.6-20.2-59.3-43-75.3C1748.7,662.6,1739.4,659.2,1731.3,659.2z"/>
			</g>
			<g id="XMLID_8314_">
				
					<rect id="XMLID_121_" x="1803.5" y="740.1" transform="matrix(0.8754 -0.4833 0.4833 0.8754 -132.4256 969.7743)" class="st20" width="23.6" height="3.4"/>
			</g>
			<g id="XMLID_8313_">
				<path id="XMLID_1_" class="st20" d="M1772.8,646.9l-25.4,14.3L1772.8,646.9z"/>
				
					<rect id="XMLID_118_" x="1745.6" y="652.4" transform="matrix(0.8719 -0.4897 0.4897 0.8719 -94.8113 945.73)" width="29.1" height="3.4"/>
			</g>
			<g id="XMLID_8280_">
				
					<rect id="XMLID_117_" x="1799.7" y="761.9" transform="matrix(0.8721 -0.4894 0.4894 0.8721 -142.0594 983.6962)" class="st20" width="21.5" height="3.4"/>
			</g>
		</g>
		<g id="XMLID_4806_">
			<g id="XMLID_4907_">
				<g id="XMLID_4962_">
					<path id="XMLID_115_" class="st0" d="M1753.5,742.4l-2.6-3.7c0.3-0.2,8.2-6,7.6-19.3c0-0.3-0.2-5.6-4.9-8
						c-1.2-0.6-1.7-0.5-1.7-0.5c-0.4,0.3-0.7,2.4-0.8,3.2c-0.1,0.8-0.2,1.5-0.4,2.2c-1.3,4.6-3.3,12-10.8,12c-0.1,0-0.1,0-0.2,0
						l0.1-4.5c4,0.1,5.1-3.5,6.5-8.5c0.2-0.6,0.2-1.1,0.3-1.7c0.3-2.3,0.7-5.4,3.1-6.7c1.6-0.8,3.5-0.7,5.8,0.5
						c7.1,3.7,7.4,11.5,7.4,11.9C1763.7,735,1753.9,742.1,1753.5,742.4z"/>
				</g>
				<g id="XMLID_4961_">
					<path id="XMLID_114_" class="st0" d="M1750.1,732.5l-2-4l1,2l-1.1-2c0.2-0.1,4.5-2.7,4.6-12.8l4.5,0
						C1757,728.8,1750.4,732.3,1750.1,732.5z"/>
				</g>
				<g id="XMLID_4960_">
					<path id="XMLID_113_" class="st0" d="M1768.7,750.9c-6.8-6.8-5.6-14.7-5.5-15c0.1-0.3,2.6-10.6,0.1-19.7
						c-1-3.3-2.8-6.3-5.4-8.8c-3.1-2.9-6.5-4.4-9-3.9c-3.9,0.8-3.7,6.8-3.7,6.9l-4.5,0.2c-0.2-3.5,1.2-10.3,7.4-11.5
						c4-0.8,8.8,1,13,5c3.3,3.1,5.5,6.7,6.7,10.8c2.9,10.2,0.1,21.4,0,21.8c0,0.1-0.8,5.8,4.3,10.9L1768.7,750.9z"/>
				</g>
				<g id="XMLID_4959_">
					<path id="XMLID_112_" class="st0" d="M1736.9,720.6c-3.2,0-6.1-1.6-6.5-1.8l2.2-3.9c0.9,0.5,3.8,1.7,5.7,0.9
						c1-0.4,1.7-1.4,2.2-3.1l4.3,1.2c-1,3.8-3.2,5.4-4.8,6.1C1739.1,720.5,1738,720.6,1736.9,720.6z"/>
				</g>
				<g id="XMLID_4958_">
					<path id="XMLID_111_" class="st0" d="M1772.7,762.8c-10.1-9.1-12.4-18.6-12.4-19.1l4.4-1c0,0.1,2.1,8.6,11.1,16.7L1772.7,762.8
						z"/>
				</g>
				<g id="XMLID_4957_">
					<path id="XMLID_110_" class="st0" d="M1734.4,712.5l-0.8-4.4c-0.4,0.1-0.6,0.2-0.6,0.2c0,0,1.1-1,1.9-5.6
						c0.9-5.2,3.5-8,5.6-9.4c2.9-2,6-2.3,7.8-1.9l-0.9,4.4c-0.8-0.2-2.6,0-4.3,1.2c-2,1.3-3.3,3.6-3.7,6.5
						C1738.1,710.7,1735.7,712.2,1734.4,712.5z"/>
				</g>
				<g id="XMLID_4956_">
					<path id="XMLID_109_" class="st0" d="M1728,717.4c-5-2.6-6.8-7-6.9-7.2l4.2-1.7c0,0,1.3,3.1,4.9,4.9L1728,717.4z"/>
				</g>
				<g id="XMLID_4955_">
					<path id="XMLID_108_" class="st0" d="M1741.9,735.8c0,0-0.1,0-0.1,0c-4,0-8.4-1.4-13.2-4.2l-1.2-0.7l2.2-3.9l1.2,0.7
						c4,2.3,7.8,3.6,11,3.6c1.7,0,3.2-0.3,4.3-1l2.4,3.8C1746.7,735.3,1744.5,735.8,1741.9,735.8z"/>
				</g>
				<g id="XMLID_4954_">
					<path id="XMLID_107_" class="st0" d="M1747.4,751.8c-3.5,0-6.2-0.7-6.4-0.7l1.1-4.4c0.1,0,10.5,2.5,14.7-3l3.6,2.7
						C1757.1,750.8,1751.7,751.8,1747.4,751.8z"/>
				</g>
				<g id="XMLID_4953_">
					<path id="XMLID_105_" class="st0" d="M1768.4,764.4c-3.8-2.6-6.1-5.6-7.5-7.8c-3.3,2.5-8,3.2-8.7,3.3l-0.6-4.5
						c2.3-0.3,6.5-1.6,7.6-3.5l0.7-1.2l1.6,0c1,0.1,1.9,0.7,2.3,1.7c0.6,1.5,2.5,5.2,7.1,8.3L1768.4,764.4z"/>
				</g>
				<g id="XMLID_4952_">
					<path id="XMLID_104_" class="st0" d="M1746.5,744.2c-5.9,0-12.4-2.6-13.3-2.9l1.7-4.2c2.6,1.1,10.4,3.5,14.6,2.2l1.4,4.3
						C1749.4,744,1748,744.2,1746.5,744.2z"/>
				</g>
				<g id="XMLID_4951_">
					<path id="XMLID_102_" class="st0" d="M1737,727.9c-3.7-0.4-8-3-8.5-3.3l2.4-3.8c1.1,0.7,4.3,2.4,6.6,2.6L1737,727.9z"/>
				</g>
				<g id="XMLID_4950_">
					<path id="XMLID_101_" class="st0" d="M1779.3,758.7c-4-0.8-7.7-4.9-8.1-5.4l3.4-2.9c0.8,0.9,3.4,3.5,5.6,3.9L1779.3,758.7z"/>
				</g>
				<g id="XMLID_4949_">
					<path id="XMLID_100_" class="st0" d="M1731,711.7c-8.6-2.3-9.9-9.8-10-10.2l4.4-0.7c0,0.2,1,5,6.7,6.6L1731,711.7z"/>
				</g>
				<g id="XMLID_4948_">
					<path id="XMLID_99_" class="st0" d="M1727.4,702.7c-0.2-6.9,3-20.1,16.3-20.7l0.2,4.5c-12.3,0.5-12,15.5-12,16.1L1727.4,702.7z
						"/>
				</g>
				<g id="XMLID_4947_">
					<path id="XMLID_98_" class="st0" d="M1781.3,754.4c-9.2-2.9-12-11.1-11.6-17.8c0-0.8,0.1-1.6,0.2-2.5c0.5-5.6,1-11.9-3.1-22
						c-4.4-11.2-15.6-16.1-15.7-16.1l1.8-4.1c0.5,0.2,13,5.6,18.1,18.6c4.4,11.1,3.8,18.3,3.4,24c-0.1,0.8-0.1,1.6-0.2,2.4
						c-0.1,2.4,0,10.6,8.5,13.2L1781.3,754.4z"/>
				</g>
				<g id="XMLID_4946_">
					<path id="XMLID_97_" class="st0" d="M1780.5,745.7l-4.5-0.1l0.2-12.5c0.2-11.9-5.3-24.7-5.4-24.8l4.1-1.8
						c0.2,0.6,6,13.9,5.8,26.7L1780.5,745.7z"/>
				</g>
				<g id="XMLID_4945_">
					<path id="XMLID_96_" class="st0" d="M1765.3,700.9c-6.5-8.1-14.1-11.6-14.2-11.6l1.8-4.1c0.3,0.2,8.6,3.9,15.8,12.9
						L1765.3,700.9z"/>
				</g>
				<g id="XMLID_4944_">
					<path id="XMLID_95_" class="st0" d="M1726,698.4l-4.3-1.3c0.3-1,1.8-6,3.7-8.2l3.5,2.9C1727.9,692.9,1726.6,696.4,1726,698.4z"
						/>
				</g>
				<g id="XMLID_4943_">
					<path id="XMLID_94_" class="st0" d="M1785.6,747.9l-4.5-0.3c0.7-10.6,0.2-16.3,0.2-16.4l4.5-0.4
						C1785.8,731.1,1786.3,736.9,1785.6,747.9z"/>
				</g>
				<g id="XMLID_4942_">
					<path id="XMLID_93_" class="st0" d="M1726.8,723.5c-0.3-0.2-2.6-1.6-4.1-4.4l3.9-2.2c1,1.8,2.5,2.7,2.5,2.7L1726.8,723.5z"/>
				</g>
				<g id="XMLID_4941_">
					<rect id="XMLID_92_" x="1759.5" y="758.7" class="st0" width="4.5" height="3.3"/>
				</g>
				<g id="XMLID_4940_">
					
						<rect id="XMLID_91_" x="1745.8" y="683.7" transform="matrix(0.2997 -0.954 0.954 0.2997 570.3829 2147.5776)" class="st0" width="4.5" height="3.2"/>
				</g>
				<g id="XMLID_4939_">
					
						<rect id="XMLID_90_" x="1759" y="737.2" transform="matrix(0.958 -0.2868 0.2868 0.958 -137.879 536.146)" class="st0" width="4.5" height="3.1"/>
				</g>
				<g id="XMLID_4938_">
					
						<rect id="XMLID_89_" x="1727.5" y="685.2" transform="matrix(0.6721 -0.7405 0.7405 0.6721 57.8549 1505.5947)" class="st0" width="2.5" height="4.5"/>
				</g>
				<g id="XMLID_4909_">
					
						<rect id="XMLID_88_" x="1767.9" y="701.1" transform="matrix(0.8219 -0.5697 0.5697 0.8219 -85.2991 1133.7092)" class="st0" width="4.5" height="4.3"/>
				</g>
				<g id="XMLID_4908_">
					
						<rect id="XMLID_87_" x="1779.8" y="721.8" transform="matrix(0.974 -0.2264 0.2264 0.974 -117.6262 422.3183)" class="st0" width="4.5" height="4.2"/>
				</g>
			</g>
			<g id="XMLID_4910_">
				<g id="XMLID_4937_">
					<path id="XMLID_86_" d="M1749.9,743.3l-1.7-2.4c0.4-0.2,8.6-6.2,8-20c0-0.3-0.2-6-5.4-8.7c-1.1-0.6-2-0.8-2.4-0.5
						c-0.8,0.4-1,2.5-1.2,3.8c-0.1,0.8-0.2,1.5-0.3,2c-1.3,4.7-3.1,11.5-10.2,11.4l0-2.9c4.5,0.1,5.9-3.9,7.3-9
						c0.2-0.6,0.2-1.2,0.3-1.8c0.3-2.2,0.6-4.9,2.7-6.1c1.4-0.7,3-0.5,5.1,0.5c6.7,3.4,6.9,10.9,6.9,11.2
						C1759.8,736.2,1750.3,743,1749.9,743.3z"/>
				</g>
				<g id="XMLID_4936_">
					<path id="XMLID_85_" d="M1746.7,733.3l-1.3-2.6l0.7,1.3l-0.7-1.3c0.2-0.1,4.9-2.8,5-13.5l2.9,0
						C1753.2,729.9,1746.9,733.2,1746.7,733.3z"/>
				</g>
				<g id="XMLID_4935_">
					<path id="XMLID_84_" d="M1766.1,751.9c-6.5-6.5-5.3-14-5.3-14.3c0.1-0.2,2.7-10.7,0-20c-1-3.5-2.9-6.5-5.7-9.1
						c-3.3-3.1-6.9-4.6-9.7-4.1c-4.6,0.9-4.4,7.4-4.4,7.7l-2.9,0.1c-0.2-3.2,1-9.6,6.7-10.7c3.8-0.7,8.3,1,12.3,4.8
						c3.1,3,5.3,6.5,6.5,10.5c2.9,10,0.1,21,0,21.4c0,0.1-1,6.3,4.5,11.7L1766.1,751.9z"/>
				</g>
				<g id="XMLID_4934_">
					<path id="XMLID_83_" d="M1733.9,721.4c-3.1,0-6-1.6-6.1-1.7l1.5-2.5c1,0.6,4.2,1.9,6.4,1c1.3-0.5,2.1-1.7,2.6-3.6l2.8,0.8
						c-0.8,2.8-2.2,4.7-4.3,5.6C1735.8,721.2,1734.8,721.4,1733.9,721.4z"/>
				</g>
				<g id="XMLID_4933_">
					<path id="XMLID_82_" d="M1770.2,763.8c-9.9-8.9-12.1-18.2-12.2-18.6l2.8-0.6c0,0.1,2.1,8.8,11.3,17.1L1770.2,763.8z"/>
				</g>
				<g id="XMLID_4932_">
					<path id="XMLID_81_" d="M1731.2,713.2l-0.5-2.9c-0.2,0-0.2,0.1-0.2,0.1c0,0,1.3-0.9,2.2-6.1c0.8-4.9,3.3-7.6,5.3-8.9
						c2.7-1.9,5.6-2.1,7.2-1.8l-0.6,2.9c-0.9-0.2-3,0-4.9,1.3c-2.1,1.5-3.6,3.9-4.1,7C1734.3,711.9,1732.1,713.1,1731.2,713.2z"/>
				</g>
				<g id="XMLID_4931_">
					<path id="XMLID_80_" d="M1725.3,718.2c-4.8-2.5-6.5-6.6-6.6-6.8l2.7-1.1c0,0,1.4,3.3,5.2,5.3L1725.3,718.2z"/>
				</g>
				<g id="XMLID_4930_">
					<path id="XMLID_79_" d="M1738.8,736.6c0,0-0.1,0-0.1,0c-3.8,0-8.2-1.4-12.8-4.1l-1.2-0.7l1.5-2.5l1.2,0.7
						c4.2,2.4,8.1,3.7,11.4,3.7c1.8,0,3.5-0.4,4.7-1.1l1.6,2.5C1743.3,736.1,1741.3,736.6,1738.8,736.6z"/>
				</g>
				<g id="XMLID_4929_">
					<path id="XMLID_78_" d="M1744.4,752.5c-3.4,0-6-0.6-6.2-0.7l0.7-2.8c0.1,0,11,2.6,15.5-3.2l2.3,1.8
						C1753.6,751.6,1748.5,752.5,1744.4,752.5z"/>
				</g>
				<g id="XMLID_4928_">
					<path id="XMLID_77_" d="M1765.8,765.3c-4.2-2.8-6.5-6.2-7.7-8.4c-3,2.8-8.3,3.6-9,3.7l-0.4-2.9c1.8-0.2,6.8-1.4,8.2-3.9
						l0.4-0.8l1.1,0c0.7,0,1.3,0.5,1.6,1.2c0.6,1.5,2.6,5.5,7.4,8.7L1765.8,765.3z"/>
				</g>
				<g id="XMLID_4927_">
					<path id="XMLID_76_" d="M1743.5,744.9c-5.9,0-12.7-2.7-13.1-2.9l1.1-2.7c0.1,0,9.8,3.9,15.1,2.2l0.9,2.8
						C1746.2,744.8,1744.9,744.9,1743.5,744.9z"/>
				</g>
				<g id="XMLID_4926_">
					<path id="XMLID_75_" d="M1734,728.7c-3.6-0.3-8-3-8.2-3.2l1.5-2.5c0,0,4,2.5,6.9,2.7L1734,728.7z"/>
				</g>
				<g id="XMLID_4925_">
					<path id="XMLID_74_" d="M1776.4,759.4c-3.8-0.8-7.5-4.9-7.6-5.1l2.2-1.9c0.9,1,3.6,3.7,6,4.2L1776.4,759.4z"/>
				</g>
				<g id="XMLID_4924_">
					<path id="XMLID_73_" d="M1728.1,712.5c-8.1-2.2-9.3-9.2-9.4-9.5l2.9-0.5l-1.4,0.2l1.4-0.2c0,0.2,1,5.5,7.3,7.2L1728.1,712.5z"
						/>
				</g>
				<g id="XMLID_4923_">
					<path id="XMLID_71_" d="M1725.1,704.3c-0.2-6.6,2.9-19.3,15.6-19.9l0.1,2.9c-13.1,0.6-12.8,16.2-12.8,16.9L1725.1,704.3z"/>
				</g>
				<g id="XMLID_4922_">
					<path id="XMLID_70_" d="M1778.5,755.2c-8.8-2.7-11.5-10.6-11.1-17c0-0.8,0.1-1.6,0.2-2.5c0.5-5.7,1-12.1-3.1-22.4
						c-4.6-11.5-16-16.5-16.1-16.5l1.1-2.7c0.5,0.2,12.7,5.5,17.7,18.1c4.4,10.9,3.8,18,3.3,23.7c-0.1,0.8-0.1,1.6-0.2,2.4
						c-0.2,2.6,0,11.2,9.1,14L1778.5,755.2z"/>
				</g>
				<g id="XMLID_4921_">
					<path id="XMLID_69_" d="M1776.7,747.2l-2.9-0.1l0.2-12.5c0.2-12.1-5.4-25-5.5-25.2l2.7-1.2c0.2,0.6,6,13.7,5.7,26.4
						L1776.7,747.2z"/>
				</g>
				<g id="XMLID_4920_">
					<path id="XMLID_68_" d="M1762.8,702c-6.7-8.3-14.4-11.8-14.5-11.8l1.2-2.7c0.3,0.2,8.4,3.8,15.6,12.7L1762.8,702z"/>
				</g>
				<g id="XMLID_4919_">
					<path id="XMLID_67_" d="M1722.2,699.8l-2.8-0.8c0.2-0.6,1.8-5.8,3.5-7.9l2.2,1.9C1724.1,694.1,1722.8,697.8,1722.2,699.8z"/>
				</g>
				<g id="XMLID_4918_">
					<path id="XMLID_66_" d="M1781.7,749.4l-2.9-0.2c0.7-10.7,0.2-16.4,0.2-16.5l2.9-0.3C1781.9,732.7,1782.4,738.5,1781.7,749.4z"
						/>
				</g>
				<g id="XMLID_4917_">
					<path id="XMLID_65_" d="M1724.1,724.3c-0.1-0.1-2.4-1.5-3.9-4.1l2.6-1.4c1.1,2,2.8,3,2.8,3L1724.1,724.3z"/>
				</g>
				<g id="XMLID_4916_">
					<rect id="XMLID_64_" x="1757.2" y="760.3" width="2.9" height="3.3"/>
				</g>
				<g id="XMLID_4915_">
					
						<rect id="XMLID_63_" x="1743.5" y="685.2" transform="matrix(0.2994 -0.9541 0.9541 0.2994 567.3018 2146.1748)" width="2.9" height="3.2"/>
				</g>
				<g id="XMLID_4914_">
					
						<rect id="XMLID_62_" x="1756.8" y="738.8" transform="matrix(0.958 -0.2867 0.2867 0.958 -138.441 535.2263)" width="2.9" height="3.1"/>
				</g>
				<g id="XMLID_4913_">
					
						<rect id="XMLID_61_" x="1724.4" y="687.6" transform="matrix(0.6721 -0.7404 0.7404 0.6721 55.6163 1503.6564)" width="2.5" height="2.9"/>
				</g>
				<g id="XMLID_4912_">
					
						<rect id="XMLID_60_" x="1765.6" y="702.7" transform="matrix(0.8219 -0.5697 0.5697 0.8219 -86.7471 1132.1561)" width="2.9" height="4.3"/>
				</g>
				<g id="XMLID_4911_">
					
						<rect id="XMLID_59_" x="1777.5" y="723.3" transform="matrix(0.974 -0.2264 0.2264 0.974 -118.0568 421.663)" width="2.9" height="4.2"/>
				</g>
			</g>
		</g>
	</g>
	<g id="XMLID_5029_">
		<g id="XMLID_5096_">
			<g id="XMLID_5097_">
				<g id="XMLID_5098_">
					<g id="XMLID_5099_">
						<g id="XMLID_5102_">
							<g id="XMLID_5103_">
								<g id="XMLID_5120_">
									<path id="XMLID_5124_" d="M1318.9,929.6l12.3-7.9c0.1-0.1,0.1-0.2,0-0.3l-15.6-19c-0.1-0.1-0.3-0.1-0.4,0.1l-2.5,11.5
										c0,0,0,0,0,0l-0.6,7.9c0,0.1,0,0.1,0.1,0.2l6.4,7.5C1318.7,929.7,1318.8,929.7,1318.9,929.6z"/>
									<path id="XMLID_5121_" d="M1318.8,931c-0.4,0-0.9-0.2-1.2-0.5l-6.8-7.9l0-0.7l0.6-7.9l2.7-12.6l1-0.4
										c0.6-0.1,1.2,0.1,1.6,0.5l16,19.4l0,0.8c-0.1,0.4-0.3,0.8-0.7,1.1l-12.3,7.9C1319.3,930.9,1319,931,1318.8,931z
										 M1313.5,921.6l5.5,6.4l10.4-6.7L1316,905l-2,9.3L1313.5,921.6z"/>
								</g>
								<g id="XMLID_5115_">
									<path id="XMLID_5119_" class="st0" d="M1365.5,872.3l-58.7-33.9c-1.5-0.8-2.8-1-3.8-0.5l0,0l-11.5,6.9
										c-0.2,0.1-0.2,0.3-0.1,0.5l13.7,14.5c0.1,0.1,0.1,0.1,0.1,0.2v24c0,3.8,2.7,8.5,6,10.4l8.8,5.1c0.2,0.3,0.4,0.6,0.6,0.9
										c0.4,2.5,2.9,13.1,13.6,20.5c0.4,0.3,0.7-0.1,0.4-0.7c-1.4-2.7-4.1-8.5-3.3-13.1c0.4-0.2,0.5-0.2,1-0.4l18.1,10.5
										c0.1,0,0.1,0.1,0.1,0.2l7.6,20.2c0.1,0.2,0.3,0.3,0.5,0.2l11.4-6.8l0,0c1-0.6,1.6-1.9,1.6-3.7v-44.2
										C1371.5,878.9,1368.8,874.2,1365.5,872.3z"/>
									<path id="XMLID_5116_" d="M1358.7,939l-0.9-0.2c-0.5-0.2-0.8-0.5-1-1l-7.4-19.8l-16.9-9.8c-0.2,4.1,2.1,9.1,3.2,11.2
										c0.4,0.8,0.3,1.8-0.3,2.3c-0.6,0.5-1.4,0.5-2.1,0.1c-10.7-7.3-13.5-17.6-14.1-21l-0.3-0.4l-8.5-4.9
										c-3.7-2.2-6.7-7.2-6.7-11.6v-23.6l-13.4-14.2c-0.3-0.4-0.5-0.9-0.4-1.4c0.1-0.5,0.4-0.9,0.8-1.2l11.5-6.9
										c1.6-0.7,3.4-0.5,5.2,0.5l58.7,33.9c3.7,2.2,6.7,7.2,6.7,11.6V927c0,2.1-0.8,3.8-2.1,4.8L1358.7,939z M1332.4,905.1
										l19.1,11l0.3,0.6l7.1,19l10.3-6.2c0.6-0.4,0.9-1.3,0.9-2.5v-44.2c0-3.3-2.4-7.6-5.3-9.3l-58.7-33.9c-1-0.6-2-0.8-2.6-0.5
										l-10.2,6.1l13.2,14l0.1,0.7v24c0,3.3,2.4,7.6,5.3,9.3l9.2,5.4l0.8,1.4c0.3,1.8,2.1,10.3,9.9,17.1c-1.3-3.1-2.4-7-1.8-10.5
										l0.1-0.7L1332.4,905.1z"/>
								</g>
								<g id="XMLID_5110_">
									<path id="XMLID_5114_" class="st20" d="M1353.9,879.4l-58.9-34c-3.2-1.9-5.9-0.4-5.9,3.4v44.4c0,3.7,2.6,8.3,5.9,10.1
										l9.1,5.2c0.2,0.1,0.4,0.4,0.5,0.7c0.4,2.4,2.7,13.1,13.6,20.5c0.4,0.3,0.7-0.1,0.4-0.7c-1.5-2.8-4.3-8.9-3.2-13.6
										c0.1-0.2,0.3-0.3,0.5-0.2l38,21.9c3.2,1.9,5.9,0.4,5.9-3.4v-44.4C1359.8,885.9,1357.2,881.3,1353.9,879.4z"/>
									<path id="XMLID_5111_" d="M1356.5,939.5c-1,0-2.2-0.3-3.3-1l-36.7-21.2c-0.2,4.1,2.1,9.1,3.2,11.2c0.4,0.8,0.3,1.8-0.3,2.3
										c-0.6,0.5-1.4,0.5-2.1,0.1c-11.2-7.6-13.7-18.8-14.2-21.3l-8.9-5.1c-3.7-2.1-6.5-7.1-6.5-11.3v-44.4c0-2.3,0.8-4.1,2.4-4.9
										c1.5-0.9,3.5-0.7,5.5,0.4l58.9,34c3.7,2.1,6.5,7.1,6.5,11.3V934c0,2.3-0.8,4.1-2.4,4.9
										C1358.1,939.3,1357.3,939.5,1356.5,939.5z M1315.7,914.1c0.3,0,0.6,0.1,0.9,0.2l38,21.9c1.1,0.6,2.1,0.8,2.8,0.4
										c0.7-0.4,1-1.3,1-2.6v-44.4c0-3.2-2.4-7.4-5.2-9l-58.9-34c-1.1-0.6-2.1-0.8-2.8-0.4c-0.7,0.4-1,1.3-1,2.6v44.4
										c0,3.2,2.4,7.4,5.2,9l9.1,5.2c0.6,0.3,1,0.9,1.1,1.6c0.3,1.8,2.1,10.3,9.9,17.2c-1.3-3.3-2.5-7.5-1.6-11l0.2-0.7l0.8-0.5
										C1315.3,914.1,1315.5,914.1,1315.7,914.1z"/>
								</g>
								<g id="XMLID_5108_">
									<polygon id="XMLID_5109_" points="1357.3,881.2 1354.8,879.8 1366.2,872.7 1367.5,875 									"/>
								</g>
								<g id="XMLID_5106_">
									
										<rect id="XMLID_5107_" x="1300.8" y="844.2" transform="matrix(0.8547 -0.5191 0.5191 0.8547 -249.034 801.1644)" width="12" height="2.7"/>
								</g>
								<g id="XMLID_5104_">
									
										<rect id="XMLID_5105_" x="1358.7" y="887.3" transform="matrix(0.845 -0.5347 0.5347 0.845 -263.5474 867.8034)" width="13.4" height="2.7"/>
								</g>
							</g>
						</g>
						<g id="XMLID_5100_">
							<polygon id="XMLID_5101_" points="1371.5,891.2 1359.8,898.2 1359.8,936.8 1371.1,930.6 1371.5,927.8 							"/>
						</g>
					</g>
				</g>
			</g>
		</g>
		<g id="XMLID_5030_">
			<path id="XMLID_5094_" class="st0" d="M1309.2,876.5l-0.4,4.3l4,1l0.4,3.4l-3.7-1.8l2.4,5.1l-2.5,0.1l-1.7-4.9l-1.5,3l-2.6-3
				l2.4-2.3l-3.7-2.4l0.4-2.9l4,3.6l-0.4-4.9L1309.2,876.5z"/>
			<path id="XMLID_5063_" class="st0" d="M1325.9,886.2l-0.4,4.3l4,1l0.4,3.4l-3.7-1.8l2.4,5.1l-2.5,0.1l-1.7-4.9l-1.5,3l-2.6-3
				l2.4-2.3l-3.7-2.4l0.4-2.9l4,3.6l-0.4-4.9L1325.9,886.2z"/>
			<path id="XMLID_5031_" class="st0" d="M1342.6,895.8l-0.4,4.3l4,1l0.4,3.4l-3.7-1.8l2.4,5.1l-2.5,0.1l-1.7-4.9l-1.5,3l-2.6-3
				l2.4-2.3l-3.7-2.4l0.4-2.9l4,3.6l-0.4-4.9L1342.6,895.8z"/>
		</g>
	</g>
	<g id="XMLID_4981_">
		<g id="XMLID_4987_">
			<g id="XMLID_4988_">
				<g id="XMLID_4989_">
					<g id="XMLID_4990_">
						<g id="XMLID_4993_">
							<g id="XMLID_4994_">
								<g id="XMLID_5011_">
									<path id="XMLID_5028_" d="M1570.3,1009.1l12.3-7.9c0.1-0.1,0.1-0.2,0-0.3l-15.6-19c-0.1-0.1-0.3-0.1-0.4,0.1l-2.5,11.5
										c0,0,0,0,0,0l-0.6,7.9c0,0.1,0,0.1,0.1,0.2l6.4,7.5C1570.1,1009.1,1570.2,1009.1,1570.3,1009.1z"/>
									<path id="XMLID_5025_" d="M1570.2,1010.4c-0.4,0-0.9-0.2-1.2-0.5l-6.8-7.9l0-0.7l0.6-7.9l2.7-12.6l1-0.4
										c0.6-0.1,1.2,0.1,1.6,0.5l16,19.4l0,0.8c-0.1,0.4-0.3,0.8-0.7,1.1l-12.3,7.9C1570.8,1010.4,1570.5,1010.4,1570.2,1010.4z
										 M1564.9,1001.1l5.5,6.4l10.4-6.7l-13.4-16.2l-2,9.3L1564.9,1001.1z"/>
								</g>
								<g id="XMLID_5006_">
									<path id="XMLID_5010_" class="st0" d="M1616.9,951.8l-58.7-33.9c-1.5-0.8-2.8-1-3.8-0.5l0,0l-11.5,6.9
										c-0.2,0.1-0.2,0.3-0.1,0.5l13.7,14.5c0.1,0.1,0.1,0.1,0.1,0.2v24c0,3.8,2.7,8.5,6,10.4l8.8,5.1c0.2,0.3,0.4,0.6,0.6,0.9
										c0.4,2.5,2.9,13.1,13.6,20.5c0.4,0.3,0.7-0.1,0.4-0.7c-1.4-2.7-4.1-8.5-3.3-13.1c0.4-0.2,0.5-0.2,1-0.4l18.1,10.5
										c0.1,0,0.1,0.1,0.1,0.2l7.6,20.2c0.1,0.2,0.3,0.3,0.5,0.2l11.4-6.8l0,0c1-0.6,1.6-1.9,1.6-3.7v-44.2
										C1622.9,958.4,1620.2,953.7,1616.9,951.8z"/>
									<path id="XMLID_5007_" d="M1610.1,1018.5l-0.9-0.2c-0.5-0.2-0.8-0.5-1-1l-7.4-19.8l-16.9-9.8c-0.2,4.1,2.1,9.1,3.2,11.2
										c0.4,0.8,0.3,1.8-0.3,2.3c-0.6,0.5-1.4,0.5-2.1,0.1c-10.7-7.3-13.5-17.6-14.1-21l-0.3-0.4l-8.5-4.9
										c-3.7-2.2-6.7-7.2-6.7-11.6v-23.6l-13.4-14.2c-0.3-0.4-0.5-0.9-0.4-1.4c0.1-0.5,0.4-0.9,0.8-1.2l11.5-6.9
										c1.6-0.7,3.4-0.5,5.2,0.5l58.7,33.9c3.7,2.2,6.7,7.2,6.7,11.6v44.2c0,2.1-0.8,3.8-2.1,4.8L1610.1,1018.5z M1583.8,984.5
										l19.1,11l0.3,0.6l7.1,19l10.3-6.2c0.6-0.4,0.9-1.3,0.9-2.5v-44.2c0-3.3-2.4-7.6-5.3-9.3l-58.7-33.9c-1-0.6-2-0.8-2.6-0.5
										l-10.2,6.1l13.2,14l0.1,0.7v24c0,3.3,2.4,7.6,5.3,9.3l9.2,5.4l0.8,1.4c0.3,1.8,2.1,10.3,9.9,17.1c-1.3-3.1-2.4-7-1.8-10.5
										l0.1-0.7L1583.8,984.5z"/>
								</g>
								<g id="XMLID_5001_">
									<path id="XMLID_5005_" class="st20" d="M1605.4,958.9l-58.9-34c-3.2-1.9-5.9-0.4-5.9,3.4v44.4c0,3.7,2.6,8.3,5.9,10.1
										l9.1,5.2c0.2,0.1,0.4,0.4,0.5,0.7c0.4,2.4,2.7,13.1,13.6,20.5c0.4,0.3,0.7-0.1,0.4-0.7c-1.5-2.8-4.3-8.9-3.2-13.6
										c0.1-0.2,0.3-0.3,0.5-0.2l38,21.9c3.2,1.9,5.9,0.4,5.9-3.4v-44.4C1611.2,965.3,1608.6,960.8,1605.4,958.9z"/>
									<path id="XMLID_5002_" d="M1608,1019c-1,0-2.2-0.3-3.3-1l-36.7-21.2c-0.2,4.1,2.1,9.1,3.2,11.2c0.4,0.8,0.3,1.8-0.3,2.3
										c-0.6,0.5-1.4,0.5-2.1,0.1c-11.2-7.6-13.7-18.8-14.2-21.3l-8.9-5.1c-3.7-2.1-6.5-7.1-6.5-11.3v-44.4c0-2.3,0.8-4.1,2.4-4.9
										c1.5-0.9,3.5-0.7,5.5,0.4l58.9,34c3.7,2.1,6.5,7.1,6.5,11.3v44.4c0,2.3-0.8,4.1-2.4,4.9
										C1609.5,1018.8,1608.8,1019,1608,1019z M1567.2,993.6c0.3,0,0.6,0.1,0.9,0.2l38,21.9c1.1,0.6,2.1,0.8,2.8,0.4
										c0.7-0.4,1-1.3,1-2.6v-44.4c0-3.2-2.4-7.4-5.2-9l-58.9-34c-1.1-0.6-2.1-0.8-2.8-0.4c-0.7,0.4-1,1.3-1,2.6v44.4
										c0,3.2,2.4,7.4,5.2,9l9.1,5.2c0.6,0.3,1,0.9,1.1,1.6c0.3,1.8,2.1,10.3,9.9,17.2c-1.3-3.3-2.5-7.5-1.6-11l0.2-0.7l0.8-0.5
										C1566.7,993.6,1566.9,993.6,1567.2,993.6z"/>
								</g>
								<g id="XMLID_4999_">
									<polygon id="XMLID_5000_" points="1608.7,960.7 1606.2,959.3 1617.6,952.2 1619,954.5 									"/>
								</g>
								<g id="XMLID_4997_">
									
										<rect id="XMLID_4998_" x="1552.3" y="923.6" transform="matrix(0.8547 -0.5191 0.5191 0.8547 -253.7615 943.2194)" width="12" height="2.7"/>
								</g>
								<g id="XMLID_4995_">
									
										<rect id="XMLID_4996_" x="1610.2" y="966.7" transform="matrix(0.845 -0.5347 0.5347 0.845 -267.0804 1014.5593)" width="13.4" height="2.7"/>
								</g>
							</g>
						</g>
						<g id="XMLID_4991_">
							<polygon id="XMLID_4992_" points="1622.9,970.6 1611.2,977.7 1611.2,1016.2 1622.5,1010 1622.9,1007.3 							"/>
						</g>
					</g>
				</g>
			</g>
		</g>
		<g id="XMLID_4982_">
			<g id="XMLID_4986_">
				<path id="XMLID_56_" class="st0" d="M1589.4,987.5c-1.4,0-2.9-0.4-4.4-1.3c-5.1-3-9.2-9.9-9.2-15.9c0-3.1,1.1-5.4,3.1-6.5
					c2-1.1,4.5-0.9,7.2,0.6c5.1,3,9.2,9.9,9.2,15.9c0,3.1-1.1,5.4-3.1,6.5C1591.4,987.2,1590.4,987.5,1589.4,987.5z M1581.7,965.3
					c-0.6,0-1.2,0.1-1.7,0.4c-1.3,0.7-2,2.4-2,4.6c0,5.1,3.6,11.4,8,13.9c1.9,1.1,3.7,1.3,5,0.6c1.3-0.7,2-2.4,2-4.6
					c0-5.1-3.6-11.4-8-13.9C1583.8,965.6,1582.7,965.3,1581.7,965.3z"/>
			</g>
			<g id="XMLID_4985_">
				<polygon id="XMLID_55_" class="st0" points="1576.4,971.3 1558.8,961.1 1558.8,964.7 1556.6,964.7 1556.6,957.2 1577.5,969.3 
									"/>
			</g>
			<g id="XMLID_4984_">
				<rect id="XMLID_44_" x="1560.8" y="961.6" class="st0" width="2.2" height="5.5"/>
			</g>
			<g id="XMLID_4983_">
				<rect id="XMLID_2_" x="1564.9" y="964" class="st0" width="2.2" height="5.5"/>
			</g>
		</g>
	</g>
</g>
</svg>
