<?xml version="1.0" encoding="utf-8"?>
<!-- Generator: Adobe Illustrator 26.5.0, SVG Export Plug-In . SVG Version: 6.00 Build 0)  -->
<svg version="1.1" id="Layer_1" xmlns="http://www.w3.org/2000/svg" xmlns:xlink="http://www.w3.org/1999/xlink" x="0px" y="0px"
	 viewBox="0 0 1920 1080" style="enable-background:new 0 0 1920 1080;" xml:space="preserve">
<style type="text/css">
	.st0{fill:#E4E4EA;}
	.st1{fill:#EFEFF4;}
	.st2{fill:#ADA4F7;}
	.st3{fill:#FC8165;}
	.st4{fill:#FFFFFF;}
	.st5{fill:#D2D2DB;}
	.st6{fill:#7C4FD3;}
	.st7{fill:#BEBECC;}
	.st8{fill:#80BAFF;}
	.st9{fill:#50447E;}
	.st10{fill:#AFAFBF;}
	.st11{fill:#EA366E;}
	.st12{fill:#FFAF45;}
	.st13{fill:#C7C7D1;}
	.st14{fill:#C5C5D1;}
	.st15{fill:#BDDEFF;}
	.st16{fill:#9364ED;}
	.st17{font-family:'Comfortaa-Bold';}
	.st18{font-size:200px;}
	.st19{opacity:0.4;}
	.st20{fill:#FAFDF7;}
	.st21{fill:#F5FCEF;}
	.st22{fill:#EFFAE7;}
	.st23{fill:#EAF8DF;}
	.st24{fill:#E5F6D7;}
	.st25{fill:#E0F5D0;}
	.st26{fill:#DAF3C8;}
	.st27{fill:#D5F1C0;}
	.st28{fill:#D0EFB8;}
	.st29{fill:#CBEEB0;}
	.st30{fill:#C6ECA8;}
	.st31{fill:#C0EAA0;}
	.st32{fill:#BBE898;}
	.st33{fill:#B6E790;}
	.st34{fill:#B1E588;}
	.st35{fill:#ABE381;}
	.st36{fill:#A6E179;}
	.st37{fill:#A1E071;}
	.st38{fill:#9CDE69;}
	.st39{fill:#96DC61;}
	.st40{fill:#91DA59;}
	.st41{fill:#8CD951;}
	.st42{fill:#87D749;}
	.st43{fill:#82D541;}
	.st44{fill:#7CD339;}
	.st45{fill:#77D232;}
	.st46{fill:#72D02A;}
	.st47{fill:#6DCE22;}
	.st48{fill:#67CC1A;}
	.st49{fill:#62CB12;}
	.st50{fill:#5DC90A;}
	.st51{fill:#FFF8F7;}
	.st52{fill:#FFF1EF;}
	.st53{fill:#FFEAE8;}
	.st54{fill:#FFE3E0;}
	.st55{fill:#FFDCD8;}
	.st56{fill:#FFD5D0;}
	.st57{fill:#FFCEC9;}
	.st58{fill:#FFC7C1;}
	.st59{fill:#FFC0B9;}
	.st60{fill:#FFB9B1;}
	.st61{fill:#FFB2A9;}
	.st62{fill:#FFABA2;}
	.st63{fill:#FFA49A;}
	.st64{fill:#FF9D92;}
	.st65{fill:#FF968A;}
	.st66{fill:#FF9083;}
	.st67{fill:#FF897B;}
	.st68{fill:#FF8273;}
	.st69{fill:#FF7B6B;}
	.st70{fill:#FF7464;}
	.st71{fill:#FF6D5C;}
	.st72{fill:#FF6654;}
	.st73{fill:#FF5F4C;}
	.st74{fill:#FF5844;}
	.st75{fill:#FF513D;}
	.st76{fill:#FF4A35;}
	.st77{fill:#FF432D;}
	.st78{fill:#FF3C25;}
	.st79{fill:#FF351E;}
	.st80{fill:#FF2E16;}
	.st81{fill:#FF270E;}
	.st82{font-family:'TrebuchetMS';}
	.st83{font-size:186.2154px;}
	.st84{font-size:178.899px;}
	.st85{font-size:132.2443px;}
	.st86{font-size:134.4433px;}
	.st87{font-size:279.2844px;}
	.st88{fill:#B5C5E0;}
	.st89{fill:#F27E64;}
	.st90{fill:#5D2866;}
	.st91{fill:#8988E2;}
	.st92{fill:#FF9280;}
	.st93{fill:#773884;}
	.st94{fill:#EFAE52;}
	.st95{fill:#A49CF2;}
	.st96{fill:#97679B;}
	.st97{fill:#F48462;}
	.st98{fill:#9792E0;}
	.st99{fill:#8B558E;}
	.st100{fill:#F99178;}
	.st101{fill:#C489C9;}
	.st102{fill:#9B4EA8;}
	.st103{fill:#FFA98F;}
	.st104{fill:#A5ACAF;}
	.st105{fill:#51215B;}
	.st106{fill:#968BD6;}
	.st107{fill:#C4CBCE;}
	.st108{fill:#B4C3E3;}
</style>
<rect width="1920" height="1080"/>
<text transform="matrix(1 0 0 1 658.3047 561.4504)" class="st4 st17 st18">Demo</text>
<g>
	<g transform="matrix(0.893065,0,0,0.938031,1285.39,-251.161)">
		<text transform="matrix(1.0661 0 0 1.0661 -167.3665 1132.8473)" class="st4 st82 st83">W</text>
		<text transform="matrix(1.0661 0 0 1.0661 -167.3665 1132.8473)" class="st4 st82 st83">W</text>
	</g>
	<g transform="matrix(-0.887358,-0.0063351,0.00623811,-0.901154,2804.84,1284.82)">
		<text transform="matrix(1.1097 0 0 1.1097 1713.9619 515.2917)" class="st4 st82 st84">W</text>
		<text transform="matrix(1.1097 0 0 1.1097 1713.9619 515.2917)" class="st4 st82 st84">W</text>
	</g>
	<g transform="matrix(0.642203,0,0,0.66616,1122.73,341.369)">
		<text transform="matrix(1.5011 0 0 1.5011 259.8014 851.7767)" class="st4 st82 st85">A</text>
		<text transform="matrix(1.5011 0 0 1.5011 259.8014 851.7767)" class="st4 st82 st85">A</text>
		<text transform="matrix(1.5011 0 0 1.5011 357.6047 851.7767)" class="st4 st82 st85">T</text>
		<text transform="matrix(1.5011 0 0 1.5011 357.6047 851.7767)" class="st4 st82 st85">T</text>
		<text transform="matrix(1.5011 0 0 1.5011 472.8589 851.7767)" class="st4 st82 st85">E</text>
		<text transform="matrix(1.5011 0 0 1.5011 472.8589 851.7767)" class="st4 st82 st85">E</text>
	</g>
	<g transform="matrix(0.695821,0,0,0.837311,1481.42,197.942)">
		<text transform="matrix(1.1943 0 0 1.1943 -277.2104 725.8621)" class="st4 st82 st86">ORD</text>
		<text transform="matrix(1.1943 0 0 1.1943 -277.2104 725.8621)" class="st4 st82 st86">ORD</text>
	</g>
	<g transform="matrix(0.714979,0,0,1.00701,769.095,-22.8082)">
		<text transform="matrix(0.993 0 0 0.993 -30.399 924.9372)" class="st4 st82 st87">P</text>
		<text transform="matrix(0.993 0 0 0.993 92.7198 924.9372)" class="st4 st82 st87">A</text>
		<text transform="matrix(0.993 0 0 0.993 256.3064 924.9372)" class="st4 st82 st87">S</text>
		<text transform="matrix(0.993 0 0 0.993 389.695 924.9372)" class="st4 st82 st87">S</text>
	</g>
	<g transform="translate(0.000000,512.000000) scale(0.100000,-0.100000)">
		<g>
			<path class="st4" d="M4854.2-1645.9c-41-10.3-71.8-27.8-103.1-59.1c-86.5-86-86.5-221.3,0.5-307.8
				c59.6-60.1,145.6-80.6,224.7-53.3l23.5,7.8l83.5-83.5l83.5-83.5h74.3h73.8l-11.2-36.6c-6.4-20.5-14.2-53.3-17.6-73.3l-5.9-36.6
				h-83.5h-83.5L5101-2346c-14.7,31.3-62.5,80.1-94.3,95.8c-89.9,43.5-186.1,28.3-255.5-41c-86.5-86-86.5-221.3,0.5-307.8
				c84.5-85,214-87.5,303.4-5.9c15.1,13.7,31.8,35.7,41.5,54.7l16.6,31.8h83.5h83.5l6.4-35.2c3.4-19.5,10.7-52.8,17.1-73.3
				l10.7-38.1h-73.8h-73.8l-83.5-83.5l-83.5-83.5l-23.5,7.8c-79.2,27.4-165.1,6.8-224.7-53.3c-87-86.5-87-221.3,0-307.8
				c66.9-66.9,166.1-84,250.6-42.5c97.2,47.4,145.6,164.7,110.4,267.3l-7.8,23.5l62.5,62.5l63,63h78.7h78.2l31.3-39.1
				c63-80.1,153.4-151,247.7-193.5l47.9-21.5l1.5-537.4l1-537.4h219.9h219.9v73.3v73.3h73.3h73.3v366.4v366.4h-73.3h-73.3v98.2v97.7
				l14.7,5.4c95.3,33.2,213.5,120.2,283.4,208.6l31.3,39.6h78.2h78.7l63-63l62.5-62.5l-7.8-23.5c-27.4-79.2-6.8-165.1,53.3-224.7
				c126.1-126.5,339.6-57.7,369.9,119.2c11.7,68.9-10.7,137.3-62.1,188.6c-59.6,60.1-145.6,80.6-224.7,53.3l-23.5-7.8l-83.5,83.5
				L6706-2665h-73.8h-73.8l10.7,38.1c6.4,20.5,13.7,53.7,17.1,73.3l6.4,35.2h83.5h83.5l11.7-25.4c14.7-31.8,62.5-80.1,94.8-96.3
				c67.9-32.7,134.8-32.7,200.8,0.5c83.1,42,131.9,137.3,116.3,228.2c-8.3,48.9-27.4,86-62.1,120.2c-68.9,69.4-164.7,84.5-255,41
				c-31.8-15.1-80.1-64.5-94.8-95.8l-11.7-25.9h-83.5h-83.5l-5.9,36.6c-3.4,20-11.2,52.8-17.6,73.3l-11.2,36.6h73.8h74.3l83.5,83.5
				l83.5,83.5l23.5-7.8c101.1-34.7,214,10.3,263.3,104.1c45.9,87.9,31.3,187.6-38.6,257.5c-86,86.5-220.8,86.5-308.3-0.5
				c-59.6-59.6-80.1-145.1-52.8-224.7l7.8-23.5l-62.5-62.5l-63-63h-78.7h-78.7l-24.4,33.2c-55.7,74.3-161.2,159.3-246.2,198.4
				c-47.4,21.5-118.7,44-165.6,52.3c-53.7,9.8-182.7,8.8-234.5-2c-52.3-10.7-109-29.3-156.3-50.8c-84-38.1-190.1-123.6-245.8-197.9
				l-24.4-33.2h-78.7h-78.7l-63,63l-62.5,62.5l7.8,23.5c27.4,79.2,6.8,164.7-53.3,225.2C5004.7-1649.3,4928-1627.3,4854.2-1645.9z
				 M4939.7-1795.4c22-11.2,39.1-39.1,39.1-63.5c0-37.1-36.2-73.3-73.8-73.3c-22.5,0-52.8,19.1-63.5,40.1
				c-18.1,35.2-6.8,73.8,27.8,94.8C4892.8-1783.1,4914.3-1782.7,4939.7-1795.4z M7001.5-1795.4c22-11.2,39.1-39.1,39.1-63.5
				c0-37.1-36.2-73.3-73.8-73.3c-22.5,0-52.8,19.1-63.5,40.1c-18.1,35.2-6.8,73.8,27.8,94.8
				C6954.6-1783.1,6976.1-1782.7,7001.5-1795.4z M6053.7-1945.8c96.7-25.4,178.3-71.3,244.8-137.3
				c133.4-133.9,183.7-334.2,128-510.6c-54.7-173.4-186.1-297.5-368.4-347.4l-48.4-13.2V-3181v-226.7h73.3h73.3v-73.3v-73.3H6083
				h-73.3v-73.3v-73.3h73.3h73.3v-73.3v-73.3H6083h-73.3v-73.3v-73.3h-73.3h-73.3v520.3v519.9l-20.5,5.4
				c-87.9,22.5-133.4,41.5-193,81.1c-202.3,134.8-280,396.7-184.7,622.9c66.9,158.8,223.3,280.4,395.8,307.3
				C5906.1-1930.2,6011.2-1935.1,6053.7-1945.8z M4939.7-2381.7c22-11.2,39.1-39.1,39.1-63.5c0-37.1-36.2-73.3-73.8-73.3
				c-22.5,0-52.8,19.1-63.5,40.1c-18.1,35.2-6.8,73.8,27.8,94.8C4892.8-2369.4,4914.3-2369,4939.7-2381.7z M7001.5-2381.7
				c22-11.2,39.1-39.1,39.1-63.5c0-37.1-36.2-73.3-73.8-73.3c-22.5,0-52.8,19.1-63.5,40.1c-18.1,35.2-6.8,73.8,27.8,94.8
				C6954.6-2369.4,6976.1-2369,7001.5-2381.7z M4939.7-2968c22-11.2,39.1-39.1,39.1-63.5c0-37.1-36.2-73.3-73.8-73.3
				c-22.5,0-52.8,19.1-63.5,40.1c-18.1,35.2-6.8,73.8,27.8,94.8C4892.8-2955.7,4914.3-2955.3,4939.7-2968z M7001.5-2968
				c22-11.2,39.1-39.1,39.1-63.5c0-37.1-36.2-73.3-73.8-73.3c-22.5,0-52.8,19.1-63.5,40.1c-18.1,35.2-6.8,73.8,27.8,94.8
				C6954.6-2955.7,6976.1-2955.3,7001.5-2968z"/>
			<path class="st4" d="M5884.7-2124.8c-41-10.3-71.8-27.8-103.1-59.1c-86.5-86-86.5-221.3,0.5-307.8
				c126.1-126.5,339.6-57.7,369.9,119.2c11.7,68.9-10.7,137.3-62.1,189.1C6035.2-2128.3,5958.4-2106.3,5884.7-2124.8z
				 M5970.2-2274.4c22-11.2,39.1-39.1,39.1-63.5c0-37.1-36.2-73.3-73.8-73.3c-22.5,0-52.8,19.1-63.5,40.1
				c-18.1,35.2-6.8,73.8,27.8,94.8C5923.3-2262.1,5944.8-2261.7,5970.2-2274.4z"/>
		</g>
	</g>
</g>
</svg>
