<?xml version="1.0" encoding="utf-8"?>
<!-- Generator: Adobe Illustrator 26.5.0, SVG Export Plug-In . SVG Version: 6.00 Build 0)  -->
<svg version="1.1" id="Layer_1" xmlns="http://www.w3.org/2000/svg" xmlns:xlink="http://www.w3.org/1999/xlink" x="0px" y="0px"
	 viewBox="0 0 1920 1080" style="enable-background:new 0 0 1920 1080;" xml:space="preserve">
<style type="text/css">
	.st0{fill:#E4E4EA;}
	.st1{fill:#EFEFF4;}
	.st2{fill:#ADA4F7;}
	.st3{fill:#FC8165;}
	.st4{fill:#FFFFFF;}
	.st5{fill:#D2D2DB;}
	.st6{fill:#7C4FD3;}
	.st7{fill:#BEBECC;}
	.st8{fill:#80BAFF;}
	.st9{fill:#50447E;}
	.st10{fill:#AFAFBF;}
	.st11{fill:#EA366E;}
	.st12{fill:#FFAF45;}
	.st13{fill:#C7C7D1;}
	.st14{fill:#C5C5D1;}
	.st15{fill:#BDDEFF;}
	.st16{fill:#9364ED;}
	.st17{font-family:'Comfortaa-Bold';}
	.st18{font-size:100px;}
	.st19{opacity:0.4;}
	.st20{fill:#FAFDF7;}
	.st21{fill:#F5FCEF;}
	.st22{fill:#EFFAE7;}
	.st23{fill:#EAF8DF;}
	.st24{fill:#E5F6D7;}
	.st25{fill:#E0F5D0;}
	.st26{fill:#DAF3C8;}
	.st27{fill:#D5F1C0;}
	.st28{fill:#D0EFB8;}
	.st29{fill:#CBEEB0;}
	.st30{fill:#C6ECA8;}
	.st31{fill:#C0EAA0;}
	.st32{fill:#BBE898;}
	.st33{fill:#B6E790;}
	.st34{fill:#B1E588;}
	.st35{fill:#ABE381;}
	.st36{fill:#A6E179;}
	.st37{fill:#A1E071;}
	.st38{fill:#9CDE69;}
	.st39{fill:#96DC61;}
	.st40{fill:#91DA59;}
	.st41{fill:#8CD951;}
	.st42{fill:#87D749;}
	.st43{fill:#82D541;}
	.st44{fill:#7CD339;}
	.st45{fill:#77D232;}
	.st46{fill:#72D02A;}
	.st47{fill:#6DCE22;}
	.st48{fill:#67CC1A;}
	.st49{fill:#62CB12;}
	.st50{fill:#5DC90A;}
	.st51{fill:#FFF8F7;}
	.st52{fill:#FFF1EF;}
	.st53{fill:#FFEAE8;}
	.st54{fill:#FFE3E0;}
	.st55{fill:#FFDCD8;}
	.st56{fill:#FFD5D0;}
	.st57{fill:#FFCEC9;}
	.st58{fill:#FFC7C1;}
	.st59{fill:#FFC0B9;}
	.st60{fill:#FFB9B1;}
	.st61{fill:#FFB2A9;}
	.st62{fill:#FFABA2;}
	.st63{fill:#FFA49A;}
	.st64{fill:#FF9D92;}
	.st65{fill:#FF968A;}
	.st66{fill:#FF9083;}
	.st67{fill:#FF897B;}
	.st68{fill:#FF8273;}
	.st69{fill:#FF7B6B;}
	.st70{fill:#FF7464;}
	.st71{fill:#FF6D5C;}
	.st72{fill:#FF6654;}
	.st73{fill:#FF5F4C;}
	.st74{fill:#FF5844;}
	.st75{fill:#FF513D;}
	.st76{fill:#FF4A35;}
	.st77{fill:#FF432D;}
	.st78{fill:#FF3C25;}
	.st79{fill:#FF351E;}
	.st80{fill:#FF2E16;}
	.st81{fill:#FF270E;}
	.st82{fill:#B5C5E0;}
	.st83{fill:#F27E64;}
	.st84{fill:#5D2866;}
	.st85{fill:#8988E2;}
	.st86{fill:#FF9280;}
	.st87{fill:#773884;}
	.st88{fill:#EFAE52;}
	.st89{fill:#A49CF2;}
	.st90{fill:#97679B;}
	.st91{fill:#F48462;}
	.st92{fill:#9792E0;}
	.st93{fill:#8B558E;}
	.st94{fill:#F99178;}
	.st95{fill:#C489C9;}
	.st96{fill:#9B4EA8;}
	.st97{fill:#FFA98F;}
	.st98{fill:#A5ACAF;}
	.st99{fill:#51215B;}
	.st100{fill:#968BD6;}
	.st101{fill:#C4CBCE;}
	.st102{fill:#B4C3E3;}
</style>
<rect width="1920" height="1080"/>
<text transform="matrix(1 0 0 1 699.4292 426.9805)" class="st4 st17 st18">Questions?</text>
<text transform="matrix(1 0 0 1 574.4731 675.981)"><tspan x="0" y="0" class="st4 st17 st18">Thank you        </tspan><tspan x="-255" y="120" class="st4 st17 st18">for organizing this event</tspan></text>
<image style="overflow:visible;" width="800" height="443" xlink:href="C:\Users\norma\Pictures\baselhack_white.png"  transform="matrix(0.375 0 0 0.375 1154 558)">
</image>
<g>
	<g>
		<g>
			<polygon class="st91" points="254.5,986.6 239.2,964.3 292.5,928.4 315.8,948.5 280.1,990.2 			"/>
		</g>
	</g>
	<g>
		<g>
			<polygon class="st91" points="151,967.9 151.7,1006.7 83.1,1006 86,964.3 			"/>
		</g>
	</g>
	<g>
		<g>
			<path class="st84" d="M245.3,1062.5c1.5-0.2,2.5-1.7,2.2-3.2c-1.2-7.4-5.7-28-17.4-36.8c-14.4-10.8-44.5-15.1-55.4-22.3
				c-10.9-7.2-23.2-24.5-29.7-21.2c-6.5,3.3-18.8,18.4-36.6,16.2s-26-6.5-30.8-2.2c-4.8,4.3-7.5,64.6-5.5,68.2
				c2.1,3.6,27.1,0.3,29.3,0.9c2.2,0.6,8.3-13.8,12.4-11.6c4.1,2.2,9.1,8.9,15.2,12C134.7,1065.4,227.4,1064.9,245.3,1062.5z"/>
		</g>
	</g>
	<g>
		<g>
			<path class="st92" d="M195.5,751l-8.8-164.5l-107.2-0.7c0,0-13.1,42.4-16.8,83.3C59.1,710,49.6,970,51,973.6s120.4,7.9,127.7,3.6
				C186,972.9,195.5,751,195.5,751z"/>
		</g>
	</g>
	<g>
		<g>
			<path class="st84" d="M427,949.4c1.1-1,1.1-2.8,0-3.9c-5.3-5.4-20.7-20.1-35.5-20.8c-18.1-0.9-45.8,12.3-59,12.4
				c-13.2,0.2-33.4-7.4-37-1s-5.3,25.7-21.4,33.8c-16.1,8.1-25.4,9.1-27,15.4s30.5,57.7,34.3,59.6s22.8-14.9,25-15.6
				c2.2-0.7-0.9-16.1,3.8-16.6c4.7-0.5,12.7,2.3,19.5,1.5C336.1,1013.4,413.4,961.3,427,949.4z"/>
		</g>
	</g>
	<g>
		<g>
			<path class="st92" d="M205.7,585.1c0,0,126.2,326.8,124.7,334c-1.5,7.2-97.7,58.2-103.6,58.2c-5.8,0-48.1-74-48.1-74l-5.1-317.5
				L205.7,585.1z"/>
		</g>
	</g>
	<g>
		<path class="st4" d="M151.7,1007.6c-0.3,0-0.6-0.1-0.8-0.4c-0.3-0.4-0.2-1,0.2-1.3l16.7-11.5c0.4-0.3,1-0.2,1.3,0.2
			c0.3,0.4,0.2,1-0.2,1.3l-16.7,11.5C152.1,1007.6,151.9,1007.6,151.7,1007.6z"/>
	</g>
	<g>
		<path class="st4" d="M168.3,1014.4c-0.3,0-0.6-0.1-0.7-0.4c-0.3-0.4-0.2-1,0.2-1.3l13.1-9.9c0.4-0.3,1-0.2,1.3,0.2
			c0.3,0.4,0.2,1-0.2,1.3l-13.1,9.9C168.7,1014.3,168.5,1014.4,168.3,1014.4z"/>
	</g>
	<g>
		<path class="st4" d="M317.6,955.5c-0.2,0-0.4,0-0.5-0.2c-0.4-0.3-0.6-0.9-0.3-1.3l11-17c0.3-0.4,0.9-0.6,1.3-0.3
			c0.4,0.3,0.6,0.9,0.3,1.3l-11,17C318.2,955.3,317.9,955.5,317.6,955.5z"/>
	</g>
	<g>
		<path class="st4" d="M339.7,950.6c-0.2,0-0.3,0-0.5-0.1c-0.4-0.3-0.6-0.8-0.3-1.3l8.3-14.1c0.3-0.5,0.8-0.6,1.3-0.3
			c0.4,0.3,0.6,0.8,0.3,1.3l-8.3,14.1C340.3,950.4,340,950.6,339.7,950.6z"/>
	</g>
	<g>
		<path class="st93" d="M88.3,631.2c-1.7,0-3.5-0.2-5.4-0.6c-0.5-0.1-0.8-0.6-0.7-1.1c0.1-0.5,0.6-0.8,1.1-0.7
			c20.3,4.7,33.1-21.4,33.2-21.6c0.2-0.5,0.8-0.7,1.3-0.4c0.5,0.2,0.7,0.8,0.4,1.3C118.1,608.1,106.8,631.2,88.3,631.2z"/>
	</g>
	<g>
		<path class="st93" d="M77.9,977.7c-0.5,0-0.9-0.4-0.9-1c0-1.3,1.4-130.9,5.2-207.7c3.8-76.8,12.4-139.6,12.5-140.2
			c0.1-0.5,0.6-0.9,1.1-0.8c0.5,0.1,0.9,0.5,0.8,1.1c-0.1,0.6-8.6,63.3-12.4,140.1c-3.8,76.8-5.2,206.4-5.2,207.7
			C78.8,977.3,78.4,977.7,77.9,977.7z"/>
	</g>
	<g>
		<path class="st93" d="M186.3,917.3c-0.5,0-0.9-0.4-0.9-0.9l-12.7-267.5c0-0.3,0.1-0.6,0.4-0.8l28.3-18.7c0.4-0.3,1-0.2,1.3,0.3
			c0.3,0.4,0.2,1-0.3,1.3l-27.8,18.4l12.7,266.9C187.3,916.8,186.9,917.3,186.3,917.3C186.3,917.3,186.3,917.3,186.3,917.3z"/>
	</g>
	<g>
		<path class="st93" d="M247.6,965.2c-0.3,0-0.6-0.2-0.8-0.5l-64.2-109.4c-0.3-0.4-0.1-1,0.3-1.3c0.4-0.3,1-0.1,1.3,0.3l64.2,109.4
			c0.3,0.4,0.1,1-0.3,1.3C247.9,965.2,247.8,965.2,247.6,965.2z"/>
	</g>
	<g>
		<path class="st88" d="M153.4,408.9c0,0,27.3,1.2,38.1,23.1c10.8,21.9,19,152.1,19,152.1s-30.3,13.4-74.4,12.8
			c-44.1-0.6-59.1-12-59.1-12l-8.5-80.3c0,0,3.5-84.7,14.6-90.6C94.1,408,135.2,404.2,153.4,408.9z"/>
	</g>
	<g>
		<path d="M153.2,339c0,0,13.9-26.9,0.8-31.7s-27.5,10.3-27.5,10.3s-28.4,4.2-38.3,20.1c-9.9,15.9,18.3,41.1,18.3,41.1L153.2,339z"
			/>
	</g>
	<g>
		<g>
			<path class="st91" d="M111.9,384.4l-0.1,26.4c0,0,4.7,7.6,20.2,8.9c11.5,1,15.6-1.6,15.6-1.6l-1.6-13.4l-1.5-13l-27.9-6.2
				L111.9,384.4z"/>
		</g>
	</g>
	<g>
		<g>
			<path d="M116.5,385.4c0.1,0.7,0.3,1.6,0.8,2.5c5.9,13.2,22,16.1,28.7,16.7l-1.5-13L116.5,385.4z"/>
		</g>
	</g>
	<g>
		<g>
			<path class="st91" d="M150.5,331.5c0,0,13.8,33.1,8.2,51.5c-5.5,18.4-22.3,15.2-32.3,11.4c-10-3.8-14.6-10-14.6-10
				s-9.5,3-15.6-5.8c-6.1-8.9-2.1-18.8,3.3-21s11.7,1.8,11.7,1.8l-4.8-9.6C106.5,349.7,128.5,301.5,150.5,331.5z"/>
		</g>
	</g>
	<g>
		<path d="M110.3,373.4c-0.2,0-0.4-0.1-0.6-0.2l-11.9-8.6c-0.4-0.3-0.5-0.9-0.2-1.3c0.3-0.4,0.9-0.5,1.3-0.2l11.9,8.6
			c0.4,0.3,0.5,0.9,0.2,1.3C110.9,373.3,110.6,373.4,110.3,373.4z"/>
	</g>
	<g>
		<path d="M99.5,373.3c-0.4,0-0.8-0.3-0.9-0.7c-0.1-0.5,0.2-1,0.7-1.1l7.8-2c0.5-0.1,1,0.2,1.1,0.7c0.1,0.5-0.2,1-0.7,1.1l-7.8,2
			C99.6,373.3,99.6,373.3,99.5,373.3z"/>
	</g>
	<g>
		<path d="M149.4,369.2c-0.7-0.1-1-0.6-0.9-1.1c1.2-7.9-3.8-12.2-4-12.4c-0.4-0.3-0.5-0.9-0.1-1.3c0.3-0.4,0.9-0.5,1.3-0.1
			c0.3,0.2,6.1,5.1,4.7,14.1C150.3,368.9,149.9,369.2,149.4,369.2z"/>
	</g>
	<g>
		<path d="M153.8,355.9c-0.4,0-0.8-0.3-0.9-0.7l-1.6-6.1c-0.1-0.5,0.2-1,0.7-1.2c0.5-0.1,1,0.2,1.2,0.7l1.6,6.1
			c0.1,0.5-0.2,1-0.7,1.2C153.9,355.9,153.9,355.9,153.8,355.9z"/>
	</g>
	<g>
		<path d="M137.1,357c-0.4,0-0.8-0.3-0.9-0.7l-1.6-6.1c-0.1-0.5,0.2-1,0.7-1.2c0.5-0.1,1,0.2,1.2,0.7l1.6,6.1c0.1,0.5-0.2,1-0.7,1.2
			C137.2,357,137.2,357,137.1,357z"/>
	</g>
	<g>
		<path d="M153.2,339c0,0-2.9-5.3-9.4-5.4c-6.6-0.1-10.4,4.6-10.4,4.6s2.9,11.1-6.1,17c-9,5.9-15.9,4.2-15.9,4.2l-6.5-2.3l-4.7-9.5
			l18.8-20.2l24.4-12.8l12.4,11.3L153.2,339z"/>
	</g>
	<g>
		<path d="M126.5,317.6c0,0-0.8-14.6-16.2-8.2s-14.2,26.4-14.2,26.4L126.5,317.6z"/>
	</g>
	<g>
		<path d="M154.5,340.1c-0.1,0-5.1-0.5-5.1-0.5c-0.5,0-0.9-0.5-0.8-1c0-0.5,0.5-0.9,1-0.8l5,0.5c0.5,0,0.9,0.5,0.8,1
			C155.3,339.8,154.9,340.1,154.5,340.1z"/>
	</g>
	<g>
		<path d="M131.9,347c-0.4,0-0.7-0.2-0.9-0.6c-0.2-0.5,0-1,0.5-1.2l6.8-2.9c0.5-0.2,1,0,1.2,0.5c0.2,0.5,0,1-0.5,1.2l-6.8,2.9
			C132.1,347,132,347,131.9,347z"/>
	</g>
	<g>
		<path d="M151.9,378.1c-0.2,0-0.3,0-0.5-0.1c-0.4-0.3-0.6-0.9-0.3-1.3l3.7-5.9c0.3-0.4,0.9-0.6,1.3-0.3c0.4,0.3,0.6,0.9,0.3,1.3
			l-3.7,5.9C152.6,378,152.3,378.1,151.9,378.1z"/>
	</g>
	<g>
		<path class="st88" d="M100.1,409.3c0,0-40.7,0-63,65.1c-13.6,39.6-8.1,70.5-8.1,70.5l69.6-26.1L100.1,409.3z"/>
	</g>
	<g>
		<path class="st91" d="M190.7,515.7c0,0-3.2-20.8-7.2-39.5c-4-18.6-8.6-46.8-8.6-46.8l20.3-23.9c0,0,40.8,48,51.5,92.7
			c10.7,44.7,2.8,58.3-20,55.6C199.6,550.5,190.7,515.7,190.7,515.7z"/>
	</g>
	<g>
		<path class="st94" d="M38.5,541.1c0,0,5.7,34.3,54.7,37.7c39.3,2.7,105.2-17.5,105.2-17.5s31.2,0.5,39.7-3.4
			c8.5-3.9,9.6-9.2,9.6-9.2s5.8-5.5,5.5-8.5c-0.3-3-3.6-16.5-3.6-16.5s4.7-11.2,0.4-11.7c-4.3-0.6-11.7-1.6-11.7-1.6
			s-13.9-6.1-19.9-4.4c-6,1.7-21.9,16.4-21.9,16.4l-97.8-3.5L38.5,541.1z"/>
	</g>
	<g>
		<path class="st4" d="M98.6,519.7c-0.5,0-0.9-0.4-0.9-0.9l-0.1-28.2c0-0.5,0.4-0.9,0.9-0.9c0.5,0,0.9,0.4,0.9,0.9l0.1,28.2
			C99.5,519.2,99.1,519.7,98.6,519.7C98.6,519.7,98.6,519.7,98.6,519.7z"/>
	</g>
	<g>
		<path class="st4" d="M134.7,420.6c-1.6,0-3.3-0.1-5.1-0.2c-14.2-1-20.6-10.2-20.8-10.6c-0.3-0.4-0.2-1,0.3-1.3
			c0.4-0.3,1-0.2,1.3,0.2c0.1,0.1,6.2,8.9,19.4,9.8c13.3,0.9,18.3-2,18.3-2c0.4-0.3,1-0.1,1.3,0.3c0.3,0.4,0.1,1-0.3,1.3
			C148.9,418.2,144.9,420.6,134.7,420.6z"/>
	</g>
	<g>
		<path class="st91" d="M195.2,405.5c0,0-12-42.4-18.3-41.6c-6.3,0.7-18.7,13.3-21.3,17.9c-2.5,4.6,0,10.4,0,10.4s-2.5,3.1,0,5.1
			c2.5,2,9.6-2.2,9.6-2.2s-6.3,31.4,12.1,35.1C195.7,434,195.2,405.5,195.2,405.5z"/>
	</g>
	<g>
		<path d="M218.3,513.8c-0.4,0-0.8-0.3-0.9-0.7c-0.1-0.5,0.1-1,0.6-1.2l15.2-4.5c0.5-0.1,1,0.1,1.2,0.6c0.1,0.5-0.1,1-0.6,1.2
			l-15.2,4.5C218.4,513.8,218.3,513.8,218.3,513.8z"/>
	</g>
	<g>
		<path d="M245.4,524.2c-0.3,0-0.7-0.2-0.8-0.5c-0.2-0.5-0.1-1,0.4-1.3l5.3-2.9c0.5-0.3,1-0.1,1.3,0.4c0.2,0.5,0.1,1-0.4,1.3
			l-5.3,2.9C245.7,524.2,245.5,524.2,245.4,524.2z"/>
	</g>
	<g>
		<path d="M155.7,390.6c-0.3,0-0.6-0.1-0.7-0.4c-0.3-0.4-0.2-1,0.2-1.3l13.7-10.8c0.4-0.3,1-0.2,1.3,0.2c0.3,0.4,0.2,1-0.2,1.3
			l-13.7,10.8C156.1,390.5,155.9,390.6,155.7,390.6z"/>
	</g>
	<g>
		<path d="M157.7,379.8c-0.3,0-0.6-0.2-0.8-0.4c-0.3-0.4-0.2-1,0.3-1.3l11.7-7.6c0.4-0.3,1-0.2,1.3,0.3c0.3,0.4,0.2,1-0.3,1.3
			l-11.7,7.6C158.1,379.8,157.9,379.8,157.7,379.8z"/>
	</g>
	<g>
		<path class="st95" d="M340.8,192c0-17-13.8-30.8-30.8-30.8c-7.6,0-14.5,2.7-19.8,7.2c0.6-2.3,0.9-4.7,0.9-7.2
			c0-17-13.8-30.8-30.8-30.8c-11.1,0-20.8,5.9-26.2,14.7c-5.4-8.8-15.1-14.7-26.2-14.7c-17,0-30.8,13.8-30.8,30.8
			c0,6,1.7,11.6,4.7,16.3c-2.9-0.9-6-1.4-9.2-1.4c-17,0-30.8,13.8-30.8,30.8c0,17,13.8,30.8,30.8,30.8c1.4,0,2.9-0.1,4.3-0.3
			c-2.7,4.6-4.3,9.9-4.3,15.6c0,17,13.8,30.8,30.8,30.8c11.1,0,20.8-5.9,26.2-14.6c5.2,9.8,15.4,16.5,27.3,16.5
			c16.1,0,29.3-12.3,30.7-28.1c5.1,3.8,11.4,6.1,18.3,6.1c17,0,30.8-13.8,30.8-30.8c0-6.8-2.2-13-5.9-18.1
			C336.9,209.1,340.8,201,340.8,192z"/>
	</g>
	<g>
		<circle class="st95" cx="219.2" cy="305.6" r="10.7"/>
	</g>
	<g>
		
			<ellipse transform="matrix(0.2279 -0.9737 0.9737 0.2279 -176.064 438.1504)" class="st95" cx="188.2" cy="330.1" rx="8.2" ry="8.2"/>
	</g>
	<g>
		<g>
			<path class="st96" d="M271.1,198.3c1.4-5.1-2-9.8-9.1-11.8c-6.8-1.9-12.4-0.7-16.9,2.9l-7.3-8.2c7.1-5.5,16.5-7.5,27.9-4.3
				c13.5,3.7,20.8,12.4,17.8,22.9c-4.1,14.9-20.2,12-23.2,22.8l-11.6-3.2C252.6,205.8,268.6,207.4,271.1,198.3z M243.2,233.7
				c1.1-3.9,5-6.2,9.3-5c4.2,1.2,6.4,5.1,5.3,9.1c-1.1,3.9-5,6.3-9.2,5.1C244.3,241.7,242.1,237.6,243.2,233.7z"/>
		</g>
	</g>
	<g>
		<g>
			<path class="st96" d="M219.2,201.8c-1.1-3.7-5-5.4-10.2-3.9c-5,1.4-8,4.3-9.5,8.2l-7.7-2.4c2.3-6.2,7.5-10.9,15.8-13.3
				c9.8-2.8,17.7-0.2,19.9,7.5c3.1,10.9-8.1,15.2-5.8,23.1l-8.5,2.4C210.5,213.5,221.1,208.5,219.2,201.8z M215.3,234.5
				c-0.8-2.9,0.7-5.8,3.9-6.7c3.1-0.9,5.9,0.8,6.7,3.7c0.8,2.9-0.7,5.8-3.8,6.7C219,239.1,216.1,237.4,215.3,234.5z"/>
		</g>
	</g>
</g>
</svg>
