<?xml version="1.0" encoding="utf-8"?>
<!-- Generator: Adobe Illustrator 26.5.0, SVG Export Plug-In . SVG Version: 6.00 Build 0)  -->
<svg version="1.1" id="Layer_1" xmlns="http://www.w3.org/2000/svg" xmlns:xlink="http://www.w3.org/1999/xlink" x="0px" y="0px"
	 viewBox="0 0 1920 1080" style="enable-background:new 0 0 1920 1080;" xml:space="preserve">
<style type="text/css">
	.st0{fill:#E4E4EA;}
	.st1{fill:#EFEFF4;}
	.st2{fill:#ADA4F7;}
	.st3{fill:#FC8165;}
	.st4{fill:#FFFFFF;}
	.st5{fill:#D2D2DB;}
	.st6{fill:#7C4FD3;}
	.st7{fill:#BEBECC;}
	.st8{fill:#80BAFF;}
	.st9{fill:#50447E;}
	.st10{fill:#AFAFBF;}
	.st11{fill:#EA366E;}
	.st12{fill:#FFAF45;}
	.st13{fill:#C7C7D1;}
	.st14{fill:#C5C5D1;}
	.st15{fill:#BDDEFF;}
	.st16{fill:#9364ED;}
	.st17{font-family:'Comfortaa-Bold';}
	.st18{font-size:100px;}
	.st19{fill:#B5C5E0;}
	.st20{font-size:50px;}
	.st21{opacity:0.4;}
	.st22{fill:#FAFDF7;}
	.st23{fill:#F5FCEF;}
	.st24{fill:#EFFAE7;}
	.st25{fill:#EAF8DF;}
	.st26{fill:#E5F6D7;}
	.st27{fill:#E0F5D0;}
	.st28{fill:#DAF3C8;}
	.st29{fill:#D5F1C0;}
	.st30{fill:#D0EFB8;}
	.st31{fill:#CBEEB0;}
	.st32{fill:#C6ECA8;}
	.st33{fill:#C0EAA0;}
	.st34{fill:#BBE898;}
	.st35{fill:#B6E790;}
	.st36{fill:#B1E588;}
	.st37{fill:#ABE381;}
	.st38{fill:#A6E179;}
	.st39{fill:#A1E071;}
	.st40{fill:#9CDE69;}
	.st41{fill:#96DC61;}
	.st42{fill:#91DA59;}
	.st43{fill:#8CD951;}
	.st44{fill:#87D749;}
	.st45{fill:#82D541;}
	.st46{fill:#7CD339;}
	.st47{fill:#77D232;}
	.st48{fill:#72D02A;}
	.st49{fill:#6DCE22;}
	.st50{fill:#67CC1A;}
	.st51{fill:#62CB12;}
	.st52{fill:#5DC90A;}
	.st53{fill:#FFF8F7;}
	.st54{fill:#FFF1EF;}
	.st55{fill:#FFEAE8;}
	.st56{fill:#FFE3E0;}
	.st57{fill:#FFDCD8;}
	.st58{fill:#FFD5D0;}
	.st59{fill:#FFCEC9;}
	.st60{fill:#FFC7C1;}
	.st61{fill:#FFC0B9;}
	.st62{fill:#FFB9B1;}
	.st63{fill:#FFB2A9;}
	.st64{fill:#FFABA2;}
	.st65{fill:#FFA49A;}
	.st66{fill:#FF9D92;}
	.st67{fill:#FF968A;}
	.st68{fill:#FF9083;}
	.st69{fill:#FF897B;}
	.st70{fill:#FF8273;}
	.st71{fill:#FF7B6B;}
	.st72{fill:#FF7464;}
	.st73{fill:#FF6D5C;}
	.st74{fill:#FF6654;}
	.st75{fill:#FF5F4C;}
	.st76{fill:#FF5844;}
	.st77{fill:#FF513D;}
	.st78{fill:#FF4A35;}
	.st79{fill:#FF432D;}
	.st80{fill:#FF3C25;}
	.st81{fill:#FF351E;}
	.st82{fill:#FF2E16;}
	.st83{fill:#FF270E;}
	.st84{fill:#F27E64;}
	.st85{fill:#5D2866;}
	.st86{fill:#8988E2;}
	.st87{fill:#FF9280;}
	.st88{fill:#773884;}
	.st89{fill:#EFAE52;}
	.st90{fill:#A49CF2;}
	.st91{fill:#97679B;}
	.st92{fill:#F48462;}
	.st93{fill:#9792E0;}
	.st94{fill:#8B558E;}
	.st95{fill:#F99178;}
	.st96{fill:#C489C9;}
	.st97{fill:#9B4EA8;}
	.st98{fill:#FFA98F;}
	.st99{fill:#A5ACAF;}
	.st100{fill:#51215B;}
	.st101{fill:#968BD6;}
	.st102{fill:#C4CBCE;}
	.st103{fill:#B4C3E3;}
</style>
<rect width="1920" height="1080"/>
<text transform="matrix(1 0 0 1 71.04 155.7253)" class="st4 st17 st18">Learnings</text>
<text transform="matrix(1 0 0 1 71.3607 332.7881)"><tspan x="0" y="0" class="st19 st17 st20">Technical:</tspan><tspan x="0" y="60" class="st19 st17 st20">• connecting Yubico YubiKey/PGP encryption</tspan><tspan x="0" y="120" class="st19 st17 st20">• defining UI usecases for the frontend</tspan><tspan x="0" y="180" class="st19 st17 st20">• defining an UI linking to the Rust backend</tspan><tspan x="0" y="240" class="st19 st17 st20">• balancing backend work with frontend</tspan><tspan x="0" y="300" class="st19 st17 st20">• first time using the taori framework</tspan><tspan x="0" y="420" class="st19 st17 st20">Non-technical:</tspan><tspan x="0" y="480" class="st19 st17 st20">• investigation of existing password managers</tspan><tspan x="0" y="540" class="st19 st17 st20">• prioritize the features which will fit into time</tspan><tspan x="0" y="600" class="st19 st17 st20">• logo design more complex than anticpated</tspan></text>
<g>
	<g>
		<path class="st4" d="M1706.5,391.1c0,0,15.7-17.3,48,5.5c32.3,22.7,7.6,106.8,7.6,106.8l-64-16L1706.5,391.1z"/>
	</g>
	<g>
		<polygon class="st84" points="1620,935 1629.9,988.9 1663.9,1008.8 1695.3,997.7 1690.3,935 		"/>
	</g>
	<g>
		<path class="st85" d="M1699.5,1000.2L1682,1035l-11.1,22.1c0,0-109.5,4.3-115,0c-5.6-4.3-5.6-16.6,0-21.6
			c5.6-5,70.7-41.8,70.7-41.8s0-10.1,4.1-11.1c4.1-1,31.1,11.1,31.1,11.1l31.5-11.1L1699.5,1000.2z"/>
	</g>
	<g>
		<path class="st86" d="M1682,1035l-11.1,22.1c0,0-109.5,4.3-115,0c-5.6-4.3-5.6-16.6,0-21.6c0,0,75.1,5.8,116.9,0
			C1676.7,1034.9,1679.7,1034.8,1682,1035z"/>
	</g>
	<g>
		<polygon class="st87" points="1689.9,941.6 1696.9,997.7 1748.8,997.7 1751,941.6 		"/>
	</g>
	<g>
		<path class="st88" d="M1764.6,1047.7c0,6.3-3.7,14.9-16.6,17.8c-12.9,2.9-80.6,0-82.7-2.4c-1.1-1.3-1.8-6.4-2.2-10.9
			c-0.5-4.9,0.7-9.8,3.3-13.9l27.7-43.9c0,0,7.6-8.2,22.5-6.7c14.8,1.4,22.3,6.7,22.3,6.7s6.9-7.2,10.1-4.8
			c2.7,2,11.7,36.4,14.7,51.7C1764.3,1044.3,1764.6,1046.7,1764.6,1047.7z"/>
	</g>
	<g>
		<path class="st89" d="M1632.8,617.3c0,0-19.5,84-27.6,155.1c-8.2,71.1-12.4,186.5-6.9,190.9c5.5,4.3,70.3,9.9,70.3,9.9
			s21.9,9.9,59.5,8.9c27.3-0.7,49.5-8.2,49.5-8.2s-5.7-307.1-26.5-356C1734.7,579.6,1632.8,617.3,1632.8,617.3z"/>
	</g>
	<g>
		<path class="st85" d="M1630.3,619.3c0,0,40.9,9.8,74.6,7.3s46.2-8.6,46.2-8.6v-57l-28.7-91.2l-52,2.9l-32,60.6L1630.3,619.3z"/>
	</g>
	<g>
		<g>
			<g>
				<g>
					<path class="st87" d="M1713.8,445.5l-0.6,24.9c0,0-4.5,7-18.5,7.9c-10.5,0.6-13.6-5.1-13.6-5.1l3.1-21.7l25.4-5.1L1713.8,445.5
						z"/>
				</g>
			</g>
		</g>
	</g>
	<g>
		<g>
			<g>
				<g>
					<path d="M1713.8,444c-0.1,0.7-0.3,1.5-0.8,2.4c-5.7,12.3-24.6,17-30.7,17.4l1.7-12.3L1713.8,444z"/>
				</g>
			</g>
		</g>
	</g>
	<g>
		<g>
			<g>
				<g>
					<path class="st87" d="M1680.1,394.6c0,0-13.3,30.9-8.8,48.4c4.5,17.5,19.8,14.9,29,11.6c9.2-3.3,13.5-9.1,13.5-9.1
						s8.5,3.1,14.3-5.1c5.8-8.2,2.4-17.7-2.5-19.9s-10.7,1.4-10.7,1.4l4.6-9C1719.6,412.9,1700.9,366.9,1680.1,394.6z"/>
				</g>
			</g>
		</g>
	</g>
	<g>
		<path d="M1681.2,433.9c-0.4,0-0.7-0.2-0.8-0.6c-1.9-6.6,2.5-13.2,2.7-13.5c0.3-0.4,0.8-0.5,1.2-0.2c0.4,0.3,0.5,0.8,0.2,1.2
			c0,0.1-4.2,6.3-2.5,12.1c0.1,0.5-0.1,0.9-0.6,1.1C1681.3,433.9,1681.2,433.9,1681.2,433.9z"/>
	</g>
	<g>
		<path d="M1716.2,436.3c-0.2,0-0.4-0.1-0.6-0.2c-0.3-0.3-0.4-0.9-0.1-1.2l8.1-8.9c0.3-0.3,0.9-0.4,1.2-0.1c0.3,0.3,0.4,0.9,0.1,1.2
			l-8.1,8.9C1716.6,436.2,1716.4,436.3,1716.2,436.3z"/>
	</g>
	<g>
		<path d="M1724.7,433.9c-0.1,0-5.7-0.9-5.7-0.9c-0.5-0.1-0.8-0.5-0.7-1c0.1-0.5,0.5-0.8,1-0.7l5.6,0.9c0.5,0.1,0.8,0.5,0.7,1
			C1725.5,433.6,1725.2,433.9,1724.7,433.9z"/>
	</g>
	<g>
		<path d="M1675.4,408.5c-0.4,0-0.8-0.3-0.8-0.7c-0.1-0.5,0.2-0.9,0.7-1l5.3-1c0.5-0.1,0.9,0.2,1,0.7c0.1,0.5-0.2,0.9-0.7,1l-5.3,1
			C1675.5,408.5,1675.5,408.5,1675.4,408.5z"/>
	</g>
	<g>
		<path d="M1697.4,412.1c-0.1,0-0.3,0-0.4-0.1l-8.7-4.6c-0.4-0.2-0.6-0.7-0.4-1.2c0.2-0.4,0.7-0.6,1.2-0.4l8.7,4.6
			c0.4,0.2,0.6,0.7,0.4,1.2C1698,412,1697.7,412.1,1697.4,412.1z"/>
	</g>
	<g>
		<path d="M1675.4,421.3c-0.1,0-0.2,0-0.2,0c-0.5-0.1-0.7-0.6-0.6-1.1l1.5-5.2l-1.4-1.8c-0.3-0.4-0.2-0.9,0.1-1.2
			c0.4-0.3,0.9-0.2,1.2,0.1l1.7,2.1c0.2,0.2,0.2,0.5,0.1,0.8l-1.7,5.6C1676.1,421,1675.8,421.3,1675.4,421.3z"/>
	</g>
	<g>
		<path d="M1690.5,422.8c-0.1,0-0.2,0-0.2,0c-0.5-0.1-0.7-0.6-0.6-1.1l1.5-5.2l-2-2.4c-0.3-0.4-0.2-0.9,0.1-1.2
			c0.4-0.3,0.9-0.2,1.2,0.1l2.3,2.8c0.2,0.2,0.2,0.5,0.2,0.8l-1.7,5.6C1691.2,422.5,1690.9,422.8,1690.5,422.8z"/>
	</g>
	<g>
		<path class="st85" d="M1667.7,970.5c-0.4,0-0.7-0.3-0.8-0.7c-14.2-66.2-13.5-289.8-13.4-302.5l-22.1-10.2
			c-0.4-0.2-0.6-0.7-0.4-1.1c0.2-0.4,0.7-0.6,1.1-0.4l22.6,10.5c0.3,0.1,0.5,0.4,0.5,0.8c0,2.3-1.2,235.1,13.4,302.7
			c0.1,0.5-0.2,0.9-0.7,1C1667.8,970.5,1667.7,970.5,1667.7,970.5z"/>
	</g>
	<g>
		<path class="st90" d="M1764.6,1047.7c0,6.3-3.7,14.9-16.6,17.8c-12.9,2.9-80.6,0-82.7-2.4c-1.1-1.3-1.8-6.4-2.2-10.9
			c-0.5-4.9,0.7-9.8,3.3-13.9c0,0,4.3,7.2,45.7,8.7c26.5,1,43.1-2.9,51.6-5.8C1764.3,1044.3,1764.6,1046.7,1764.6,1047.7z"/>
	</g>
	<g>
		<path class="st85" d="M1680.4,477.7c0,0-1.5-13.4,2-13.9c3.5-0.5,7.4,2.1,15.7,0.8c8.3-1.3,12.8-4,15.3-3.9
			c2.6,0.1,0.4,16.6,0.4,16.6l-20.7,6.7L1680.4,477.7z"/>
	</g>
	<g>
		<path class="st85" d="M1743.3,657.1c-0.1,0-0.2,0-0.2,0c-18.7-5.7-21.4-23.9-21.5-24c-0.1-0.5,0.3-0.9,0.7-1
			c0.5-0.1,0.9,0.3,1,0.7c0,0.2,2.6,17.3,20.3,22.6c0.5,0.1,0.7,0.6,0.6,1.1C1744,656.9,1743.6,657.1,1743.3,657.1z"/>
	</g>
	<g>
		<path class="st4" d="M1727,421.4c0,0-3.8-1.7-6.7-1.4c-3,0.3-5.3,1.9-5.3,1.9l-4,4.7l2.9-10c0,0-2.5-1.6-6.2-3.5l2.1-8.7l-4.3,7.6
			c-3.6-1.7-7.9-3.4-12.3-4.3c-2.4-0.5-4.5-0.8-6.3-1l2-9.5l-4.4,9.3c-4.8-0.3-7.3,0.2-7.3,0.2l-4.1,9.6c0,0,1.5-26.6,13.6-32.9
			c12.1-6.3,33.1-4.5,41.7,8.9C1737,405.6,1727,421.4,1727,421.4z"/>
	</g>
	<g>
		<path d="M1688.8,439.6c-0.2,0-0.4-0.1-0.5-0.2c-0.4-0.3-0.5-0.8-0.2-1.2l3.4-4.5c0.3-0.4,0.8-0.5,1.2-0.2c0.4,0.3,0.5,0.8,0.2,1.2
			l-3.4,4.5C1689.3,439.4,1689,439.6,1688.8,439.6z"/>
	</g>
	<g>
		<g>
			<path class="st87" d="M1564.6,516.4c0,0-31.7-6.8-49-17.4c-17.3-10.6-20.8-18.1-19.6-20.9c1.2-2.8,13.6,1.4,13.6,1.4
				s-16-10.4-13.3-16.5s17.9,1.5,17.9,1.5s-9.9-9.8-4.9-12.9c5-3,31.5,13.2,31.5,13.2s-10.4-12.3-6.5-14.7
				c3.9-2.4,24.2,8.1,29.3,15.3c5.2,7.2,9.1,19.4,9.1,19.4L1564.6,516.4z"/>
		</g>
	</g>
	<g>
		<path d="M1557.1,491.8c-0.2,0-0.4-0.1-0.5-0.2c-17.3-13.4-16.7-26.3-16.6-26.8c0-0.5,0.4-0.8,0.9-0.8c0.5,0,0.8,0.4,0.8,0.9
			c0,0.1-0.6,12.6,16,25.4c0.4,0.3,0.4,0.8,0.2,1.2C1557.6,491.7,1557.3,491.8,1557.1,491.8z"/>
	</g>
	<g>
		<path d="M1525.9,494.9c-0.1,0-0.2,0-0.3,0c-0.5-0.1-0.7-0.6-0.6-1.1l10-32.1c0.1-0.4,0.6-0.7,1.1-0.6c0.5,0.1,0.7,0.6,0.6,1.1
			l-10,32.1C1526.6,494.7,1526.2,494.9,1525.9,494.9z"/>
	</g>
	<g>
		<g>
			<path class="st87" d="M1823.5,519.8c0,0,31.7-6.8,49-17.4c17.3-10.6,20.8-18.1,19.6-20.9c-1.2-2.8-13.6,1.4-13.6,1.4
				s16-10.4,13.3-16.5c-2.8-6.1-17.9,1.5-17.9,1.5s9.9-9.8,4.9-12.9c-5-3-31.5,13.2-31.5,13.2s10.4-12.3,6.5-14.7
				c-3.9-2.4-24.2,8.1-29.3,15.3c-5.2,7.2-9.1,19.4-9.1,19.4L1823.5,519.8z"/>
		</g>
	</g>
	<g>
		<path d="M1831.1,495.2c-0.3,0-0.5-0.1-0.7-0.3c-0.3-0.4-0.2-0.9,0.2-1.2c16.6-12.8,16-25.2,16-25.4c0-0.5,0.3-0.9,0.8-0.9
			c0.5,0,0.9,0.3,0.9,0.8c0,0.5,0.7,13.4-16.6,26.8C1831.4,495.2,1831.3,495.2,1831.1,495.2z"/>
	</g>
	<g>
		<path d="M1862.3,498.3c-0.4,0-0.7-0.2-0.8-0.6l-10-32.1c-0.1-0.4,0.1-0.9,0.6-1.1c0.4-0.2,0.9,0.1,1.1,0.6l10,32.1
			c0.1,0.4-0.1,0.9-0.6,1.1C1862.4,498.3,1862.3,498.3,1862.3,498.3z"/>
	</g>
	<g>
		<path class="st85" d="M1534.6,520.6c0,0,31.6,50.9,61.1,56.5s67.2-20.5,67.2-20.5l25.8-82.1c0,0-14.6-9.6-25.8-7.5
			c-11.2,2.1-41.8,36.7-50.9,36.3c-9.1-0.4-39.9-23.2-39.9-23.2L1534.6,520.6z"/>
	</g>
	<g>
		<path class="st85" d="M1853.9,522.8c0,0-31.6,50.9-61.1,56.5c-29.5,5.7-67.2-20.5-67.2-20.5l-25.8-82.1c0,0,14.6-9.6,25.8-7.5
			c11.2,2.1,41.8,36.7,50.9,36.3c9.1-0.4,39.9-23.2,39.9-23.2L1853.9,522.8z"/>
	</g>
	<g>
		<path class="st4" d="M1697.4,472.6c-0.4,0-0.8-0.3-0.8-0.8c0-0.5,0.3-0.9,0.8-0.9c0.1,0,6.8-0.6,15.9-1.3c0.6,0,0.9,0.3,0.9,0.8
			c0,0.5-0.3,0.9-0.8,0.9C1704.2,472,1697.5,472.6,1697.4,472.6C1697.4,472.6,1697.4,472.6,1697.4,472.6z"/>
	</g>
	<g>
		<path class="st4" d="M1610.7,523.4c-0.4,0-0.9-0.1-1.4-0.3c-1.2-0.5-2.1-1.5-2.5-2.8c-1.9-5.6,4.4-16.9,4.7-17.4
			c0.2-0.3,0.5-0.5,0.9-0.4c0.4,0.1,0.6,0.3,0.7,0.7c0.5,2.8,2.9,16.8-0.7,19.7C1611.9,523.2,1611.4,523.4,1610.7,523.4z
			 M1611.7,506c-1.9,4-4.5,10.5-3.4,13.8c0.3,0.9,0.8,1.4,1.6,1.8c0.8,0.4,1.2,0.1,1.3,0C1613.1,520,1612.6,512,1611.7,506z"/>
	</g>
	<g>
		<path class="st4" d="M1777.6,525.4c-0.9,0-1.7-0.4-2.3-1.1c-3-3.8-0.1-17.4,0.3-18.9c0.1-0.4,0.4-0.6,0.8-0.7
			c0.4,0,0.7,0.2,0.9,0.6c0.5,1.6,5.1,15.4,2.5,19.1C1779.2,525.1,1778.5,525.4,1777.6,525.4z M1776.6,509c-0.8,4.9-1.6,12.1,0,14.2
			c0.3,0.3,0.5,0.5,0.9,0.5c0.4,0,0.6-0.1,0.7-0.4C1779.7,521.5,1778.3,514.5,1776.6,509z"/>
	</g>
	<g>
		<path class="st4" d="M1637.4,561.8c-0.5,0-0.9-0.4-0.9-0.9c0-0.2,0.5-16.7,0-31.6c-0.5-15.4,12.1-26.1,12.6-26.6
			c0.4-0.3,0.9-0.3,1.2,0.1c0.3,0.4,0.3,0.9-0.1,1.2c-0.1,0.1-12.5,10.6-12,25.2c0.5,15,0,31.6,0,31.8
			C1638.2,561.4,1637.8,561.8,1637.4,561.8z"/>
	</g>
	<g>
		<ellipse class="st4" cx="1587.7" cy="293.1" rx="95.3" ry="64.2"/>
	</g>
	<g>
		<polygon class="st4" points="1621.2,347 1672.2,384.2 1648.6,330.4 		"/>
	</g>
	<g>
		<circle class="st91" cx="1556.2" cy="293.1" r="8.9"/>
	</g>
	<g>
		<circle class="st91" cx="1587.7" cy="293.1" r="8.9"/>
	</g>
	<g>
		<circle class="st91" cx="1619.2" cy="293.1" r="8.9"/>
	</g>
</g>
</svg>
