<?xml version="1.0" encoding="utf-8"?>
<!-- Generator: Adobe Illustrator 26.5.0, SVG Export Plug-In . SVG Version: 6.00 Build 0)  -->
<svg version="1.1" id="Layer_1" xmlns="http://www.w3.org/2000/svg" xmlns:xlink="http://www.w3.org/1999/xlink" x="0px" y="0px"
	 viewBox="0 0 1920 1080" style="enable-background:new 0 0 1920 1080;" xml:space="preserve">
<style type="text/css">
	.st0{fill:#FFFFFF;}
	.st1{font-family:'Comfortaa-Bold';}
	.st2{font-size:100px;}
	.st3{fill:#E4E4EA;}
	.st4{fill:#EFEFF4;}
	.st5{fill:#ADA4F7;}
	.st6{fill:#FC8165;}
	.st7{fill:#D2D2DB;}
	.st8{fill:#7C4FD3;}
	.st9{fill:#BEBECC;}
	.st10{fill:#80BAFF;}
	.st11{fill:#50447E;}
	.st12{fill:#AFAFBF;}
	.st13{fill:#EA366E;}
	.st14{fill:#FFAF45;}
	.st15{fill:#C7C7D1;}
	.st16{fill:#C5C5D1;}
	.st17{fill:#BDDEFF;}
	.st18{fill:#9364ED;}
	.st19{fill:#B5C5E0;}
	.st20{font-size:75px;}
	.st21{opacity:0.4;}
	.st22{fill:#FAFDF7;}
	.st23{fill:#F5FCEF;}
	.st24{fill:#EFFAE7;}
	.st25{fill:#EAF8DF;}
	.st26{fill:#E5F6D7;}
	.st27{fill:#E0F5D0;}
	.st28{fill:#DAF3C8;}
	.st29{fill:#D5F1C0;}
	.st30{fill:#D0EFB8;}
	.st31{fill:#CBEEB0;}
	.st32{fill:#C6ECA8;}
	.st33{fill:#C0EAA0;}
	.st34{fill:#BBE898;}
	.st35{fill:#B6E790;}
	.st36{fill:#B1E588;}
	.st37{fill:#ABE381;}
	.st38{fill:#A6E179;}
	.st39{fill:#A1E071;}
	.st40{fill:#9CDE69;}
	.st41{fill:#96DC61;}
	.st42{fill:#91DA59;}
	.st43{fill:#8CD951;}
	.st44{fill:#87D749;}
	.st45{fill:#82D541;}
	.st46{fill:#7CD339;}
	.st47{fill:#77D232;}
	.st48{fill:#72D02A;}
	.st49{fill:#6DCE22;}
	.st50{fill:#67CC1A;}
	.st51{fill:#62CB12;}
	.st52{fill:#5DC90A;}
	.st53{fill:#FFF8F7;}
	.st54{fill:#FFF1EF;}
	.st55{fill:#FFEAE8;}
	.st56{fill:#FFE3E0;}
	.st57{fill:#FFDCD8;}
	.st58{fill:#FFD5D0;}
	.st59{fill:#FFCEC9;}
	.st60{fill:#FFC7C1;}
	.st61{fill:#FFC0B9;}
	.st62{fill:#FFB9B1;}
	.st63{fill:#FFB2A9;}
	.st64{fill:#FFABA2;}
	.st65{fill:#FFA49A;}
	.st66{fill:#FF9D92;}
	.st67{fill:#FF968A;}
	.st68{fill:#FF9083;}
	.st69{fill:#FF897B;}
	.st70{fill:#FF8273;}
	.st71{fill:#FF7B6B;}
	.st72{fill:#FF7464;}
	.st73{fill:#FF6D5C;}
	.st74{fill:#FF6654;}
	.st75{fill:#FF5F4C;}
	.st76{fill:#FF5844;}
	.st77{fill:#FF513D;}
	.st78{fill:#FF4A35;}
	.st79{fill:#FF432D;}
	.st80{fill:#FF3C25;}
	.st81{fill:#FF351E;}
	.st82{fill:#FF2E16;}
	.st83{fill:#FF270E;}
	.st84{fill:#F27E64;}
	.st85{fill:#5D2866;}
	.st86{fill:#8988E2;}
	.st87{fill:#FF9280;}
	.st88{fill:#773884;}
	.st89{fill:#EFAE52;}
	.st90{fill:#A49CF2;}
	.st91{fill:#97679B;}
	.st92{fill:#F48462;}
	.st93{fill:#9792E0;}
	.st94{fill:#8B558E;}
	.st95{fill:#F99178;}
	.st96{fill:#C489C9;}
	.st97{fill:#9B4EA8;}
	.st98{fill:#FFA98F;}
	.st99{fill:#A5ACAF;}
	.st100{fill:#51215B;}
	.st101{fill:#968BD6;}
	.st102{fill:#C4CBCE;}
	.st103{fill:#B4C3E3;}
</style>
<rect width="1920" height="1080"/>
<text transform="matrix(1 0 0 1 54.7547 155.7249)" class="st0 st1 st2">Solution</text>
<g>
	<g>
		<g>
			<path class="st3" d="M1739,869h-495.4c-11.9,0-21.6-9.6-21.6-21.6V496.6c0-11.9,9.6-21.6,21.6-21.6H1739
				c11.9,0,21.6,9.6,21.6,21.6v350.8C1760.6,859.3,1750.9,869,1739,869z"/>
		</g>
		<g>
			<g>
				<path class="st4" d="M1404.5,516.5v120.3c0,5.4-4.4,9.8-9.8,9.8h-120.3c-2.2,0-4.1-0.7-5.7-1.9c-2.5-1.8-4.1-4.7-4.1-8V516.5
					c0-5.4,4.4-9.9,9.8-9.9h120.3C1400.1,506.6,1404.5,511,1404.5,516.5z"/>
			</g>
			<g>
				<path class="st5" d="M1391.9,646.6h-117.6c-2.2,0-4.1-0.7-5.7-1.9c6.5-34.1,20-54.9,33.5-59.7c14-5,37.1-2.7,52.5,0.2
					c11.2,2.2,20.9,9.3,26,19.5C1385.4,614.2,1390.1,627.8,1391.9,646.6z"/>
			</g>
			<g>
				<path d="M1351.4,539.8c0,0,9.8-16.5,1.7-20c-8.1-3.5-17.8,5.5-17.8,5.5s-18.1,1.6-25,11.3s10.1,26.7,10.1,26.7L1351.4,539.8z"/>
			</g>
			<g>
				<g>
					<path class="st6" d="M1323.5,567l-1,16.7c0,0,2.7,5,12.4,6.4c7.2,1,9.9-0.5,9.9-0.5l-0.5-8.5l-0.5-8.3l-17.4-5L1323.5,567z"/>
				</g>
			</g>
			<g>
				<g>
					<path d="M1326.5,567.9c0,0.5,0.2,1,0.4,1.6c3.2,8.6,13.3,11,17.5,11.6l-0.5-8.3L1326.5,567.9z"/>
				</g>
			</g>
			<g>
				<g>
					<path class="st6" d="M1349.9,535c0,0,7.5,21.5,3.3,32.9c-4.2,11.4-14.7,8.8-20.9,6c-6.2-2.7-8.8-6.9-8.8-6.9s-6.1,1.6-9.7-4.3
						c-3.6-5.8-0.6-12,2.9-13.2s7.4,1.6,7.4,1.6l-2.7-6.3C1321.4,544.8,1337.1,515.2,1349.9,535z"/>
				</g>
			</g>
			<g>
				<path d="M1323,560.2c-0.2,0-0.3-0.1-0.5-0.2l-7.2-5.9c-0.3-0.3-0.4-0.7-0.1-1.1c0.3-0.3,0.7-0.4,1.1-0.1l7.2,5.9
					c0.3,0.3,0.4,0.7,0.1,1.1C1323.4,560.1,1323.2,560.2,1323,560.2z"/>
			</g>
			<g>
				<path d="M1316.2,559.7c-0.4,0-0.7-0.3-0.7-0.6c-0.1-0.4,0.2-0.8,0.6-0.9l5-1c0.4-0.1,0.8,0.2,0.9,0.6c0.1,0.4-0.2,0.8-0.6,0.9
					l-5,1C1316.2,559.7,1316.2,559.7,1316.2,559.7z"/>
			</g>
			<g>
				<path d="M1335.5,543.9c-0.2,0-0.4-0.1-0.5-0.2c-0.3-0.3-0.3-0.7-0.1-1.1c2.5-2.8,5.5-2.1,6.8-1.3c0.4,0.2,0.5,0.7,0.2,1
					c-0.2,0.4-0.7,0.5-1,0.2c-0.1-0.1-2.6-1.5-4.9,1C1335.9,543.8,1335.7,543.9,1335.5,543.9z"/>
			</g>
			<g>
				<path d="M1351.7,543.2c-0.2,0-0.4-0.1-0.5-0.2c-1.6-1.5-3.5-0.6-3.6-0.6c-0.4,0.2-0.8,0-1-0.3c-0.2-0.4,0-0.8,0.3-1
					c0.1-0.1,2.9-1.4,5.3,0.8c0.3,0.3,0.3,0.8,0,1.1C1352.1,543.1,1351.9,543.2,1351.7,543.2z"/>
			</g>
			<g>
				<path d="M1347,559.8c-0.1,0-0.2,0-0.3,0c-0.4-0.1-0.6-0.6-0.4-1c2.1-5.8-0.6-9.2-0.8-9.4c-0.3-0.3-0.2-0.8,0.1-1.1
					c0.3-0.3,0.8-0.2,1.1,0.1c0.1,0.2,3.5,4.2,1,10.8C1347.6,559.6,1347.3,559.8,1347,559.8z"/>
			</g>
			<g>
				<path d="M1351.1,551.2c-0.3,0-0.7-0.2-0.7-0.6l-0.8-3.9c-0.1-0.4,0.2-0.8,0.6-0.9c0.4-0.1,0.8,0.2,0.9,0.6l0.8,3.9
					c0.1,0.4-0.2,0.8-0.6,0.9C1351.2,551.2,1351.2,551.2,1351.1,551.2z"/>
			</g>
			<g>
				<path d="M1338.9,551.5c-0.3,0-0.7-0.2-0.7-0.6l-0.8-3.9c-0.1-0.4,0.2-0.8,0.6-0.9c0.4-0.1,0.8,0.2,0.9,0.6l0.8,3.9
					c0.1,0.4-0.2,0.8-0.6,0.9C1339,551.5,1339,551.5,1338.9,551.5z"/>
			</g>
			<g>
				<path d="M1351.4,539.8c0,0-1.6-3.5-5.8-3.8c-4.2-0.3-6.8,2.5-6.8,2.5s1.4,7.1-4.5,10.5c-5.9,3.4-10.2,2.1-10.2,2.1l-4-1.7
					l-2.6-6.2l12.7-12.1l15.9-7.2l7.4,7.6L1351.4,539.8z"/>
			</g>
			<g>
				<path d="M1343.3,565.3c-0.6,0-4.5-0.2-5.9-3.9c-0.2-0.4,0-0.8,0.4-1c0.4-0.2,0.8,0,1,0.4c1.2,3,4.5,3,4.6,3
					c0.4,0,0.8,0.3,0.8,0.7C1344.1,565,1343.8,565.3,1343.3,565.3C1343.4,565.3,1343.3,565.3,1343.3,565.3z"/>
			</g>
			<g>
				<path class="st0" d="M1340,591.4c-10.4,0-17.6-6.8-18-7.1c-0.3-0.3-0.3-0.8,0-1c0.3-0.3,0.8-0.3,1,0c0.1,0.1,9.7,9.2,22.4,6.1
					c0.4-0.1,0.8,0.1,0.9,0.5s-0.1,0.8-0.5,0.9C1343.8,591.2,1341.8,591.4,1340,591.4z"/>
			</g>
			<g>
				<path class="st0" d="M1373.5,645.4c-0.4,0-0.7-0.3-0.7-0.7v-18.4c0-0.4,0.3-0.7,0.7-0.7c0.4,0,0.7,0.3,0.7,0.7v18.4
					C1374.3,645,1374,645.4,1373.5,645.4z"/>
			</g>
		</g>
		<g>
			<path class="st0" d="M1709.8,547.8h-283.1c-2.3,0-4.2-1.9-4.2-4.2V525c0-2.3,1.9-4.2,4.2-4.2h283.1c2.3,0,4.2,1.9,4.2,4.2v18.7
				C1714,545.9,1712.2,547.8,1709.8,547.8z"/>
		</g>
		<g>
			<path class="st0" d="M1709.8,588h-283.1c-2.3,0-4.2-1.9-4.2-4.2v-18.7c0-2.3,1.9-4.2,4.2-4.2h283.1c2.3,0,4.2,1.9,4.2,4.2v18.7
				C1714,586.2,1712.2,588,1709.8,588z"/>
		</g>
		<g>
			<path class="st0" d="M1709.8,628.3h-283.1c-2.3,0-4.2-1.9-4.2-4.2v-18.7c0-2.3,1.9-4.2,4.2-4.2h283.1c2.3,0,4.2,1.9,4.2,4.2v18.7
				C1714,626.4,1712.2,628.3,1709.8,628.3z"/>
		</g>
		<g>
			<rect x="1268.6" y="667.3" class="st5" width="299.7" height="2.2"/>
		</g>
		<g>
			<rect x="1268.6" y="692.5" class="st5" width="241.2" height="2.2"/>
		</g>
		<g>
			<rect x="1268.6" y="717.1" class="st5" width="162.3" height="2.2"/>
		</g>
		<g>
			<path class="st7" d="M1456,762.9h-179.9c-4.1,0-7.5-3.3-7.5-7.5v-13.1c0-4.1,3.3-7.5,7.5-7.5H1456c4.1,0,7.5,3.3,7.5,7.5v13.1
				C1463.5,759.6,1460.1,762.9,1456,762.9z"/>
		</g>
		<g>
			<path class="st7" d="M1456,799.5h-179.9c-4.1,0-7.5-3.3-7.5-7.5v-13.1c0-4.1,3.3-7.5,7.5-7.5H1456c4.1,0,7.5,3.3,7.5,7.5V792
				C1463.5,796.1,1460.1,799.5,1456,799.5z"/>
		</g>
		<g>
			<path class="st8" d="M1294.3,748.9c0,3-2.4,5.4-5.4,5.4c-3,0-5.4-2.4-5.4-5.4c0-3,2.4-5.4,5.4-5.4
				C1291.8,743.5,1294.3,745.9,1294.3,748.9z"/>
		</g>
		<g>
			<path class="st8" d="M1314,748.9c0,3-2.4,5.4-5.4,5.4c-3,0-5.4-2.4-5.4-5.4c0-3,2.4-5.4,5.4-5.4
				C1311.6,743.5,1314,745.9,1314,748.9z"/>
		</g>
		<g>
			<path class="st8" d="M1333.6,748.9c0,3-2.4,5.4-5.4,5.4c-3,0-5.4-2.4-5.4-5.4c0-3,2.4-5.4,5.4-5.4
				C1331.2,743.5,1333.6,745.9,1333.6,748.9z"/>
		</g>
		<g>
			<path class="st8" d="M1353.4,748.9c0,3-2.4,5.4-5.4,5.4c-3,0-5.4-2.4-5.4-5.4c0-3,2.4-5.4,5.4-5.4
				C1351,743.5,1353.4,745.9,1353.4,748.9z"/>
		</g>
		<g>
			<path class="st8" d="M1374.6,748.9c0,3-2.4,5.4-5.4,5.4s-5.4-2.4-5.4-5.4c0-3,2.4-5.4,5.4-5.4S1374.6,745.9,1374.6,748.9z"/>
		</g>
		<g>
			<path class="st8" d="M1394.4,748.9c0,3-2.4,5.4-5.4,5.4c-3,0-5.4-2.4-5.4-5.4c0-3,2.4-5.4,5.4-5.4
				C1392,743.5,1394.4,745.9,1394.4,748.9z"/>
		</g>
		<g>
			<path class="st3" d="M1293.4,785.5c0,3-2.4,5.4-5.4,5.4c-3,0-5.4-2.4-5.4-5.4c0-3,2.4-5.4,5.4-5.4
				C1291,780,1293.4,782.5,1293.4,785.5z"/>
		</g>
		<g>
			<path class="st3" d="M1313.2,785.5c0,3-2.4,5.4-5.4,5.4c-3,0-5.4-2.4-5.4-5.4c0-3,2.4-5.4,5.4-5.4
				C1310.8,780,1313.2,782.5,1313.2,785.5z"/>
		</g>
		<g>
			<path class="st3" d="M1332.8,785.5c0,3-2.4,5.4-5.4,5.4c-3,0-5.4-2.4-5.4-5.4c0-3,2.4-5.4,5.4-5.4
				C1330.4,780,1332.8,782.5,1332.8,785.5z"/>
		</g>
		<g>
			<path class="st3" d="M1352.6,785.5c0,3-2.4,5.4-5.4,5.4s-5.4-2.4-5.4-5.4c0-3,2.4-5.4,5.4-5.4S1352.6,782.5,1352.6,785.5z"/>
		</g>
		<g>
			<path class="st3" d="M1373.8,785.5c0,3-2.4,5.4-5.4,5.4c-3,0-5.4-2.4-5.4-5.4c0-3,2.4-5.4,5.4-5.4
				C1371.3,780,1373.8,782.5,1373.8,785.5z"/>
		</g>
		<g>
			<path class="st3" d="M1393.5,785.5c0,3-2.4,5.4-5.4,5.4c-3,0-5.4-2.4-5.4-5.4c0-3,2.4-5.4,5.4-5.4
				C1391.1,780,1393.5,782.5,1393.5,785.5z"/>
		</g>
		<g>
			<path class="st3" d="M1413.1,785.5c0,3-2.4,5.4-5.4,5.4c-3,0-5.4-2.4-5.4-5.4c0-3,2.4-5.4,5.4-5.4
				C1410.7,780,1413.1,782.5,1413.1,785.5z"/>
		</g>
		<g>
			<path class="st3" d="M1433.4,785.5c0,3-2.4,5.4-5.4,5.4c-3,0-5.4-2.4-5.4-5.4c0-3,2.4-5.4,5.4-5.4
				C1430.9,780,1433.4,782.5,1433.4,785.5z"/>
		</g>
	</g>
	<g>
		<g>
			<path class="st8" d="M1290.2,937.2h-122.1c-7,0-12.6-5.7-12.6-12.6v-64.7c0-7,5.7-12.6,12.6-12.6h122.1c7,0,12.6,5.7,12.6,12.6
				v64.7C1302.8,931.5,1297.2,937.2,1290.2,937.2z M1168.2,849.4c-5.7,0-10.4,4.7-10.4,10.4v64.7c0,5.7,4.7,10.4,10.4,10.4h122.1
				c5.7,0,10.4-4.7,10.4-10.4v-64.7c0-5.7-4.7-10.4-10.4-10.4H1168.2z"/>
		</g>
		<g>
			<path class="st8" d="M1301.7,874.5h-145.1c-0.6,0-1.1-0.5-1.1-1.1c0-0.6,0.5-1.1,1.1-1.1h145.1c0.6,0,1.1,0.5,1.1,1.1
				C1302.8,874,1302.3,874.5,1301.7,874.5z"/>
		</g>
		<g>
			<path class="st8" d="M1174.7,868.6c-3.9,0-7.1-3.2-7.1-7.1c0-3.9,3.2-7.1,7.1-7.1c3.9,0,7.1,3.2,7.1,7.1
				C1181.7,865.5,1178.6,868.6,1174.7,868.6z M1174.7,856.7c-2.7,0-4.8,2.2-4.8,4.8c0,2.7,2.2,4.9,4.8,4.9c2.7,0,4.9-2.2,4.9-4.9
				C1179.5,858.9,1177.3,856.7,1174.7,856.7z"/>
		</g>
	</g>
	<g>
		<g>
			<path class="st9" d="M1799.5,963.4h-186.2c-10.5,0-19-8.5-19-19v-174c0-10.5,8.5-19,19-19h186.2c10.5,0,19,8.5,19,19v174
				C1818.5,954.9,1810,963.4,1799.5,963.4z"/>
		</g>
		<g>
			<path class="st7" d="M1760,963.4h-186.2c-10.5,0-19-8.5-19-19v-174c0-10.5,8.5-19,19-19H1760c10.5,0,19,8.5,19,19v174
				C1779,954.9,1770.5,963.4,1760,963.4z"/>
		</g>
		<g>
			<path class="st6" d="M1610.3,781.1c-0.9,1.7-8.6,17,0.2,29.8c12,17.3,21.9,4.3,21.9,4.3v-26L1610.3,781.1z"/>
		</g>
		<g>
			<g>
				<g>
					<path class="st10" d="M1609.9,818.4l15.1-6.3c1.7-0.7,2.4-2.6,1.7-4.3l-16.1-38.3c-0.7-1.7-2.6-2.4-4.3-1.7l-15.1,6.3
						c-1.7,0.7-2.4,2.6-1.7,4.3l16.1,38.3C1606.3,818.3,1608.2,819.1,1609.9,818.4z"/>
				</g>
				<g>
					<path class="st0" d="M1613.9,816.7l15.1-6.3c1.7-0.7,2.4-2.6,1.7-4.3l-16.1-38.3c-0.7-1.7-2.6-2.4-4.3-1.7l-15.1,6.3
						c-1.7,0.7-2.4,2.6-1.7,4.3l16.1,38.3C1610.4,816.6,1612.3,817.4,1613.9,816.7z"/>
				</g>
			</g>
			<g>
				<path class="st10" d="M1623.3,807c0.2,1.7-1,3.2-2.7,3.4c-1.7,0.2-3.2-1-3.4-2.7c-0.2-1.7,1-3.2,2.7-3.4
					C1621.7,804.2,1623.2,805.3,1623.3,807z"/>
			</g>
		</g>
		<g>
			<path class="st6" d="M1639.9,814c0,0,2.4-16-1.2-20.7c-3.6-4.7-13.3-9.5-19.5-7.3c-6.1,2.2,7.4,10.2,7.4,10.2s-4.8,15.5,0.4,21.9
				C1632.1,824.5,1639.9,814,1639.9,814z"/>
		</g>
		<g>
			<path d="M1629.6,820.7c-0.1,0-0.1,0-0.2,0c-6.4-1.5-5.5-14.2-5.5-14.8c0-0.4,0.4-0.7,0.8-0.7c0.4,0,0.7,0.4,0.7,0.8
				c-0.2,3.3,0.1,12.2,4.4,13.2c0.4,0.1,0.6,0.5,0.6,0.9C1630.2,820.5,1629.9,820.7,1629.6,820.7z"/>
		</g>
		<g>
			<path class="st8" d="M1689.7,789.9c0,0-27.9,22.8-29.7,21.9c-1.8-0.9-16.6-11.3-16.6-11.3l-26.3,19.6c0,0,19.8,50.1,48.3,48.9
				c28.4-1.2,37.8-34.9,37.8-34.9L1689.7,789.9z"/>
		</g>
		<g>
			<path class="st11" d="M1658.1,830.5c-0.1,0-0.2,0-0.2,0c-0.7-0.1-1.3-0.4-1.7-1c-2.2-3.5,2.5-16.5,3.1-17.9
				c0.1-0.3,0.5-0.5,0.8-0.5c0.3,0,0.6,0.3,0.6,0.6c0.2,1.5,1.9,15.1-1,18.1C1659.2,830.2,1658.7,830.5,1658.1,830.5z M1659.6,815.1
				c-1.7,5.2-3.3,11.7-2.2,13.5c0.1,0.2,0.3,0.3,0.5,0.4c0.3,0,0.4-0.1,0.6-0.3C1660.1,827.2,1660.1,820.5,1659.6,815.1z"/>
		</g>
		<g>
			<polygon class="st6" points="1542.4,936.7 1523.3,956 1495.1,933.1 1515.5,907.9 			"/>
		</g>
		<g>
			<path class="st12" d="M1818.1,956v12.7c0,3.3-0.2,6.6-0.6,9.7c-2.1,15.8-9.1,27.4-17.4,27.4h-203.1c-8.3,0-15.3-11.6-17.4-27.4
				c-0.4-3.1-0.6-6.4-0.6-9.7V956c0-20.5,8.1-37.1,18-37.1h203.1C1810.1,918.9,1818.1,935.5,1818.1,956z"/>
		</g>
		<g>
			<path class="st13" d="M1705.1,874.1c0,0-83.2-32.8-113.3-32.8c-30.1,0-86,67.5-86,67.5l42.7,31.3l64.4-42.9L1705.1,874.1z"/>
		</g>
		<g>
			<path class="st14" d="M1518.7,919c-0.2,0-0.3,0-0.4-0.1c-0.2-0.2-0.4-0.5-0.3-0.8c0.6-2.6,1.7-9.9,0.1-12.4
				c-0.2-0.3-0.4-0.4-0.8-0.5c-2.6-0.6-9,2.8-11.2,4.2c-0.3,0.2-0.8,0.1-1-0.2c-0.2-0.3-0.1-0.8,0.2-1c0.9-0.5,8.6-5.3,12.3-4.4
				c0.8,0.2,1.3,0.6,1.7,1.2c1.7,2.7,0.9,9,0.4,11.9c2.2-1.2,6.1-3,8-2.1c0.4,0.2,0.5,0.6,0.4,1c-0.2,0.4-0.6,0.5-1,0.4
				c-1.3-0.6-5.5,1.3-8,2.8C1519,919,1518.9,919,1518.7,919z"/>
		</g>
		<g>
			<path class="st9" d="M1789.3,956.5v12.7c0,3.3-0.2,6.6-0.6,9.7c-2.1,15.8-9.3,27.4-17.8,27.4h-208c-8.5,0-15.7-11.6-17.8-27.4
				c-0.4-3.1-0.6-6.4-0.6-9.7v-12.7c0-20.5,8.3-37.1,18.5-37.1h208C1781.1,919.4,1789.3,936,1789.3,956.5z"/>
		</g>
		<g>
			
				<ellipse transform="matrix(0.161 -0.987 0.987 0.161 403.8119 2305.9097)" class="st7" cx="1558.2" cy="915.4" rx="35.5" ry="35.5"/>
		</g>
		<g>
			<path class="st12" d="M1573.9,915.4c0,8.7-7.1,15.8-15.8,15.8c-8.7,0-15.8-7.1-15.8-15.8c0-8.7,7.1-15.8,15.8-15.8
				C1566.9,899.7,1573.9,906.7,1573.9,915.4z"/>
		</g>
		<g>
			<path class="st9" d="M1581.9,1041.1h-1.5c-3.7,0-6.8-2.7-7.3-6.3l-5.2-38.6h22.9l-1.7,38C1589,1038,1585.8,1041.1,1581.9,1041.1z
				"/>
		</g>
		<g>
			<path class="st9" d="M1626.8,1041.1h-1.5c-3.7,0-6.8-2.7-7.3-6.3l-5.2-38.6h22.9l-1.7,38
				C1633.9,1038,1630.7,1041.1,1626.8,1041.1z"/>
		</g>
		<g>
			<path class="st9" d="M1752.9,1041.1h1.5c3.7,0,6.8-2.7,7.3-6.3l5.2-38.6h-22.9l1.7,38C1745.8,1038,1749,1041.1,1752.9,1041.1z"/>
		</g>
		<g>
			<path class="st12" d="M1798.3,1038.4h1.5c3.7,0,6.8-2.7,7.3-6.3l5.2-38.6h-22.9l1.7,38
				C1791.2,1035.4,1794.4,1038.4,1798.3,1038.4z"/>
		</g>
		<g>
			<path class="st12" d="M1739.4,932c0,5.6-25.8,10.1-57.5,10.1s-57.5-4.5-57.5-10.1c0-5.6,25.8-10.1,57.5-10.1
				S1739.4,926.4,1739.4,932z"/>
		</g>
		<g>
			<polygon class="st6" points="1615.5,1016.4 1612.8,1043.4 1576.5,1043.4 1576.5,1011 			"/>
		</g>
		<g>
			<path class="st13" d="M1748.9,878.9c0,0,3.7,38.3-6.8,43.2c-10.5,4.9-81.1,12.4-85,15.4c-3.9,3.1-30.1,88.1-30.1,88.1l-64-5.7
				c0,0,23.1-113.1,40-123.5c12.7-7.8,84.3-21.4,84.3-21.4L1748.9,878.9z"/>
		</g>
		<g>
			<path class="st14" d="M1656.3,938.6c-0.1,0-0.3,0-0.4-0.1c-0.4-0.3-11-6.7-12-12.1c-0.2-1.2,0-2.3,0.8-3.3
				c0.9-1.1,1.9-1.2,2.5-1.1c4.3,0.7,9.2,14.1,9.8,15.6c0.1,0.3,0,0.6-0.2,0.8C1656.7,938.5,1656.5,938.6,1656.3,938.6z
				 M1646.9,923.4c-0.2,0-0.6,0.1-1,0.6c-0.5,0.6-0.6,1.3-0.5,2.1c0.6,3.3,6,7.5,9.4,9.9c-2.1-5.3-5.5-12.2-7.8-12.6
				C1647,923.4,1646.9,923.4,1646.9,923.4z"/>
		</g>
		<g>
			<path class="st14" d="M1608.6,889.9c-0.1,0-0.1,0-0.2,0c-1.1-0.3-10.4-3-11.7-7.1c-0.4-1.1-0.1-2.3,0.7-3.3
				c1-1.3,2.2-1.5,2.9-1.4c4.2,0.5,8.5,9.7,9,10.8c0.1,0.3,0.1,0.6-0.1,0.8C1609.1,889.8,1608.9,889.9,1608.6,889.9z M1600,879.5
				c-0.4,0-0.9,0.1-1.4,0.8c-0.5,0.7-0.7,1.3-0.5,1.9c0.8,2.4,5.9,4.6,9.1,5.6c-1.6-3.1-4.7-8.1-7-8.4
				C1600.1,879.5,1600.1,879.5,1600,879.5z"/>
		</g>
		<g>
			<g>
				<path class="st8" d="M1745.3,881.6c0,0,10.7-71,7.3-76.5c-10.7-16.8-46.1-24.3-63-15.3c-10.5,5.6-7.2,25-11.6,56.7
					c-2.5,17.9-2.7,24.4-2.7,24.4L1745.3,881.6z"/>
			</g>
		</g>
		<g>
			<g>
				<g>
					<g>
						<g>
							<path class="st6" d="M1707.6,779l0,0.4l-0.6,7.3l-0.5,5.7c0,0-0.7,1.3,6,1.7c9,0.5,12.3-2.9,12.3-2.9l2.1-13.3l-2.8,0.2
								L1707.6,779z"/>
						</g>
					</g>
				</g>
			</g>
		</g>
		<g>
			<g>
				<g>
					<g>
						<g>
							<path d="M1707.6,779.4l-0.6,7.3c4.4,0,12.5-0.8,16.5-7.2c0.3-0.5,0.5-1,0.6-1.4l-16.5,1.2L1707.6,779.4z"/>
						</g>
					</g>
				</g>
			</g>
		</g>
		<g>
			<g>
				<g>
					<g>
						<g>
							<path class="st6" d="M1709.3,744.2c0,0-10.7,17.8-9.1,28.8c1.6,11,11.5,10.6,17.5,9.3s9.2-4.5,9.2-4.5s5.2,2.5,9.4-2
								c4.3-4.6,2.8-10.6-0.1-12.3c-2.9-1.7-6.9,0-6.9,0l3.6-5.1C1732.9,758.4,1724.5,728.9,1709.3,744.2z"/>
						</g>
					</g>
				</g>
			</g>
		</g>
		<g>
			<rect x="1727" y="879.9" class="st9" width="91.4" height="71.1"/>
		</g>
		<g>
			
				<ellipse transform="matrix(0.7071 -0.7071 0.7071 0.7071 -141.4814 1489.3284)" class="st7" cx="1727" cy="915.4" rx="35.5" ry="35.5"/>
		</g>
		<g>
			<path class="st12" d="M1742.8,915.4c0,8.7-7.1,15.8-15.8,15.8c-8.7,0-15.8-7.1-15.8-15.8c0-8.7,7.1-15.8,15.8-15.8
				C1735.7,899.7,1742.8,906.7,1742.8,915.4z"/>
		</g>
		<g>
			<path class="st11" d="M1714.8,795.3c-5.9,0-10.2-2.1-10.5-2.2c-0.4-0.2-0.5-0.6-0.3-1c0.2-0.4,0.6-0.5,1-0.3
				c0.1,0,9.6,4.7,19.8-0.2c0.4-0.2,0.8,0,1,0.3c0.2,0.4,0,0.8-0.3,1C1721.7,794.7,1718,795.3,1714.8,795.3z"/>
		</g>
		<g>
			<path class="st11" d="M1676.4,858.2c0,0-0.1,0-0.1,0c-0.4-0.1-0.7-0.4-0.6-0.8l3.7-24.4c0.1-0.4,0.4-0.7,0.8-0.6
				c0.4,0.1,0.7,0.4,0.6,0.8l-3.7,24.4C1677.1,857.9,1676.8,858.2,1676.4,858.2z"/>
		</g>
		<g>
			<g>
				<g>
					<path class="st0" d="M1877.2,907.7c-8.9,18-23.7,28.9-33,24.3c-9.3-4.6-9.5-22.9-0.6-40.9c8.9-18,23.7-28.9,33-24.3
						C1885.9,871.4,1886.2,889.7,1877.2,907.7z"/>
				</g>
			</g>
			<g>
				<g>
					<path class="st0" d="M1781.6,906.4c17.5,9.9,27.6,25.2,22.5,34.2c-5.1,9-23.4,8.3-40.9-1.5c-17.5-9.9-27.6-25.2-22.5-34.2
						C1745.8,895.9,1764.1,896.6,1781.6,906.4z"/>
				</g>
			</g>
			<g>
				<g>
					<path class="st0" d="M1778,979.2c-14.7-2.2-25.8-10.2-24.6-17.8c1.1-7.6,14-11.9,28.8-9.7c14.7,2.2,25.8,10.2,24.6,17.8
						C1805.6,977.1,1792.7,981.5,1778,979.2z"/>
				</g>
			</g>
			<g>
				<g>
					<path class="st0" d="M1863.1,927.3c16.1-12.1,34.1-15.2,40.4-7c6.2,8.3-1.7,24.8-17.8,36.9c-16.1,12.1-34.1,15.2-40.4,7
						C1839,955.9,1847,939.4,1863.1,927.3z"/>
				</g>
			</g>
			<g>
				<path class="st8" d="M1823.4,993c-0.3,0-0.6-0.2-0.7-0.5c-10.6-34.1-47-29-47.4-29c-0.4,0.1-0.8-0.2-0.8-0.6
					c-0.1-0.4,0.2-0.8,0.6-0.8c0.4-0.1,38.1-5.4,49,30c0.1,0.4-0.1,0.8-0.5,0.9C1823.6,993,1823.5,993,1823.4,993z"/>
			</g>
			<g>
				<path class="st8" d="M1826.5,990.4c-0.3,0-0.6-0.2-0.7-0.6c-9.8-41.8-46.2-65.6-46.6-65.8c-0.3-0.2-0.4-0.7-0.2-1
					c0.2-0.3,0.7-0.4,1-0.2c0.4,0.2,37.4,24.3,47.3,66.7c0.1,0.4-0.2,0.8-0.6,0.9C1826.6,990.4,1826.5,990.4,1826.5,990.4z"/>
			</g>
			<g>
				<path class="st8" d="M1824,1007.3c-0.4,0-0.7-0.3-0.7-0.6c-5.2-41.1,37.7-115,38.1-115.7c0.2-0.4,0.7-0.5,1-0.3
					c0.4,0.2,0.5,0.7,0.3,1c-0.4,0.7-43.1,74.2-37.9,114.8C1824.8,1006.9,1824.5,1007.2,1824,1007.3
					C1824.1,1007.3,1824.1,1007.3,1824,1007.3z"/>
			</g>
			<g>
				<path class="st8" d="M1828.3,987.4c-0.5-0.1-0.8-0.4-0.7-0.8c0-0.3,4.7-30.9,54-53.5c0.4-0.2,0.8,0,1,0.4c0.2,0.4,0,0.8-0.4,1
					c-48.6,22.3-53.1,52.1-53.2,52.4C1829,987.1,1828.7,987.4,1828.3,987.4z"/>
			</g>
			<g>
				<g>
					<path class="st15" d="M1852.1,1050.9h-41.5c-2.2,0-4.1-1.6-4.4-3.7l-6.3-60.4c-0.3-2.4,1.8-4.5,4.4-4.5h54.2
						c2.6,0,4.6,2.1,4.4,4.5l-6.3,60.4C1856.3,1049.3,1854.4,1050.9,1852.1,1050.9z"/>
				</g>
			</g>
			<g>
				<g>
					<path class="st7" d="M1843,1050.9h-41.5c-2.2,0-4.1-1.6-4.4-3.7l-6.3-60.4c-0.3-2.4,1.8-4.5,4.4-4.5h54.2
						c2.6,0,4.6,2.1,4.4,4.5l-6.3,60.4C1847.1,1049.3,1845.2,1050.9,1843,1050.9z"/>
				</g>
			</g>
		</g>
		<g>
			<g>
				<path class="st5" d="M1614.5,783.3c0,2.6-2.1,4.8-4.8,4.8c-2.6,0-4.8-2.1-4.8-4.8c0-2.6,2.1-4.8,4.8-4.8
					C1612.3,778.5,1614.5,780.7,1614.5,783.3z"/>
			</g>
			<g>
				<path class="st5" d="M1618.7,793.9l-7.5,3.2l-2.2-5.2c-0.9-2.1,0.1-4.5,2.2-5.3c2.1-0.9,4.5,0.1,5.3,2.2L1618.7,793.9z"/>
			</g>
		</g>
		<g>
			<path d="M1727.9,772.6c-0.2,0-0.4-0.1-0.6-0.3c-0.3-0.3-0.2-0.8,0.1-1l6.1-5c0.3-0.3,0.8-0.2,1,0.1c0.3,0.3,0.2,0.8-0.1,1l-6.1,5
				C1728.2,772.5,1728.1,772.6,1727.9,772.6z"/>
		</g>
		<g>
			<path d="M1734,771.7c0,0-0.1,0-0.1,0l-4.2-0.8c-0.4-0.1-0.7-0.5-0.6-0.9c0.1-0.4,0.4-0.7,0.9-0.6l4.2,0.8
				c0.4,0.1,0.7,0.5,0.6,0.9C1734.7,771.5,1734.4,771.7,1734,771.7z"/>
		</g>
		<g>
			<path d="M1719.9,754.9c-0.1,0-0.2,0-0.2,0l-4.4-1.5c-0.4-0.1-0.6-0.6-0.5-0.9c0.1-0.4,0.6-0.6,0.9-0.5l4.4,1.5
				c0.4,0.1,0.6,0.6,0.5,0.9C1720.5,754.7,1720.2,754.9,1719.9,754.9z"/>
		</g>
		<g>
			<path d="M1709.8,752.9c-0.1,0-3.4-0.3-3.4-0.3c-0.4,0-0.7-0.4-0.7-0.8c0-0.4,0.3-0.7,0.8-0.7l3.3,0.3c0.4,0,0.7,0.4,0.7,0.8
				C1710.5,752.6,1710.2,752.9,1709.8,752.9z"/>
		</g>
		<g>
			<path d="M1708.9,767.6c-0.3,0-0.6-0.2-0.7-0.5c-1.3-4.5,2.1-8.4,2.2-8.5c0.3-0.3,0.7-0.3,1-0.1c0.3,0.3,0.3,0.7,0.1,1
				c0,0-2.9,3.5-1.9,7.2c0.1,0.4-0.1,0.8-0.5,0.9C1709.1,767.6,1709,767.6,1708.9,767.6z"/>
		</g>
		<g>
			<path d="M1716.7,762.5c-0.1,0-0.1,0-0.2,0c-0.4-0.1-0.6-0.5-0.5-0.9l0.9-3.4c0.1-0.4,0.5-0.6,0.9-0.5c0.4,0.1,0.6,0.5,0.5,0.9
				l-0.9,3.4C1717.3,762.3,1717,762.5,1716.7,762.5z"/>
		</g>
		<g>
			<path d="M1706.1,760.5c-0.1,0-0.1,0-0.2,0c-0.4-0.1-0.6-0.5-0.5-0.9l0.9-3.4c0.1-0.4,0.5-0.6,0.9-0.5c0.4,0.1,0.6,0.5,0.5,0.9
				l-0.9,3.4C1706.8,760.3,1706.5,760.5,1706.1,760.5z"/>
		</g>
		<g>
			<g>
				<path class="st14" d="M1568.8,1034.7c0,0,2.2-12,7.9-12.5c5.7-0.6,13.8,12.5,13.8,12.5s22.2-1.7,23.8,0c1.6,1.7,1.6,39.3,0,39.9
					c-1.6,0.6-93.6,0.6-97.8,0c-4.2-0.6,1.8-20,10.1-23.4c8.3-3.4,17.1-3.4,17.1-3.4L1568.8,1034.7z"/>
			</g>
		</g>
		<g>
			<g>
				<path class="st14" d="M1497,919.2c0,0,9.2-8,14-4.9c4.8,3.1,3,18.4,3,18.4s18.4,12.5,18.6,14.8c0.2,2.3-23.3,31.7-24.9,31.2
					c-1.6-0.5-73.5-58-76.4-61.1c-2.9-3.1,13.9-14.5,22.5-12c8.6,2.5,15.5,8,15.5,8L1497,919.2z"/>
			</g>
		</g>
		<g>
			<path class="st14" d="M1594.8,908.7c-0.1,0-0.3,0-0.4-0.1c-0.4-0.2-0.5-0.7-0.3-1c0.5-0.8,12.6-20.8,21.1-23.4
				c8.3-2.6,43.2-8.5,44.7-8.7c0.4-0.1,0.8,0.2,0.9,0.6c0.1,0.4-0.2,0.8-0.6,0.9c-0.4,0.1-36.3,6.1-44.5,8.7
				c-8,2.5-20.1,22.6-20.2,22.8C1595.3,908.6,1595.1,908.7,1594.8,908.7z"/>
		</g>
		<g>
			<g>
				<path class="st6" d="M1690.1,861.1c0,0-8.6,1.8-12.9,2.5c-6.4,1.1-19.1,6.4-24.2,8.5c-5.1,2.1-15.4,13.2-13.2,14.3
					c2.2,1.1,13.2-5.6,13.2-5.6s-6.5,12.1-4.4,13.4c2.1,1.2,5.1-2.1,5.1-2.1s-2.1,3.7,1.1,3.7c3.3,0,11.7-11.6,11.7-11.6
					s-2.2,10.1,0.1,10.3c2.3,0.2,7.5-9.9,7.5-9.9s12.1,3.9,16.1-3.2c4.1-7.2,4.1-11.8,4.1-11.8L1690.1,861.1z"/>
			</g>
		</g>
		<g>
			<g>
				<path class="st8" d="M1741.1,794.7c0,0,44.3,27.1,28.7,69.1c-11.5,31.1-75.7,21.3-75.7,21.3l-17.8-27.7c0,0,41.1-21.9,44.2-23
					C1726.8,832.2,1741.1,794.7,1741.1,794.7z"/>
			</g>
		</g>
		<g>
			<path class="st11" d="M1714,847c-0.3,0-0.6-0.2-0.7-0.5c-0.1-0.4,0.1-0.8,0.5-0.9c0.1,0,13.3-4,33.1-8.2c0.4-0.1,0.8,0.2,0.9,0.6
				c0.1,0.4-0.2,0.8-0.6,0.9c-19.8,4.2-32.9,8.1-33,8.2C1714.2,847,1714.1,847,1714,847z"/>
		</g>
		<g>
			<path class="st11" d="M1731.1,842.6c-0.2,0-0.4-0.1-0.5-0.2c-0.2-0.3-0.3-0.6-0.1-0.9c1.3-1.9,8-11.4,12.1-10
				c0.9,0.3,1.1,0.9,1.1,1.2c0.2,2.5-8.5,7.7-12.2,9.8C1731.3,842.5,1731.2,842.6,1731.1,842.6z M1741.8,832.7
				c-1.9,0-5.2,3.2-7.9,6.6c4.7-2.9,8.3-5.7,8.3-6.6C1742.1,832.7,1741.9,832.7,1741.8,832.7z"/>
		</g>
		<g>
			<path d="M1653.6,892.9c-0.1,0-0.2,0-0.4-0.1c-0.4-0.2-0.5-0.6-0.3-1l7.8-14.1c0.2-0.4,0.6-0.5,1-0.3c0.4,0.2,0.5,0.6,0.3,1
				l-7.8,14.1C1654.1,892.8,1653.9,892.9,1653.6,892.9z"/>
		</g>
		<g>
			<path d="M1653,881.6c-0.1,0-0.2,0-0.4-0.1c-0.4-0.2-0.5-0.6-0.3-1l2.8-5.1c0.2-0.4,0.6-0.5,1-0.3c0.4,0.2,0.5,0.6,0.3,1l-2.8,5.1
				C1653.5,881.5,1653.2,881.6,1653,881.6z"/>
		</g>
		<g>
			<path d="M1728.2,765c0,0-5.3-3.6-5-9c0.3-5.4,1.5-6.8,1.5-6.8s-6.2-0.3-11.3-2c-3.3-1.1-4.8-2.3-4.8-2.3l-1.7,3.6
				c-1.6-0.1-4.9-11.4-2.5-13.1c2.4-1.7,15,2.7,15,2.7s13.3-3.1,21,6.3c7.8,9.4-1.8,22.5-1.8,22.5S1737.2,760,1728.2,765z"/>
		</g>
		<g>
			<path d="M1711.3,774.9c-2.1,0-3.7-2-3.7-2.1c-0.2-0.2-0.2-0.5-0.1-0.7c0.1-0.2,0.3-0.4,0.5-0.5l6.2-1.7c0.2-0.1,0.5,0,0.7,0.1
				c0.2,0.2,0.3,0.4,0.3,0.6c0,0.1-0.3,3.3-2.8,4.1C1712,774.8,1711.6,774.9,1711.3,774.9z M1709.6,772.7c0.6,0.4,1.4,0.9,2.2,0.6
				c0.8-0.3,1.2-1,1.5-1.7L1709.6,772.7z"/>
		</g>
		<g>
			<path class="st14" d="M1627.1,1026.3c-0.1,0-0.1,0-0.2,0c-0.4-0.1-0.6-0.5-0.5-0.9c0.1-0.2,1.4-4.9-2.4-7.1
				c-0.6-0.4-1.3-0.4-2-0.2c-2.5,0.8-5,5.2-5.8,6.8c-0.1,0.3-0.4,0.5-0.7,0.4c-0.3,0-0.6-0.2-0.7-0.6c-0.5-1.9-2.3-6.8-5.2-7.4
				c-2.8-0.6-6.3,3.6-7.5,5.3c-0.2,0.3-0.5,0.4-0.8,0.3c-0.3-0.1-0.5-0.3-0.6-0.6c0-0.1-1.1-8.4-7.3-10.5c-6-2.2-13.4,8.5-13.4,8.6
				c-0.2,0.2-0.4,0.4-0.7,0.3c-0.3,0-0.5-0.2-0.6-0.5c0,0-1.6-4.4-5.1-6.5c-2.7-1.5-8.2,4.4-9.9,6.7c-0.2,0.3-0.7,0.4-1,0.1
				c-0.3-0.2-0.4-0.7-0.1-1c0.8-1,7.5-9.5,11.8-7c2.8,1.6,4.5,4.4,5.2,6c2.2-2.8,8.5-10.2,14.4-8.1c5.2,1.9,7.2,7.3,7.9,10.1
				c1.6-2,4.8-5.2,8-4.5c3.1,0.7,5,4.5,5.8,6.8c1.1-2,3.3-5.2,5.8-6c1.1-0.4,2.2-0.3,3.2,0.3c4,2.2,3.8,6.8,3.1,8.8
				C1627.7,1026.1,1627.4,1026.3,1627.1,1026.3z"/>
		</g>
		<g>
			<path class="st11" d="M1705.1,885.3c-0.2,0-0.5-0.1-0.6-0.3l-19.8-29.4c-0.2-0.3-0.1-0.8,0.2-1c0.3-0.2,0.8-0.1,1,0.2l19.8,29.4
				c0.2,0.3,0.1,0.8-0.2,1C1705.4,885.2,1705.2,885.3,1705.1,885.3z"/>
		</g>
		<g>
			<path class="st11" d="M1698.6,798.8c-0.2,0-0.3-0.1-0.5-0.2c-0.3-0.3-0.4-0.7-0.1-1l2.9-3.5c0.3-0.3,0.7-0.4,1-0.1
				c0.3,0.3,0.4,0.7,0.1,1l-2.9,3.5C1699,798.7,1698.8,798.8,1698.6,798.8z"/>
		</g>
		<g>
			<path class="st11" d="M1704.7,801.3c-0.1,0-0.2,0-0.3-0.1c-0.4-0.2-0.6-0.6-0.4-1l1.7-4.2c0.2-0.4,0.6-0.6,1-0.4
				c0.4,0.2,0.6,0.6,0.4,1l-1.7,4.2C1705.2,801.1,1705,801.3,1704.7,801.3z"/>
		</g>
		<g>
			<path class="st11" d="M1715.6,802.5c-0.4,0-0.7-0.3-0.7-0.6l-0.7-5.5c0-0.4,0.2-0.8,0.6-0.8c0.4-0.1,0.8,0.2,0.8,0.6l0.7,5.5
				C1716.4,802.1,1716.1,802.5,1715.6,802.5C1715.6,802.5,1715.6,802.5,1715.6,802.5z"/>
		</g>
		<g>
			<path class="st11" d="M1724.1,799.8c-0.2,0-0.4-0.1-0.6-0.3l-2.1-2.7c-0.2-0.3-0.2-0.8,0.1-1c0.3-0.2,0.8-0.2,1,0.1l2.1,2.7
				c0.2,0.3,0.2,0.8-0.1,1C1724.5,799.7,1724.3,799.8,1724.1,799.8z"/>
		</g>
		<g>
			<path class="st11" d="M1729.8,797.7c-0.2,0-0.3-0.1-0.5-0.2l-2.9-2.4c-0.3-0.3-0.4-0.7-0.1-1c0.3-0.3,0.7-0.4,1-0.1l2.9,2.4
				c0.3,0.3,0.4,0.7,0.1,1C1730.3,797.6,1730.1,797.7,1729.8,797.7z"/>
		</g>
		<g>
			<path class="st11" d="M1621.4,830.2c-0.2,0-0.4-0.1-0.6-0.3c-0.3-0.3-0.2-0.8,0.1-1l29.1-23.4c0.3-0.3,0.8-0.2,1,0.1
				c0.3,0.3,0.2,0.8-0.1,1l-29.1,23.4C1621.7,830.1,1621.5,830.2,1621.4,830.2z"/>
		</g>
		<g>
			<path class="st11" d="M1625.7,826.7c-0.2,0-0.5-0.1-0.6-0.3l-5.3-8.4c-0.2-0.3-0.1-0.8,0.2-1c0.3-0.2,0.8-0.1,1,0.2l5.3,8.4
				c0.2,0.3,0.1,0.8-0.2,1C1625.9,826.7,1625.8,826.7,1625.7,826.7z"/>
		</g>
		<g>
			<path class="st11" d="M1633.1,820.7c-0.3,0-0.5-0.1-0.6-0.4l-4.9-8.2c-0.2-0.4-0.1-0.8,0.3-1c0.3-0.2,0.8-0.1,1,0.3l4.9,8.2
				c0.2,0.4,0.1,0.8-0.3,1C1633.4,820.7,1633.2,820.7,1633.1,820.7z"/>
		</g>
		<g>
			<path class="st11" d="M1640.7,814.6c-0.2,0-0.5-0.1-0.6-0.4l-4.8-7.9c-0.2-0.4-0.1-0.8,0.2-1c0.4-0.2,0.8-0.1,1,0.2l4.8,7.9
				c0.2,0.4,0.1,0.8-0.2,1C1641,814.6,1640.8,814.6,1640.7,814.6z"/>
		</g>
		<g>
			<path class="st11" d="M1648,808.7c-0.2,0-0.5-0.1-0.6-0.4l-4.7-7.6c-0.2-0.3-0.1-0.8,0.2-1c0.3-0.2,0.8-0.1,1,0.2l4.7,7.6
				c0.2,0.3,0.1,0.8-0.2,1C1648.3,808.7,1648.1,808.7,1648,808.7z"/>
		</g>
		<g>
			<path class="st11" d="M1680.1,863c-0.3,0-0.5-0.2-0.7-0.4c-0.2-0.4,0-0.8,0.3-1l7.5-3.6c0.4-0.2,0.8,0,1,0.3c0.2,0.4,0,0.8-0.3,1
				l-7.5,3.6C1680.4,863,1680.2,863,1680.1,863z"/>
		</g>
		<g>
			<path class="st11" d="M1685.3,870.6c-0.3,0-0.5-0.1-0.6-0.4c-0.2-0.4-0.1-0.8,0.3-1l7.1-4.1c0.4-0.2,0.8-0.1,1,0.3
				c0.2,0.4,0.1,0.8-0.3,1l-7.1,4.1C1685.5,870.5,1685.4,870.6,1685.3,870.6z"/>
		</g>
		<g>
			<path class="st11" d="M1689.6,878.7c-0.3,0-0.6-0.2-0.7-0.5c-0.2-0.4,0-0.8,0.4-1l8.7-3.5c0.4-0.2,0.8,0,1,0.4
				c0.2,0.4,0,0.8-0.4,1l-8.7,3.5C1689.8,878.7,1689.7,878.7,1689.6,878.7z"/>
		</g>
		<g>
			<path class="st11" d="M1694.2,885.9c-0.3,0-0.6-0.2-0.7-0.5c-0.2-0.4,0-0.8,0.4-1l8.9-3.5c0.4-0.2,0.8,0,1,0.4
				c0.2,0.4,0,0.8-0.4,1l-8.9,3.5C1694.4,885.8,1694.3,885.9,1694.2,885.9z"/>
		</g>
	</g>
	<g>
		<g>
			<path class="st13" d="M1523.4,530.7h-140.3c-4.1,0-7.5-3.4-7.5-7.5v-87.7c0-4.1,3.4-7.5,7.5-7.5h140.3c4.1,0,7.5,3.4,7.5,7.5
				v87.7C1530.9,527.3,1527.6,530.7,1523.4,530.7z M1383.1,430.2c-2.9,0-5.3,2.4-5.3,5.3v87.7c0,2.9,2.4,5.3,5.3,5.3h140.3
				c2.9,0,5.3-2.4,5.3-5.3v-87.7c0-2.9-2.4-5.3-5.3-5.3H1383.1z"/>
		</g>
		<g>
			<path class="st13" d="M1529.8,447.3h-153.1c-0.6,0-1.1-0.5-1.1-1.1c0-0.6,0.5-1.1,1.1-1.1h153.1c0.6,0,1.1,0.5,1.1,1.1
				C1530.9,446.8,1530.5,447.3,1529.8,447.3z"/>
		</g>
		<g>
			<path class="st13" d="M1392.2,441.7c-0.2,0-0.5-0.1-0.7-0.2l-8.1-6c-0.5-0.4-0.6-1.1-0.2-1.6c0.4-0.5,1.1-0.6,1.6-0.2l8.1,6
				c0.5,0.4,0.6,1.1,0.2,1.6C1392.9,441.6,1392.6,441.7,1392.2,441.7z"/>
		</g>
		<g>
			<path class="st13" d="M1384.1,441.7c-0.3,0-0.7-0.2-0.9-0.5c-0.4-0.5-0.3-1.2,0.2-1.6l8.1-6c0.5-0.4,1.2-0.3,1.6,0.2
				c0.4,0.5,0.3,1.2-0.2,1.6l-8.1,6C1384.5,441.6,1384.3,441.7,1384.1,441.7z"/>
		</g>
	</g>
	<g>
		<g>
			<path class="st7" d="M1624.2,380.4v152.7c0,2.6,2.1,4.8,4.8,4.8H1845c2.6,0,4.8-2.1,4.8-4.8V380.4c0-2.6-2.1-4.8-4.8-4.8H1629
				C1626.4,375.6,1624.2,377.8,1624.2,380.4z"/>
		</g>
		<g>
			<rect x="1691.5" y="494.5" class="st16" width="131.1" height="4.9"/>
		</g>
		<g>
			<path class="st0" d="M1624.2,380.4v7.6h225.6v-7.6c0-2.6-2.1-4.8-4.8-4.8H1629C1626.4,375.6,1624.2,377.8,1624.2,380.4z"/>
		</g>
		<g>
			<rect x="1649.2" y="415.2" class="st0" width="32.6" height="32.6"/>
		</g>
		<g>
			<rect x="1649.2" y="454.8" class="st0" width="32.6" height="32.6"/>
		</g>
		<g>
			<rect x="1648.7" y="494.5" class="st0" width="32.6" height="32.6"/>
		</g>
		<g>
			<rect x="1691.5" y="415.2" class="st0" width="131.1" height="4.9"/>
		</g>
		<g>
			<rect x="1691.5" y="425.2" class="st5" width="131.1" height="4.9"/>
		</g>
		<g>
			<rect x="1691.5" y="454.8" class="st16" width="131.1" height="4.9"/>
		</g>
		<g>
			<rect x="1691.5" y="464.9" class="st5" width="131.1" height="4.9"/>
		</g>
		<g>
			<rect x="1691.5" y="436.2" class="st0" width="131.1" height="4.9"/>
		</g>
		<g>
			<polygon class="st13" points="1664.1,442.6 1651.4,433.5 1654.3,429.4 1663.4,435.9 1675.3,422.3 1679.1,425.6 			"/>
		</g>
		<g>
			<polygon class="st13" points="1665,482.2 1652.2,473 1655.1,468.9 1664.2,475.4 1676.1,461.8 1679.9,465.1 			"/>
		</g>
		<g>
			<path class="st13" d="M1650.4,381.8c0,1.8,1.4,3.2,3.2,3.2c1.8,0,3.2-1.4,3.2-3.2c0-1.8-1.4-3.2-3.2-3.2
				C1651.9,378.6,1650.4,380,1650.4,381.8z"/>
		</g>
		<g>
			<path class="st10" d="M1641.1,381.8c0,1.8,1.4,3.2,3.2,3.2c1.8,0,3.2-1.4,3.2-3.2c0-1.8-1.4-3.2-3.2-3.2
				C1642.5,378.6,1641.1,380,1641.1,381.8z"/>
		</g>
		<g>
			<path class="st14" d="M1631.8,381.8c0,1.8,1.4,3.2,3.2,3.2c1.8,0,3.2-1.4,3.2-3.2c0-1.8-1.4-3.2-3.2-3.2
				C1633.2,378.6,1631.8,380,1631.8,381.8z"/>
		</g>
	</g>
	<g>
		<g>
			<circle class="st0" cx="1635.8" cy="695.6" r="37.6"/>
		</g>
		<g>
			<circle class="st10" cx="1630.6" cy="695.6" r="37.6"/>
		</g>
		<g>
			<polygon class="st0" points="1627.5,715.7 1608.9,694.6 1615.5,688.7 1627.4,702.1 1647.7,678.4 1654.5,684.2 			"/>
		</g>
	</g>
	<g>
		<g>
			<defs>
				<path id="SVGID_1_" d="M1222.1,392.1l-7.2,5.9c-8.2,6.7-17.5,11.8-27.5,15.2l-12.7,4.3v24.3c0,28.3,17.7,53.8,44.3,63.3
					c1.9,0.7,3,1,3,1s2.2-0.6,5.6-2c25.3-10.2,41.8-35,41.8-62.3v-24.3l-13.3-4.7c-9-3.2-17.4-7.8-25-13.6L1222.1,392.1z"/>
			</defs>
			<use xlink:href="#SVGID_1_"  style="overflow:visible;fill:#80BAFF;"/>
			<clipPath id="SVGID_00000125602767755344956220000004102219845025038729_">
				<use xlink:href="#SVGID_1_"  style="overflow:visible;"/>
			</clipPath>
		</g>
		<g>
			<path class="st17" d="M1222.1,406.7l-5.4,4.4c-6.1,5-13,8.8-20.5,11.3l-9.4,3.2v18.1c0,21.1,13.1,40.1,33,47.1
				c1.4,0.5,2.2,0.7,2.2,0.7s1.6-0.5,4.2-1.5c18.9-7.6,31.1-26.1,31.1-46.4v-18.1l-9.9-3.5c-6.7-2.4-13-5.8-18.6-10.2L1222.1,406.7z
				"/>
		</g>
		<g>
			<polygon class="st18" points="1219.7,466.1 1202.4,451.1 1207,445.7 1219,456.1 1238.3,434.1 1243.6,438.8 			"/>
		</g>
	</g>
</g>
<text transform="matrix(1 0 0 1 59.9855 295.1504)"><tspan x="0" y="0" class="st19 st1 st20">The only offline-first cloud password</tspan><tspan x="0" y="90" class="st19 st1 st20">manager</tspan><tspan x="0" y="270" class="st0 st1 st20">Offline sync using </tspan><tspan x="0" y="360" class="st0 st1 st20">multiple devices</tspan><tspan x="0" y="540" class="st19 st1 st20">Master login without</tspan><tspan x="0" y="630" class="st19 st1 st20">a password</tspan></text>
</svg>
