<?xml version="1.0" encoding="utf-8"?>
<!-- Generator: Adobe Illustrator 26.5.0, SVG Export Plug-In . SVG Version: 6.00 Build 0)  -->
<svg version="1.1" id="Layer_1" xmlns="http://www.w3.org/2000/svg" xmlns:xlink="http://www.w3.org/1999/xlink" x="0px" y="0px"
	 viewBox="0 0 1920 1080" style="enable-background:new 0 0 1920 1080;" xml:space="preserve">
<style type="text/css">
	.st0{fill:#E4E4EA;}
	.st1{fill:#EFEFF4;}
	.st2{fill:#ADA4F7;}
	.st3{fill:#FC8165;}
	.st4{fill:#FFFFFF;}
	.st5{fill:#D2D2DB;}
	.st6{fill:#7C4FD3;}
	.st7{fill:#BEBECC;}
	.st8{fill:#80BAFF;}
	.st9{fill:#50447E;}
	.st10{fill:#AFAFBF;}
	.st11{fill:#EA366E;}
	.st12{fill:#FFAF45;}
	.st13{fill:#C7C7D1;}
	.st14{fill:#C5C5D1;}
	.st15{fill:#BDDEFF;}
	.st16{fill:#9364ED;}
	.st17{font-family:'Comfortaa-Bold';}
	.st18{font-size:100px;}
	.st19{fill:#B5C5E0;}
	.st20{font-size:75px;}
	.st21{font-size:50px;}
	.st22{opacity:0.4;}
	.st23{fill:#FAFDF7;}
	.st24{fill:#F5FCEF;}
	.st25{fill:#EFFAE7;}
	.st26{fill:#EAF8DF;}
	.st27{fill:#E5F6D7;}
	.st28{fill:#E0F5D0;}
	.st29{fill:#DAF3C8;}
	.st30{fill:#D5F1C0;}
	.st31{fill:#D0EFB8;}
	.st32{fill:#CBEEB0;}
	.st33{fill:#C6ECA8;}
	.st34{fill:#C0EAA0;}
	.st35{fill:#BBE898;}
	.st36{fill:#B6E790;}
	.st37{fill:#B1E588;}
	.st38{fill:#ABE381;}
	.st39{fill:#A6E179;}
	.st40{fill:#A1E071;}
	.st41{fill:#9CDE69;}
	.st42{fill:#96DC61;}
	.st43{fill:#91DA59;}
	.st44{fill:#8CD951;}
	.st45{fill:#87D749;}
	.st46{fill:#82D541;}
	.st47{fill:#7CD339;}
	.st48{fill:#77D232;}
	.st49{fill:#72D02A;}
	.st50{fill:#6DCE22;}
	.st51{fill:#67CC1A;}
	.st52{fill:#62CB12;}
	.st53{fill:#5DC90A;}
	.st54{fill:#FFF8F7;}
	.st55{fill:#FFF1EF;}
	.st56{fill:#FFEAE8;}
	.st57{fill:#FFE3E0;}
	.st58{fill:#FFDCD8;}
	.st59{fill:#FFD5D0;}
	.st60{fill:#FFCEC9;}
	.st61{fill:#FFC7C1;}
	.st62{fill:#FFC0B9;}
	.st63{fill:#FFB9B1;}
	.st64{fill:#FFB2A9;}
	.st65{fill:#FFABA2;}
	.st66{fill:#FFA49A;}
	.st67{fill:#FF9D92;}
	.st68{fill:#FF968A;}
	.st69{fill:#FF9083;}
	.st70{fill:#FF897B;}
	.st71{fill:#FF8273;}
	.st72{fill:#FF7B6B;}
	.st73{fill:#FF7464;}
	.st74{fill:#FF6D5C;}
	.st75{fill:#FF6654;}
	.st76{fill:#FF5F4C;}
	.st77{fill:#FF5844;}
	.st78{fill:#FF513D;}
	.st79{fill:#FF4A35;}
	.st80{fill:#FF432D;}
	.st81{fill:#FF3C25;}
	.st82{fill:#FF351E;}
	.st83{fill:#FF2E16;}
	.st84{fill:#FF270E;}
	.st85{fill:#F27E64;}
	.st86{fill:#5D2866;}
	.st87{fill:#8988E2;}
	.st88{fill:#FF9280;}
	.st89{fill:#773884;}
	.st90{fill:#EFAE52;}
	.st91{fill:#A49CF2;}
	.st92{fill:#97679B;}
	.st93{fill:#F48462;}
	.st94{fill:#9792E0;}
	.st95{fill:#8B558E;}
	.st96{fill:#F99178;}
	.st97{fill:#C489C9;}
	.st98{fill:#9B4EA8;}
	.st99{fill:#FFA98F;}
	.st100{fill:#A5ACAF;}
	.st101{fill:#51215B;}
	.st102{fill:#968BD6;}
	.st103{fill:#C4CBCE;}
	.st104{fill:#B4C3E3;}
</style>
<rect width="1920" height="1080"/>
<text transform="matrix(1 0 0 1 59.813 155.7251)" class="st4 st17 st18">Team</text>
<text transform="matrix(1 0 0 1 1346.1489 428.2129)"><tspan x="0" y="0" class="st19 st17 st20">Left =&gt; Right</tspan><tspan x="0" y="60" class="st4 st17 st21">Emily Achieng’</tspan><tspan x="0" y="120" class="st4 st17 st21">Niluka Piyasinghe</tspan><tspan x="0" y="180" class="st4 st17 st21">Fabrizio Parrillo</tspan><tspan x="0" y="240" class="st4 st17 st21">Normand Overney</tspan><tspan x="0" y="300" class="st4 st17 st21">Joël Zimmerli</tspan><tspan x="0" y="360" class="st4 st17 st21">David Zimmerli </tspan><tspan x="0" y="420" class="st4 st17 st21">Timon Ziltener</tspan><tspan x="0" y="480" class="st4 st17 st21">Simon Müller</tspan></text>
<image style="overflow:visible;" width="4032" height="3024" xlink:href="C:\Users\norma\Pictures\IMG_2458.png"  transform="matrix(0.124 0 0 0.124 75 241)">
</image>
<image style="overflow:visible;" width="4032" height="3024" xlink:href="C:\Users\norma\Pictures\IMG_2464.png"  transform="matrix(0.186 0 0 0.186 588 455)">
</image>
<g>
	<g>
		<polygon class="st99" points="1160.3,419.5 1162.7,446.3 1214.1,446.3 1214.1,415.9 		"/>
	</g>
	<g>
		<polygon class="st99" points="1252,431.9 1257.2,458.7 1313.8,445.3 1303.9,415.9 		"/>
	</g>
	<g>
		<path class="st100" d="M1314.9,65.5c0,0,13.5-12.4,32.7-2.3s16.8,38.9,16.8,38.9s20.2,7.2,21.9,31.9c1.7,24.7-26.7,34.3-26.7,34.3
			l-48.3-7.6c0,0-9.6-14.4-9.6-14.9c0.1-0.5-1.9-60.1-1.9-60.1L1314.9,65.5z"/>
	</g>
	<g>
		<path class="st90" d="M1220.5,263.8c0,0,8.6-94,43.4-108.5c45.7-18.9,89.5,0.5,89.5,0.5l-2.5,123.8L1220.5,263.8z"/>
	</g>
	<g>
		<path class="st101" d="M1241.8,263.2c0,0-74.4-18.1-94.7,13.3s8.1,151.3,8.1,151.3h68.5L1241.8,263.2z"/>
	</g>
	<g>
		<path class="st86" d="M1410.2,290.4c0,0,15.5,71.9-15.5,83.5c-31,11.6-102.6-2.2-102.6-2.2l29,51.2l-93.3,27.6
			c0,0-77.5-139.9-30.3-177.2c47.2-37.3,146.5,17,146.5,17H1410.2z"/>
	</g>
	<g>
		<path class="st102" d="M1158.7,431.9c0,0-17.8,21-21.9,23c-4.1,2-47.3,16.5-55.6,24.6c-8.3,8.1-8.9,24-6.5,25.5s144.3,0,144.3,0
			l1.5-68.4L1158.7,431.9z"/>
	</g>
	<g>
		<path class="st94" d="M1248.7,447.4c0,0-7.2,28.1-13.1,31.1c-5.8,3-30.9,18.7-44.6,33c-11.4,12,0,18.9,0,18.9h79.1l68-49.9
			l-24.3-51.9L1248.7,447.4z"/>
	</g>
	<g>
		<path class="st4" d="M1144.3,446.3c0,0,19.8,22.7,15.3,24.5c-4.5,1.8-42.7-4-41.8-8.1C1118.8,458.6,1139.7,445.9,1144.3,446.3z"/>
	</g>
	<g>
		<path class="st4" d="M1241.3,464.4c0,0,25.4,16.2,21.5,19.3s-42.2,8.2-42.4,4C1220.3,483.4,1236.8,465.4,1241.3,464.4z"/>
	</g>
	<g>
		<g>
			<g>
				<g>
					<path class="st93" d="M1309.1,127.4l3.1,20.2c0,0-3.2,6.5-16.4,9.9c-9.8,2.5-13.6,1.2-13.6,1.2l-0.2-10.5l-0.2-10.2l23.3-9.1
						L1309.1,127.4z"/>
				</g>
			</g>
		</g>
	</g>
	<g>
		<g>
			<g>
				<g>
					<path d="M1305.2,128.9c0,0.6-0.1,1.4-0.3,2.3c-3.2,12.3-16.7,17.1-22.4,18.6l-0.5-11.5L1305.2,128.9z"/>
				</g>
			</g>
		</g>
	</g>
	<g>
		<g>
			<g>
				<g>
					<path class="st93" d="M1268,87.1c0,0-7.1,30.7,0.3,45.8c7.4,15.1,21.5,9.9,29.6,5.2c8.1-4.7,11.2-10.8,11.2-10.8
						s8.6,1.2,12.7-7.3s-0.9-16.6-5.9-17.7c-5-1.1-9.9,3.2-9.9,3.2l2.8-9.1C1308.7,96.5,1282.7,57.9,1268,87.1z"/>
				</g>
			</g>
		</g>
	</g>
	<g>
		<path d="M1275.8,122.9c0.1,0,0.3,0,0.4-0.1c0.4-0.2,0.5-0.7,0.3-1.1c-2.6-4.9,0.2-11.4,0.2-11.5c0.2-0.4,0-0.9-0.4-1.1
			c-0.4-0.2-0.9,0-1.1,0.4c-0.1,0.3-3.2,7.2-0.2,12.9C1275.3,122.7,1275.6,122.9,1275.8,122.9z"/>
	</g>
	<g>
		<path d="M1309.5,118.5c0.3,0,0.5-0.1,0.7-0.4l6.1-9.7c0.2-0.4,0.1-0.9-0.3-1.1c-0.4-0.2-0.9-0.1-1.1,0.3l-6.1,9.7
			c-0.2,0.4-0.1,0.9,0.3,1.1C1309.2,118.5,1309.4,118.5,1309.5,118.5z"/>
	</g>
	<g>
		<path d="M1311.8,115c0,0,5.5-0.2,5.5-0.2c0.5,0,0.8-0.4,0.8-0.8c0-0.4-0.4-0.8-0.8-0.8l-5.5,0.2c-0.4,0-0.8,0.4-0.8,0.8
			C1311,114.6,1311.3,115,1311.8,115z"/>
	</g>
	<g>
		<path class="st4" d="M1269.2,252c0.2,0,0.3-0.1,0.5-0.2c0.4-0.3,0.4-0.8,0.2-1.1c-0.1-0.1-6.5-8.7-11.7-21.5
			c-7.9-19.5-0.1-48.7,0-49c0.1-0.4-0.1-0.9-0.6-1c-0.4-0.1-0.9,0.1-1,0.6c-0.3,1.2-8,30,0,50c5.2,13,11.8,21.7,11.9,21.8
			C1268.7,251.9,1268.9,252,1269.2,252z"/>
	</g>
	<g>
		<path d="M1280.9,128.4c-0.2-0.2-0.4-0.4-0.3-0.7c0-0.3,0.2-0.5,0.4-0.7l10.4-5.8c0.3-0.2,0.6-0.1,0.8,0c0.3,0.2,0.4,0.5,0.4,0.8
			c0,0.2-0.4,4.4-3.7,6.8c-1.1,0.8-2.2,1.1-3.3,1.1C1283.1,129.9,1281,128.5,1280.9,128.4z M1283,127.7c1.3,0.5,3.2,1,4.8-0.2
			c1.5-1.2,2.3-2.8,2.7-4L1283,127.7z"/>
	</g>
	<g>
		<path d="M1289.6,98.7c0.2,0,0.4-0.1,0.5-0.2c0.4-0.3,0.4-0.8,0.1-1.1c-2.6-3.3-7.1-1.4-7.3-1.4c-0.4,0.2-0.6,0.7-0.4,1.1
			c0.2,0.4,0.6,0.6,1.1,0.4c0.1-0.1,3.5-1.5,5.3,0.9C1289.1,98.6,1289.4,98.7,1289.6,98.7z"/>
	</g>
	<g>
		<path d="M1267.1,99.7c0.2,0,0.5-0.1,0.6-0.3c0,0,1.5-1.9,3.3-2.1c0.7,0,1.4,0.2,2,0.9c0.3,0.3,0.8,0.3,1.2,0
			c0.3-0.3,0.3-0.8,0-1.2c-1-1-2.1-1.4-3.3-1.4c-2.5,0.2-4.4,2.6-4.4,2.7c-0.3,0.4-0.2,0.9,0.1,1.1
			C1266.8,99.6,1267,99.7,1267.1,99.7z"/>
	</g>
	<g>
		<path d="M1270.7,111.6c0.5,0,0.8-0.4,0.8-0.9l-0.2-5.4c0-0.2-0.1-0.4-0.3-0.6l-2.5-2.1c-0.3-0.3-0.9-0.2-1.1,0.1
			c-0.3,0.3-0.2,0.9,0.1,1.1l2.2,1.9l0.2,5.1C1269.9,111.2,1270.3,111.6,1270.7,111.6z"/>
	</g>
	<g>
		<path d="M1286.7,109.8c0.5,0,0.8-0.4,0.8-0.9l-0.3-5.4c0-0.3-0.1-0.5-0.4-0.6l-3.5-2.3c-0.4-0.2-0.9-0.1-1.1,0.2
			c-0.2,0.4-0.1,0.9,0.2,1.1l3.2,2.1l0.3,5C1285.9,109.5,1286.2,109.8,1286.7,109.8z"/>
	</g>
	<g>
		<path class="st103" d="M1304.9,105.3c0,0-14.3-1.9-20.4-11.5c-6.1-9.5-5.8-14.1-5.8-14.1s-7.1,4.1-9.6,9.4
			c-2.5,5.3-2.9,8.2-2.9,8.2s-2.4-11.5-1.2-15s7.9-23.2,35.4-20.8C1342,65.2,1325.1,99.1,1304.9,105.3z"/>
	</g>
	<g>
		<path class="st93" d="M1309.9,235c0,0-1.3-0.6-6.6-2.5c-5.1-1.8-23.5-0.4-23.5-0.4s-16,2.4-29.3,7.6
			c-13.3,5.3-11.5,11.3-11.5,11.3s-8.6,4.5-5.4,8.3c3.2,3.8,16.8,1.5,16.8,1.5s-17.4,4.9-10.7,9.3s28.8-2.8,28.8-2.8
			s32.8,15.2,44.9,4.5C1325.3,261.2,1309.9,235,1309.9,235z"/>
	</g>
	<g>
		<path class="st90" d="M1303.1,226.9l-13.3,51.8c0,0,86.9,66.3,123.2,14.3s-31.2-129.9-59.6-137.2c-28.4-7.3-14.1,76.4-14.1,76.4
			L1303.1,226.9z"/>
	</g>
	<g>
		<path class="st94" d="M1291.7,372.5c-0.9-0.5-21.4-12.9-21.3-20.9c0-1.8,1-3.3,2.9-4.3c2-1.1,4-1.3,6-0.4
			c8.3,3.6,13.4,23.8,13.6,24.7c0.1,0.3,0,0.7-0.3,0.8c-0.1,0.1-0.3,0.2-0.5,0.2C1291.9,372.6,1291.8,372.6,1291.7,372.5z
			 M1274.1,348.7c-1.4,0.8-2,1.7-2.1,2.9c-0.1,5.4,12.2,14.3,18.7,18.4c-1.5-5.2-6-19-12.1-21.6c-0.7-0.3-1.3-0.4-2-0.4
			C1275.8,347.9,1274.9,348.2,1274.1,348.7z"/>
	</g>
	<g>
		<path class="st4" d="M1368.3,238.6c0.3,0,0.6-0.2,0.8-0.5c0.2-0.4,0-0.9-0.5-1.1c-18.9-7.3-55.3-6.1-56.9-6.1
			c-0.4,0-0.8,0.4-0.8,0.8c0,0.4,0.4,0.7,0.8,0.8c0.4,0,37.7-1.2,56.2,6C1368.1,238.6,1368.2,238.6,1368.3,238.6z"/>
	</g>
	<g>
		<path class="st4" d="M1339.3,232.8c-0.1-0.4,0-0.8,0.3-1c2-1.3,20.1-12.9,26.6-8.3c1.2,0.8,1.2,1.7,1.1,2.2c-1,4-21,6.8-27.2,7.6
			C1339.7,233.3,1339.4,233.1,1339.3,232.8z M1343.8,231.2c10.8-1.6,21.5-4,21.9-5.8c0-0.1-0.1-0.3-0.4-0.5c-0.8-0.5-1.8-0.8-3-0.8
			C1357.2,224.1,1349.1,228.1,1343.8,231.2z"/>
	</g>
	<g>
		<path class="st4" d="M1282.9,159.5c3.9,0,21.8-0.6,30-11.4c0.3-0.4,0.2-0.9-0.2-1.1c-0.4-0.3-0.9-0.2-1.1,0.2
			c-8.4,11.2-29.1,10.8-29.3,10.8c-0.5,0.1-0.8,0.3-0.8,0.8c0,0.4,0.3,0.8,0.8,0.8C1282.3,159.4,1282.5,159.5,1282.9,159.5z"/>
	</g>
	<g>
		<path class="st4" d="M1239.5,269h-111.3l-31.8-71.9h106.9c2.7,0,5.1,1.6,6.2,4L1239.5,269z"/>
	</g>
	<g>
		<path class="st94" d="M1229.8,269h-111.3l-28.4-64.2c-1.6-3.6,1.1-7.7,5-7.7H1198L1229.8,269z"/>
	</g>
	<g>
		<path d="M1276.8,278.1h-157.2c-2.5,0-4.5-2-4.5-4.5c0-2.5,2-4.5,4.5-4.5h157.2c2.5,0,4.5,2,4.5,4.5
			C1281.4,276.1,1279.3,278.1,1276.8,278.1z"/>
	</g>
	<g>
		<path d="M1238.9,251.8c0.1,0,0.3,0,0.4-0.1c0.1-0.1,11.4-6.6,25.8-10.6c0.4-0.1,0.7-0.6,0.6-1c-0.1-0.4-0.6-0.7-1-0.6
			c-14.6,4.1-26,10.7-26.2,10.8c-0.4,0.2-0.5,0.7-0.3,1.1C1238.4,251.6,1238.7,251.8,1238.9,251.8z"/>
	</g>
	<g>
		<path d="M1248.7,261.1c0.2,0,0.3,0,0.5-0.1c0.1-0.1,9.6-6.3,18.1-7c0.4,0,0.8-0.4,0.7-0.9c0-0.4-0.4-0.8-0.9-0.7
			c-8.9,0.8-18.4,7-18.8,7.3c-0.4,0.3-0.5,0.8-0.2,1.1C1248.2,261,1248.4,261.1,1248.7,261.1z"/>
	</g>
</g>
</svg>
